<?xml version="1.0" standalone="no"?>
<!DOCTYPE svg PUBLIC "-//W3C//DTD SVG 1.1//EN" "http://www.w3.org/Graphics/SVG/1.1/DTD/svg11.dtd" >
<svg xmlns="http://www.w3.org/2000/svg" xmlns:xlink="http://www.w3.org/1999/xlink" version="1.1">
<metadata>
Created by FontForge 20170924 at Wed Feb  6 01:28:14 2019
 By www-data
ardyanatypes (c)
</metadata>
<defs>
<font id="FontaniaRegular" horiz-adv-x="390" >
  <font-face 
    font-family="Fontania"
    font-weight="400"
    font-stretch="normal"
    units-per-em="1000"
    panose-1="0 0 0 0 0 0 0 0 0 0"
    ascent="800"
    descent="-200"
    x-height="639.5"
    cap-height="924"
    bbox="-149 -376.481 998.667 972"
    underline-thickness="50"
    underline-position="-150"
    unicode-range="U+000A-00AD"
  />
<missing-glyph horiz-adv-x="527" 
d="M50 700h427v-700h-427v700zM78 680l185 -309l186 309h-371zM251 350l-180 300v-601zM264 329l-185 -308h370zM276 350l181 -303v605z" />
    <glyph glyph-name=".notdef" horiz-adv-x="527" 
d="M50 700h427v-700h-427v700zM78 680l185 -309l186 309h-371zM251 350l-180 300v-601zM264 329l-185 -308h370zM276 350l181 -303v605z" />
    <glyph glyph-name="uni0000" horiz-adv-x="0" 
 />
    <glyph glyph-name="uni0000" horiz-adv-x="0" 
 />
    <glyph glyph-name="nonmarkingreturn" horiz-adv-x="333" 
 />
    <glyph glyph-name="controlLF" unicode="&#xa;" horiz-adv-x="0" 
 />
    <glyph glyph-name="controlCR" unicode="&#xd;" horiz-adv-x="0" 
 />
    <glyph glyph-name="space" unicode=" " horiz-adv-x="330" 
 />
    <glyph glyph-name="exclam" unicode="!" horiz-adv-x="320" 
d="M191 538h1v-2.5v-3.5l-1 -1v7zM266 545q4 -15 3 -20q-5 -44 -13 -65q-3 -11 -12.5 -36.5t-14.5 -39.5q-2 -8 -8.5 -28.5t-10.5 -31.5q-16 -43 -20 -58q-3 -11 -10.5 -35.5t-11.5 -37.5q-9 -34 -9 -43q-1 -15 -9 -15q-3 0 -8.5 -2.5t-8.5 -3t-10 4.5q-3 3 -20 15t-24 21
v32q0 13 4 22q2 2 1.5 9t2.5 10q2 4 2.5 10t1 12.5t1.5 10.5q3 10 6 23t5 23t5.5 22.5t8.5 22.5q-1 12 6 31.5t8 25.5q2 11 8.5 30t8.5 24q12 45 29 99q2 4 13 18q9 -31 8 -38q-6 0 -6 -6t-1 -13h-1q-3 -2 -3 -12l4 5l1 -4v5q4 7 4 12q0 8 2 13q7 6 7 9q0 13 9 14
q17 2 22 -4q8 -8 15 -9l4 -2t3.5 -2.5l2.5 -2.5t2 -3.5t1.5 -3.5t1 -4t0.5 -4zM129 7q2 -2 -1 -5q-2 -2 -2.5 -4t0 -5t0.5 -4v-5.5v-5t-2 -4.5t-4 -3q-17 -5 -24 3l-11 7t-12 15q-1 5 -5 5q-4 1 -6.5 2.5t-4 3.5t-2.5 5t-1.5 5.5t-1 6t-1.5 5.5v35q8 -3 10.5 -8t5.5 -20
q7 -1 7 3t2.5 5.5t6 2t5.5 1.5q10 4 14 -8q1 -3 2.5 -4t3 -0.5t3.5 -0.5q10 -1 10 -10q0 -12 8 -18z" />
    <glyph glyph-name="quotedbl" unicode="&#x22;" horiz-adv-x="274" 
d="M105 595l2 -2q9 -6 11.5 -9t2.5 -12q2 -5 -0.5 -8.5t-6.5 -7t-3 -7.5q-3 -2 -12.5 -12t-17 -15.5t-16.5 -8.5l-3 -1.5t-5 -1.5q-6 0 -7 4q-1 5 3 5t6.5 2t5.5 5.5t4 4.5q8 8 8.5 11.5t-6.5 14.5q-1 2 -2 8t-4 8q-1 1 -1.5 7t-6.5 6q-4 0 -2 8t11.5 13t14.5 0
q4 -5 12.5 -7.5t11.5 -4.5zM220 573q6 -7 4 -15q-6 -18 -17 -30q-7 -8 -33 -22q-6 -4 -11 6v17q13 -2 24 14q-7 4 -13 17t-9 17q-7 7 -3 17q2 4 4.5 5t6 0t4.5 0l4 -2q0 -1 -1.5 -2.5l-2.5 -2.5q2 -3 5 -2q19 4 38 -17z" />
    <glyph glyph-name="quotedbl" unicode="&#x201d;" horiz-adv-x="274" 
d="M105 595l2 -2q9 -6 11.5 -9t2.5 -12q2 -5 -0.5 -8.5t-6.5 -7t-3 -7.5q-3 -2 -12.5 -12t-17 -15.5t-16.5 -8.5l-3 -1.5t-5 -1.5q-6 0 -7 4q-1 5 3 5t6.5 2t5.5 5.5t4 4.5q8 8 8.5 11.5t-6.5 14.5q-1 2 -2 8t-4 8q-1 1 -1.5 7t-6.5 6q-4 0 -2 8t11.5 13t14.5 0
q4 -5 12.5 -7.5t11.5 -4.5zM220 573q6 -7 4 -15q-6 -18 -17 -30q-7 -8 -33 -22q-6 -4 -11 6v17q13 -2 24 14q-7 4 -13 17t-9 17q-7 7 -3 17q2 4 4.5 5t6 0t4.5 0l4 -2q0 -1 -1.5 -2.5l-2.5 -2.5q2 -3 5 -2q19 4 38 -17z" />
    <glyph glyph-name="quotedbl" unicode="&#x201c;" horiz-adv-x="274" 
d="M105 595l2 -2q9 -6 11.5 -9t2.5 -12q2 -5 -0.5 -8.5t-6.5 -7t-3 -7.5q-3 -2 -12.5 -12t-17 -15.5t-16.5 -8.5l-3 -1.5t-5 -1.5q-6 0 -7 4q-1 5 3 5t6.5 2t5.5 5.5t4 4.5q8 8 8.5 11.5t-6.5 14.5q-1 2 -2 8t-4 8q-1 1 -1.5 7t-6.5 6q-4 0 -2 8t11.5 13t14.5 0
q4 -5 12.5 -7.5t11.5 -4.5zM220 573q6 -7 4 -15q-6 -18 -17 -30q-7 -8 -33 -22q-6 -4 -11 6v17q13 -2 24 14q-7 4 -13 17t-9 17q-7 7 -3 17q2 4 4.5 5t6 0t4.5 0l4 -2q0 -1 -1.5 -2.5l-2.5 -2.5q2 -3 5 -2q19 4 38 -17z" />
    <glyph glyph-name="numbersign" unicode="#" horiz-adv-x="565" 
d="M249 511q3 -4 3 -12t1 -12q12 9 18 9t20 -8q1 -1 2 -1.5t3 -1t3 -1.5q13 -6 14 -22q3 -27 -11 -63q-3 -8 -2 -21h37q7 0 12 1.5t8.5 4.5t6 7t6.5 12q7 17 17.5 52t18.5 52q1 2 1 5v6.5v4.5q0 7 1 9q2 4 5 5q1 0 12 1v-15q2 -3 6 -1t7.5 2.5t6.5 0t6.5 -2.5t6 -3.5t6 -4
t5.5 -3.5q9 -6 9 -18q0 -22 -2 -29t-12 -31q-12 -28 -15 -49q3 -1 16 -1.5t19 -3.5q5 -2 9.5 -5.5t6 -5.5t6 -9l4.5 -7q1 -2 0 -4.5t-4 -4.5t-5 -2q-28 -1 -32 -2q5 -2 21.5 -2.5t24.5 -7.5q-12 -16 -38 -16q-6 -1 -18.5 -0.5t-18.5 0.5q-22 -1 -24 -24q0 -2 0.5 -7t-0.5 -7
q-1 -12 9 -14q3 0 12 -10q7 -6 7 -8.5t-4 -12.5q-3 -11 -16 -12q-19 0 -23.5 -3.5t-12.5 -25.5q-2 -4 -5 -13.5t-6 -16.5t-8 -12q-3 -4 -4.5 -8.5t-2 -11t-1.5 -9.5q-6 -22 -6 -26q-1 -12 -16 -24q-1 1 -1 3q-3 10 -5.5 13t-11.5 7q-16 6 -17 25q-2 17 4 29q1 3 0 14.5
t5 14.5v7v6.5v5.5t-0.5 4.5t-2 3.5t-3 2t-4.5 1t-6.5 0.5t-8.5 0.5l-16 -4t-20 -2t-14 -13q-11 -23 -14 -34q-10 -35 -10 -45q0 -3 -1.5 -7.5t-2.5 -8t0 -6.5q-3 -3 -8 -3t-7 -1q-13 -10 -14 4q0 1 -1 1q-2 1 -6 1t-6.5 0.5t-5.5 2.5t-5 5l-18 18q1 4 1 9t0.5 10.5t2.5 9.5
q9 25 -13 35q-7 -5 -22.5 -8t-20.5 -5q-2 -1 -5 1q-21 12 -22 32q-1 10 -10 19q3 5 8.5 8t9 4t11.5 2t10 2q31 6 47 9.5t20.5 9.5t4.5 24q-5 0 -18.5 -2.5t-20.5 -3.5q-11 -2 -14.5 -0.5t-11.5 13.5q6 2 16.5 8.5t17.5 7.5q-34 0 -37 1q-10 0 -11.5 2.5t0.5 12.5q1 6 -2 8
q-7 5 -7 21q8 4 16 7t19.5 5.5t16.5 4.5q10 2 31 6t31 7q7 2 9 8q5 12 15 41t17 44q1 0 0.5 5.5t-0.5 6.5q1 12 4.5 17.5t16.5 15.5zM385 388q4 1 3 9q4 3 6.5 6.5t3 5.5t0.5 9v7q18 33 21 66q-19 -35 -21 -66q-3 -1 -5 -3.5t-3 -4t-1.5 -5.5t-0.5 -5.5v-6.5v-7v2
q1 1 0.5 1.5t-2.5 0.5q-3 0 -2 -3q0 -1 1 -6zM267 287q0 -3 -3.5 -11.5t-0.5 -15.5q11 5 46 6q2 3 7 3.5t9 1.5t5 5q1 2 4 7t3 7.5t-3 7.5q-20 0 -21 1q-7 1 -19.5 -2t-18.5 -3q-2 0 -4 -1.5t-3 -3t-1 -2.5zM241 443q-17 -36 -21 -64q3 8 9 20t9.5 23t2.5 21zM290 323h27v4
h-25zM134 301q7 -6 15 0q-8 5 -15 0z" />
    <glyph glyph-name="dollar" unicode="$" horiz-adv-x="528" 
d="M323 585h51q0 8 2 16t4.5 16.5t3.5 14.5q0 3 2 5t4.5 4t3.5 3q4 5 8 0q2 -2 4 -2.5t5 -0.5h6q0 -12 -2.5 -23t-9 -27.5t-7.5 -21.5q18 -16 23 -20q39 -24 50 -54q8 -21 7 -30q-1 -11 -11 -11q-19 -1 -30 8q-2 3 -15 16t-21 18q-15 10 -27 -7q-4 -7 -8 -21t-4 -16
q-7 -20 -17.5 -57.5t-15.5 -53.5q-12 -36 -15 -55q0 -2 -2.5 -6t-2.5 -7q51 -51 55 -56q8 -8 14.5 -18t13.5 -24.5t11 -20.5q-1 -6 3 -18.5t1 -19.5q-1 -5 -4 -18t-6.5 -21.5t-8.5 -15.5q-51 -67 -99 -90q-23 -11 -38 -11q-17 0 -22 -22q-2 -6 -3.5 -13.5t-3.5 -14t-4 -14
t-3 -13.5q-2 -12 -13 -12q-17 -1 -34 4q-9 3 -10 14q-1 12 8 29q11 21 11 41q-8 2 -8 3q-38 30 -94 89q-24 26 -25 58q0 5 2.5 11t3.5 8q7 39 13 56q3 10 16 17q3 -4 3 -10t1 -9l4 -1q15 9 22 -1q2 -3 7.5 -3.5t7.5 -2.5v-15t-3 -17q-5 -11 -1.5 -42.5t9.5 -42.5
q8 -12 20 -13q9 0 41 6q15 3 19 21v2v2q8 7 12 15t7.5 23t4.5 18q3 8 6 19t5.5 19.5t6 19l6.5 19.5q9 20 -6 32q-11 9 -26.5 28.5t-21.5 24.5q-15 16 -31 48q-7 13 -19 49q-2 8 0 18q6 28 11 40q24 57 59 88q12 11 15 22q1 3 2 4.5t2.5 3t4 3t4 2t5 1.5t4.5 1.5t5 1t5 0.5
q5 1 14.5 4t17.5 5t15 1zM268 309l20 -20q7 32 27 100t28 105q-5 -3 -14 -7t-14 -6.5t-11.5 -7t-10.5 -9.5q-30 -33 -42 -65q-1 -3 -2 -14t-6 -16q-2 -3 1.5 -8.5t3.5 -7.5q-2 -23 20 -44zM290 197q-1 -8 -13 -49t-10 -66q7 0 9 2q22 22 40 61q11 21 3 37q-1 4 -3 6.5
t-4 4.5l-4 4l-4.5 4.5t-4.5 5.5zM265 541q6 6 20 10.5t19 7.5q-4 4 -9.5 3.5t-8.5 -2.5t-8 -4.5t-8 -3.5q-10 -2 -5 -11z" />
    <glyph glyph-name="percent" unicode="%" horiz-adv-x="547" 
d="M390 505h-2q2 2 3 2zM365 333q-4 -6 -9.5 -18.5t-7.5 -16.5q-53 -99 -64 -126q-5 -10 -16.5 -34t-19 -42t-11.5 -36q-4 -11 -3 -12q1 -6 -2.5 -16t-3.5 -15q3 -21 0 -31q0 -1 -1.5 -8.5t-3.5 -11.5t-7 -6q-4 0 -5.5 4l-1.5 4q-3 2 -3 7.5t-1.5 6.5t-5.5 3t-6 4
q-3 3 -8.5 11.5t-9.5 11.5q-3 1 -3 8q0 79 1 87q3 30 15 59q29 67 37 84q5 9 16.5 36t19.5 40q6 10 15.5 28t13.5 24q5 9 14 26t13 24q27 49 30 56q6 15 15 19q-7 16 -23 11q-11 -4 -12 -4q-8 1 -22 -2.5t-21 -2.5q-6 -6 -26 -4q-7 0 -20.5 -3.5t-20.5 -1.5q-3 -5 2 -11
q21 -31 19 -53q-4 -32 -21 -50q-12 -12 -49 -37q-7 -4 -16 -4t-13.5 1.5t-14.5 6.5q-1 1 -3.5 3t-3.5 3h-4.5h-4.5t-4 1t-4 3q-4 4 -15.5 15t-15.5 19q-11 20 -17 38q-5 14 2 26q8 14 13 20q5 5 14 16.5t16.5 20t15.5 15.5q10 8 16.5 2.5t12.5 -2.5q12 5 32 1q23 -6 33 3
q2 1 7 0q15 -1 44.5 2.5t45.5 2.5q5 -1 14 2.5t14 2.5q18 -2 31 0q17 3 26 19q11 20 17 23q3 0 5.5 -2t5.5 -5t4 -5q-3 -1 -4.5 -6.5t-5.5 -6.5q5 -4 12 0q7 5 14 -2q4 -4 7.5 -9.5t7.5 -12t6 -9.5t1 -9q-1 -7 -9 -27.5t-17.5 -40t-14.5 -25.5q-3 -4 -8 -14q-31 -58 -45 -78
zM187 430q0 7 -1.5 22t-3.5 21q-2 4 -5 7t-5 4l-8 4t-7 3q-37 -33 -48 -61q-6 -16 6 -35q7 -9 25 -7q7 1 15 9q7 6 27 26q4 5 5 7zM360 458q-4 0 -4.5 -3t0.5 -6q3 0 4 1.5t0.5 4t-0.5 3.5q11 5 14 24q6 0 5 6v1.5v1.5q9 2 11 14h1q0 1 2 3l-2 -1v3l-2 -3q-1 -1 -1 -2
q-10 -2 -9 -14q-3 0 -4 -1.5t-0.5 -4t-0.5 -3.5q-10 -5 -14 -24zM352 447q-3 -1 1 -2l1 1t2 3q-4 -1 -4 -2zM490 100q14 -18 2 -37q-1 -2 -2.5 -4.5t-3.5 -5.5t-3 -5q-3 -5 -8 -3q-5 3 -1 8q10 11 8 39q-13 -9 -14 -22.5t-8 -22.5q-3 -3 4 -9l-5 -5q-19 -25 -62 -26
q-35 0 -56 35l-2.5 5.5t-5.5 7.5q-13 13 -14.5 26.5t3.5 31.5q10 45 23 70q1 1 2 15q8 6 16.5 7.5t16.5 -2t13.5 -6.5t14.5 -10q14 -11 26 -17q3 -1 7 -5l7.5 -7.5t8.5 -5.5q4 -2 9.5 -8t9.5 -13t5 -13q3 -10 9 -18zM392 53q9 -11 19 -7q13 6 24 20q-1 1 -3 3.5t-3.5 3.5
t-2.5 3t-0.5 4.5t1.5 5.5q11 19 -11 42q-5 5 -26 10q-7 2 -17 -13q-16 -24 -12 -49l6 -8q2 1 2.5 5t3.5 5q7 0 6 -7v-3v-2q0 -8 6 -7q2 0 7 -6zM408 26q15 -2 28 12q-17 1 -28 -12zM377 106h2v-11l-2 -3l-2 2q-1 10 2 12zM379 110q0 4 3 5q2 -5 2 -6q-1 -4 -5 -3v2v2z" />
    <glyph glyph-name="ampersand" unicode="&#x26;" horiz-adv-x="463" 
d="M232 596q3 1 8.5 2.5t9 3.5t6.5 5q-3 5 -18.5 0.5t-19.5 -4.5q3 5 15 11q4 2 9 3.5t11 2.5t9 2q26 7 50 -15q6 -6 21.5 -19t23.5 -20q14 -14 16 -36q5 -33 -6 -65q-8 -28 -29 -70q-23 -48 -47 -77q-24 -28 -42 -55q-3 -5 -13 -18t-3 -26q16 -25 35 -53q4 -6 7.5 -5.5
t10.5 7.5q3 4 35 44q12 16 30 44q14 22 36 6q3 -2 11 -3q21 -3 12 -22q-6 -17 -14 -29q-7 -10 -24 -36t-26 -40q-2 -3 -5 -7t-6 -7.5t-5 -7.5q-4 -12 2 -18q4 -4 23.5 -24t32.5 -28q9 -5 10 -14l3 -5t-1 -6q-5 -8 -14 -5q-3 1 -7 2q-27 8 -39.5 15.5t-34.5 30.5q-4 4 -9 3
q-26 -26 -27 -28q-24 -23 -49 -30q-8 -2 -13 -2q-3 -1 -14.5 -0.5t-13.5 -0.5q-1 -2 -8.5 0t-8.5 1t-8 1.5t-7.5 2.5t-7.5 3.5t-7.5 3.5t-7.5 4t-8 4q-14 8 -45 37q-29 27 -18 77q2 6 8.5 22t7.5 26q5 5 9.5 11.5t9 15.5t7.5 13q6 9 19 23.5t17 20.5q13 17 4 37
q-18 47 -23 73q-3 17 -6 42q-1 7 2.5 20t3.5 18q0 14 9 36q9 21 19 32q26 30 44 40q5 3 11.5 8t11.5 8.5t12 7.5t13 6zM294 499q3 5 4.5 12t3.5 18t3 17q-7 -4 -17 -4t-14 -2q-47 -17 -74 -47q-30 -34 -28 -68q1 -9 0 -37q0 -18 12 -49l14 16q6 10 13 19.5t18 22t15 17.5
q19 25 50 85zM187 71q6 3 11.5 6.5t9.5 7t9 8t9 8.5l9 9l9 9q-34 47 -46 69q-23 -39 -24.5 -42t-18.5 -50q-2 -5 -2 -10t0.5 -11t0.5 -9q0 -1 1 -2.5t3 -3t6 0.5q3 2 7 3.5t8.5 3.5t7.5 3z" />
    <glyph glyph-name="quotesingle" unicode="'" horiz-adv-x="185" 
d="M60 541q0 2 -1.5 3.5t-3 2t-3 2t-2.5 3.5h7t7.5 0.5t6.5 2t6 3.5l2 2q4 3 4.5 4.5t-2.5 6.5q-2 2 -2.5 5t-1 6.5t-3.5 4.5q-11 7 -2 18q4 4 10.5 4.5t8.5 -2.5q2 -4 6 -6t9.5 -3.5t8.5 -2.5t6 -4t4.5 -5l4.5 -6t4 -6q2 -4 -2.5 -9t-3.5 -8q-7 -3 -20 -14.5t-22 -14.5
q-12 -4 -18 -1.5t-8 14.5z" />
    <glyph glyph-name="quotesingle" unicode="&#x2019;" horiz-adv-x="185" 
d="M60 541q0 2 -1.5 3.5t-3 2t-3 2t-2.5 3.5h7t7.5 0.5t6.5 2t6 3.5l2 2q4 3 4.5 4.5t-2.5 6.5q-2 2 -2.5 5t-1 6.5t-3.5 4.5q-11 7 -2 18q4 4 10.5 4.5t8.5 -2.5q2 -4 6 -6t9.5 -3.5t8.5 -2.5t6 -4t4.5 -5l4.5 -6t4 -6q2 -4 -2.5 -9t-3.5 -8q-7 -3 -20 -14.5t-22 -14.5
q-12 -4 -18 -1.5t-8 14.5z" />
    <glyph glyph-name="quotesingle" unicode="&#x2018;" horiz-adv-x="185" 
d="M60 541q0 2 -1.5 3.5t-3 2t-3 2t-2.5 3.5h7t7.5 0.5t6.5 2t6 3.5l2 2q4 3 4.5 4.5t-2.5 6.5q-2 2 -2.5 5t-1 6.5t-3.5 4.5q-11 7 -2 18q4 4 10.5 4.5t8.5 -2.5q2 -4 6 -6t9.5 -3.5t8.5 -2.5t6 -4t4.5 -5l4.5 -6t4 -6q2 -4 -2.5 -9t-3.5 -8q-7 -3 -20 -14.5t-22 -14.5
q-12 -4 -18 -1.5t-8 14.5z" />
    <glyph glyph-name="parenleft" unicode="(" horiz-adv-x="411" 
d="M278 464q1 -1 3 3q9 11 28.5 26t26.5 23q2 2 7 3.5t7 4.5q0 1 4.5 1t5.5 -3q2 -4 -3 -6q-2 -1 -3 -2q-45 -36 -69 -72q-26 -36 -46 -70q-22 -37 -38 -72q-26 -58 -36 -92q-14 -49 -11 -88q0 -2 -1 -15.5t2 -14.5q3 -4 4 -13.5t4 -13.5q3 -7 11 -17l3.5 -3.5l4 -4t1 -4.5
t-4.5 -6q-1 0 -0.5 -2.5t1.5 -3.5q4 -3 8.5 -11t8.5 -10q-16 -15 -39 -4q-19 9 -27 18l-19 19q-35 29 -53 86q0 2 -2.5 9t-3 9.5t-1.5 8.5t-1 10t1 9t4 10q2 3 0 21q0 4 3 10t3 9q4 52 28 106q10 24 46 91q25 47 57 91q12 16 36.5 40t30.5 31l14 14h25l13 -13q6 -5 2 -12
q-4 -9 -11 -7q-11 2 -26 -12q-39 -37 -86 -105q-6 -9 -16 -26q-8 -14 -50 -97q-2 -3 -3.5 -8t-3.5 -9.5t-5 -8.5q-4 -6 2 -17q33 67 36 72q27 48 46 72q6 7 13 17.5t14 20t14 16.5q24 27 63 63q4 5 16 8t16 5q3 2 7 2h6t8 -2.5t7 -3.5q-32 -21 -44 -34q-4 -4 -9.5 -10
t-9.5 -10t-8.5 -10.5t-7.5 -12.5v1q-3 -2 -4 -2q-2 -1 1 -2z" />
    <glyph glyph-name="parenright" unicode=")" horiz-adv-x="411" 
d="M134 118l-3 -1q-10 -11 -29.5 -26.5t-26.5 -23.5q-2 -2 -4.5 -3l-5 -2t-4.5 -3q0 -1 -4.5 -1t-5.5 3t-0.5 4t3 2t3.5 2q45 36 69 71q26 37 46 71q22 37 37 71q26 58 37 93q14 49 11 87q0 3 1 16.5t-2 13.5q-3 5 -4.5 14.5t-3.5 13.5q-3 7 -11 17l-3.5 3.5l-4 4t-1 4.5
t4.5 6q1 0 0.5 2.5t-1.5 3.5q-4 2 -8.5 10.5t-8.5 10.5q16 15 39 4q19 -9 27 -18q15 -16 19 -19q35 -29 52 -86q1 -2 3 -9t3 -9.5t2 -8.5t1 -10t-1.5 -9t-3.5 -10q-2 -3 0 -21q0 -3 -1.5 -6t-3 -6.5t-1.5 -6.5q-4 -52 -28 -106q-11 -24 -46 -91q-25 -47 -58 -91
q-11 -16 -35.5 -40t-30.5 -31l-14 -14h-25l-13 13q-6 5 -2 12q4 8 11 7q11 -2 26 11q39 38 86 106q6 9 16 26q8 14 50 97q2 2 5 11.5t6 14.5q5 5 -1 16q-33 -66 -36 -71q-27 -48 -46 -73q-5 -5 -10.5 -13t-10 -14t-10 -13t-10.5 -13q-24 -27 -63 -63q-5 -5 -16.5 -8
t-15.5 -5t-7.5 -2h-5.5t-8 2.5t-7 3.5q32 21 44 34q3 4 12 12.5t14.5 15.5t9.5 16h-1q-1 -1 -0.5 -1.5t2.5 -0.5q1 1 2 3z" />
    <glyph glyph-name="asterisk" unicode="*" horiz-adv-x="369" 
d="M221 402q5 5 10.5 7.5t11 2t12 -0.5t11.5 1q-3 -10 -9 -20t-12 -18t-12.5 -18.5t-11.5 -19.5h59q19 1 25 -15q3 -10 7 -13q7 -5 7 -21q-12 -9 -31 -7q-3 0 -10 -3t-11 -2q-19 1 -25 -3q-1 0 -22 -3q-1 -10 8 -18q12 -10 29 -33.5t27 -33t4 -17.5q-3 -4 -9.5 -5t-10.5 2
q-31 21 -52 49q-3 3 -6.5 7l-7 8t-6.5 7q-1 2 -3 4t-3.5 4t-2.5 4q-5 9 -11.5 8.5t-11.5 -8.5q-42 -69 -51 -87q-2 -4 -5.5 -7.5t-6.5 -7t-5 -6.5h-24q-12 0 -12 13q0 5 3 11q5 11 16.5 31t15.5 28q11 21 17 28q-1 0 -17.5 9t-24.5 14v5t-0.5 6.5t-1 5.5t-2.5 6t-5 5
q-1 0 -0.5 3t2 5.5t4 5t4.5 2.5q4 1 13 3t13 2.5t13 -0.5q4 9 -2 16q-1 1 -4 3.5t-4.5 4.5t-1.5 6q-7 5 -12.5 13.5t-9 16.5t-9.5 16t-13.5 13t-0.5 14q49 -16 73 -50q2 -3 35 -39q5 4 21 29q1 1 28 38q4 6 7 0q0 -1 2 -1h2z" />
    <glyph glyph-name="plus" unicode="+" horiz-adv-x="406" 
d="M229 355q-1 -18 7 -28h81t33 -12q6 -3 6 -13.5t-5 -14.5q-11 -7 -16 -7q-11 1 -31.5 -2.5t-29.5 -2.5h-13.5h-12.5q-4 1 -12 -3.5t-12 0.5v-29v-54q0 -6 -3.5 -23t-0.5 -26q-7 1 -9 0.5t-8 -6.5q-3 2 -6 5l-6 6t-7 4q-3 1 -5.5 4.5l-5 7t-6.5 4.5q-10 4 -9 20q1 18 0 65
q0 20 -19 15q-1 0 -3.5 -2t-4.5 -2q-10 0 -18.5 -0.5t-18 3.5t-15.5 13q-1 2 -4.5 2.5t-4.5 1.5q-2 3 1.5 7.5t1.5 7.5q-3 3 -10.5 2.5t-12.5 1.5q6 9 27 14q-8 3 -11 2.5t-15 -3.5q0 4 2.5 6.5t4.5 2.5q4 -1 9 1.5t6 2.5q1 1 14 1h14q-1 -5 -6 -5t-6 -2l1 -3h19q2 8 7 10
t13 0.5t11 -1.5q8 2 10.5 4.5t2.5 10.5v93q0 11 1 12q4 8 11 7q1 -1 4.5 -12t5.5 -17q1 3 2 8t3 8t7 4q12 2 20 -9q1 -1 9 -5q15 -9 13 -23q-1 -2 1.5 -11t-1.5 -13q-1 -3 -1.5 -8t0.5 -11t1 -9z" />
    <glyph glyph-name="comma" unicode="," horiz-adv-x="166" 
d="M114 48q2 -3 1 -11.5t-4 -11.5q-21 -22 -32 -29q-16 -9 -20 6q0 1 -0.5 3.5t-1 3.5t-2.5 3.5t-5 4.5h19q6 1 7.5 6t-2.5 9q-3 2 -4.5 5.5t-1.5 5.5t0.5 6.5t0.5 5.5q0 2 2.5 5t4.5 3q14 3 18 0q2 -2 9.5 -6.5t10.5 -8.5zM62 60h-2l-1 3q0 6 8 9l1 -1q1 -3 0 -4.5t-3.5 -4
z" />
    <glyph glyph-name="hyphen" unicode="-" horiz-adv-x="368" 
d="M108 246q-9 -2 -33 -4q-1 7 -9.5 16t-8.5 16l7 7q-1 4 -7 7t-7 4q32 11 47 11q11 0 29 2t29 3t30 0q10 4 21 5t25.5 0t21.5 -1q5 0 17 3t19 3q15 -2 23 -12.5t5 -25.5q-3 -11 -5 -13t-10 -1q-6 1 -12 -0.5t-12.5 -3.5t-11.5 -1q-28 2 -37 -1q-9 -2 -25 -2.5t-23 -2.5
q-6 -1 -19 -2t-19 -2q-5 -1 -17 -2t-18 -3z" />
    <glyph glyph-name="period" unicode="." horiz-adv-x="161" 
d="M111 28v-19q-9 -4 -10 -5q-12 -4 -21 3q-2 2 -7.5 6t-8 6t-6.5 6.5t-6 9.5q-3 7 -2 15q2 11 12 9q31 -7 45 -21q5 -6 4 -10z" />
    <glyph glyph-name="slash" unicode="/" horiz-adv-x="392" 
d="M139 21q-21 -12 -55 -8v16q-3 -1 -8 3t-9 3q-1 0 -5.5 -5t-8.5 -4q-6 8 -1 13q8 6 14 16t8.5 16t7 20t6.5 18q3 10 11 29.5t11 29.5q6 15 45 113q5 14 16 40.5t15.5 37.5t11 27.5t12 31.5t11.5 28q3 7 9 22t11 27t11 22q3 5 8.5 19t10.5 20q8 10 20 13.5t23 -1.5
q16 -8 28 -6q-10 -21 -10 -28q0 -3 -6 -19q-5 1 -7 -1.5t-1.5 -7t-0.5 -5.5q-20 -46 -23 -61q0 -3 -5 -11t-3 -14q-6 -9 -11.5 -27.5t-9.5 -27.5q-4 -6 -10.5 -27t-14.5 -31q-1 -13 -11 -35.5t-12 -29.5q-5 -14 -15 -39.5t-13 -35.5q-12 -36 -33 -85q-2 -4 -5 -14.5
t-6 -16.5q-1 -1 -1 -4t1 -5q8 -8 -3 -14q-2 -1 -3 -2z" />
    <glyph glyph-name="zero" unicode="0" horiz-adv-x="495" 
d="M476 406q0 -18 -4 -31q-1 -3 -1 -14.5t-4 -13.5q-12 -66 -47 -131q-16 -29 -53 -82q-21 -30 -44 -56q-40 -45 -87 -60q-23 -7 -36 -6t-34 11q-24 12 -35 13q-12 1 -29 14q-38 29 -48 43q-20 29 -24 51q-10 50 -10 64q0 9 -3 11t-1 8q3 10 4.5 23t2.5 26.5t5 23.5
q6 17 20 64q2 6 7 17t7 17t17 40q14 30 47 77q8 11 25.5 29t19.5 20q3 4 11.5 9t11.5 9t9 2q13 -3 29 0q2 1 32 1q0 13 18 18q19 4 30 -2q5 -3 17 -5.5t18 -5.5q11 -8 31 -17q2 -1 8 -3.5t9 -4t7.5 -4.5t8 -6t5.5 -7q5 -7 14.5 -18.5t16.5 -21.5t11 -20q13 -37 14 -51
q1 -3 2.5 -14t1.5 -17zM311 404q2 7 1 29t4 29q-4 6 -4.5 18.5t-1.5 15.5l-16 -16t-17 -17.5t-14 -16.5t-14 -19q-9 -14 -25 -46q-18 -34 -23 -49q-18 -53 -20 -62q-2 -7 -4.5 -21.5t-4.5 -21.5t-2.5 -22t-2.5 -23q-2 -7 -2 -16.5t0.5 -21t0.5 -18.5t11 -12q46 47 57 66
q3 4 9.5 17t11.5 19q4 5 7 11t6 14t4 12q10 20 12 28q13 53 15 60q1 8 5 29.5t7 33.5z" />
    <glyph glyph-name="one" unicode="1" horiz-adv-x="337" 
d="M175 479h1q0 -1 -1 -2q-1 0 0 2zM315 503q2 -26 -16 -78q-11 -31 -43 -115q-7 -18 -18.5 -50.5t-16.5 -45.5q-29 -77 -34 -89q-6 -14 -14 -39.5t-12 -34.5q-1 -5 -1.5 -10t0.5 -12.5t0 -10.5q0 -1 0.5 -4.5t0 -5.5t-0.5 -4q-7 -10 -13 -5q-4 4 -6 3h-2h-3.5t-2.5 -1.5
t-1 -4.5q1 -7 -10 -13q-7 8 -25.5 21t-25.5 21q-5 6 -18 19.5t-19 21.5v16q4 9 7 25.5t4 21.5q5 19 12 39.5t16.5 45t14.5 38.5q7 20 22 57t21 52q25 68 25 69l4 10t4 9t5 9.5t4 9.5q1 1 1.5 4t0.5 5h2t2 3l-3 -1h-1q-10 -4 -11 -5q-4 -6 -7 -6q-10 1 -23.5 -8.5
t-20.5 -10.5q-26 19 -30 25.5t2 19.5q-2 0 -8 3.5t-10 2.5q3 6 8.5 11.5t10.5 8t12.5 6.5t11.5 7q17 12 66 28q1 1 6 2.5t6.5 2t4.5 3t4.5 5.5t1.5 8q0 4 14 7q2 1 23 1v-27q5 -3 11 2q15 13 29 1q7 -6 16 -12q20 -13 23 -51zM84 530q-20 -13 -24 -21q-6 8 1 17q7 8 23 18
t19 12q9 8 35 18q15 5 37 11q9 2 13 -2q-2 -4 -6 -7t-7 -4t-9.5 -3t-7.5 -2q-30 -9 -74 -37zM64 496q-4 1 -1 3l4 1v-2z" />
    <glyph glyph-name="two" unicode="2" horiz-adv-x="453" 
d="M157 543l2 2q-1 -2 -1 -3q-1 0 -1 1zM453 28q-2 -2 1.5 -6.5t1.5 -8.5q-3 -1 -8 -3.5t-8.5 -4t-9.5 -3t-10 0.5q-24 5 -62.5 4.5t-62.5 -0.5q-10 1 -20.5 -0.5t-27 -6t-20.5 -5.5q-6 -1 -28.5 -7t-34.5 -8q-3 -1 -6 -2.5t-5.5 -2.5t-6 -1.5t-6.5 0.5q-17 -11 -43 1
q-23 11 -36 26q-4 6 -10.5 12.5t-12.5 13t-11 12.5q-11 15 -20 48q-2 7 -9 36q-2 4 -1 9.5t2 9t3.5 9t2.5 8.5q2 5 5 10.5t5 8.5t7 9t6 7q3 4 9 12.5t11 14.5t11 10q2 2 4 5l4 6t4 5q4 3 10 11t12.5 12.5t14.5 5.5q1 0 7 6q19 20 51 42q5 4 14.5 12.5t14.5 12.5
q9 6 17.5 13.5t17 15.5t15.5 15l16.5 16.5l15.5 15.5q16 16 20 31q1 5 4 12t4.5 11.5t2.5 12t-2 12.5q-26 12 -44 1q-7 1 -14.5 -0.5t-12 -3t-13 -5.5t-11.5 -5q-19 -8 -30 -27q-9 -14 -18 -15q-12 -1 -27 13q-3 4 -6 12q0 1 -1 4t-1.5 4l-1.5 3t-2 3t-3 2.5t-4 1.5
q-4 2 -6.5 8.5t-0.5 11.5q10 25 17 35q12 20 31 26q6 2 15 6t17 7t15 4q10 3 55 4q4 0 9 -1t10 -2.5t9 -1.5q3 0 7.5 -2t8 -1.5t6.5 4.5q4 -4 14.5 -5t14.5 -6q3 -4 12 -9.5t13 -10.5q1 -1 3.5 -4t4.5 -6t3 -6q3 -10 14 -29.5t14 -31.5q1 -1 2 -3t1 -3q6 -74 -34 -134
q-29 -44 -65 -79q-6 -6 -27 -27.5t-33 -31.5q-5 -5 -16 -14.5t-19.5 -17.5t-15.5 -15q-1 -2 -26 -33q2 -4 11 -4q40 -1 47 0q18 2 51 -1.5t48 -3.5q7 -4 21.5 -4.5t18.5 -1.5q27 -7 39 -8q11 -2 20 -14q-4 1 -10.5 0.5t-11.5 0t-10 2.5q-4 3 -16 2.5t-16 3.5q-14 -2 -38.5 2
t-35.5 3q-10 0 -37.5 0.5t-37.5 -1.5q-24 -2 -64 -14q-16 -6 -19 -16q6 -4 17 0t15 3q43 15 98 14q25 -1 33 0q19 1 29 0.5t29 -3t29 -3.5q26 -1 48 -8q19 -6 25 -18l1.5 -3l2 -4t1 -3.5t0.5 -4v-4t-1.5 -4.5t-3.5 -4zM131 510q3 2 5 5.5t3.5 6t3.5 6t4 5.5q-3 0 -6 -1
t-4.5 -2.5t-4 -4.5t-3.5 -3q-6 -7 2 -12zM159 543q1 0 2 2h-2q0 1 1 2l-3 -2q-1 -2 0 -2q-5 0 -5 -5q-5 0 -2 -4q2 0 2 4q4 0 6 4z" />
    <glyph glyph-name="three" unicode="3" horiz-adv-x="410" 
d="M316 336q-3 -4 -14 -19t-19 -20q2 -5 7.5 -12.5t6.5 -8.5q29 -45 38 -81q7 -33 2 -75q-4 -37 -30 -72q-28 -36 -48 -48q-1 0 -3 -3l-2 -2q-19 -18 -26.5 -22.5t-33.5 -12.5q-33 -10 -46 -9q-2 0 -5 -2.5t-4 -2.5q-20 -4 -40 12q-45 38 -63 82q-9 20 -13 46
q-1 5 -1.5 18.5t-3.5 19.5q-6 16 -3 38q4 42 13 58q3 4 9 3v-32q5 0 6 4.5t2 5.5q11 6 22 -4q15 -15 13 -39q0 -3 0.5 -10.5t-0.5 -10.5q-1 -9 2.5 -25.5t2.5 -24.5q-1 -7 8.5 -9t13.5 1q7 5 18.5 9.5t22.5 9.5t19 12q49 40 63 70q2 3 5.5 10t5 11t3.5 10t3 11q0 1 1 3
q2 5 -1 7q-6 6 -9 5q-10 -2 -27 2t-25 3q-13 13 -14 13q-13 12 -3 24l-1 4q-1 2 -6 1.5t-6 1.5q-2 5 3 9t5 6q-1 1 -4 4.5t-4 3t-6 -3.5q-2 -3 -3 0q-2 3 -1 4q18 23 33 27q26 6 39 23q3 4 11 8.5t11 8.5q31 37 46 63q14 22 10 46q-28 4 -62 -11q-26 -10 -49 -30
q-7 -6 -19.5 -17.5t-17.5 -15.5q-13 -11 -5 -23q5 -4 2.5 -15t-0.5 -15q1 -3 -4 -3q-5 -1 -12 4q-5 3 -6 -2q-2 -4 1 -6q2 -2 3 -4q1 -1 4.5 -2t4.5 -2t0 -5q-4 -6 -17 -1q-1 0 -2 2q-47 49 -60 88v8.5t-5 10.5q6 6 5.5 17.5t1.5 19.5q1 3 18 35q8 14 20 19q7 3 18 14t17 14
q49 26 70 30q17 3 29 4q8 0 22 4q24 6 39 -11q3 -4 7.5 -8.5t9.5 -9t8 -7.5q12 -13 37 -29q12 -8 13 -23q3 -29 16 -38q2 -2 2 -3q0 -3 0.5 -10t0.5 -10.5t-0.5 -9.5t-2.5 -10.5t-5 -8.5q-31 -40 -45 -68q-3 -7 -17 -21zM263 559q-14 4 -28 0q14 -4 28 0zM282 507v5v7h-21
q-22 -8 -56 -24q-10 -4 -7 -10q1 -3 3 -3.5t3 0.5t3 2.5t3.5 2t3.5 0.5q5 0 7 1q13 8 61 19zM223 125q1 0 2 2l-1 1v1h-1h-1q-14 -20 -40 -35q-3 -2 -11.5 -7.5t-15 -9t-13.5 -5.5t-22 -7.5t-24 -8.5q30 -6 73 18.5t53 49.5q1 0 1 1zM248 138q1 2 4 6.5t4 7t2 8t-1 9.5
q-3 -6 -7.5 -15.5t-5.5 -12.5q1 -1 4 -3zM291 324q0 2 -3 2q-11 0 -14 -1q-7 -3 -6 -8q0 -1 6 -10q2 1 4 3.5t3.5 3.5t3.5 2.5t4.5 1.5t1.5 6zM223 129l1 -1q-1 -1 -2 -4q-1 0 -1 0.5v2.5z" />
    <glyph glyph-name="four" unicode="4" horiz-adv-x="512" 
d="M486 523q4 -5 0 -17q-6 -15 -17 -41t-14 -34q-38 -93 -48 -126q-4 -13 -13 -37.5t-13 -35.5q-3 -11 -8.5 -30.5t-7.5 -26.5q-10 -34 -16 -59q-2 -9 -11 -40.5t-11 -49.5q-3 -20 -9 -31q-5 -11 -11 -7q-3 2 -9 8q-11 12 -26 11q-4 0 -12.5 3t-13.5 2q-2 0 -5 3t-3 7
q1 5 0 14t-0.5 16t4.5 13q0 14 7 37.5t8 29.5q5 24 12 39q1 1 1.5 10t7.5 12q-17 6 -40 -11q-15 -11 -83 -48q-4 -2 -12 -5t-11 -4q-9 -4 -34 6q-27 11 -58 43q-2 2 -3 9t-5 9v4.5t-0.5 4.5t-1.5 4.5t-1.5 4.5t-1.5 4.5t-1.5 4.5t-1.5 4.5t-1 4.5q-6 21 -6 24q1 9 7 32
q16 53 60 133q34 61 90 143q11 16 16 26q10 20 29 11q1 -1 4 -1.5t4 -1.5q2 -2 16 -14q0 -4 -2 -9q-7 -16 8 -18q13 -3 13 -15v-7q6 -5 8.5 -12.5t2.5 -12.5t-1.5 -15t-1.5 -13q-2 -26 -18 -46q-4 -6 -10.5 -18t-7.5 -14q-8 -13 -21.5 -35.5t-24.5 -41t-22 -34.5
q-2 -2 -7 -12t-10 -14q-1 -1 -0.5 -5t2.5 -7q71 24 78 26q5 1 17 5t21 6t18 1q13 -1 19 15q13 33 31.5 93.5t24.5 78.5q2 7 7.5 19.5t7.5 19.5q13 38 19 69h30q3 -2 11 -9.5t14 -10.5q9 -6 22 -22.5t15 -18.5zM270 261q11 2 15 6.5t4 16.5l-112 -35q3 -3 7 -11q5 -7 10 -1
q1 1 4.5 1t6.5 1q35 17 65 22z" />
    <glyph glyph-name="five" unicode="5" horiz-adv-x="463" 
d="M161 498q1 2 2 3q-1 -2 -1 -3h-1zM406 522q16 0 31 -10q-12 2 -31 -1.5t-28 -2.5q-11 1 -21 -1t-25 -6t-20 -5q-10 -3 -15 -2q-6 0 -17 -3t-17 -3q-11 0 -19 -16q-23 -50 -53 -93q-4 -4 -6 -9.5t-5 -13.5t-4 -11q3 -5 12 -2q8 3 17.5 4t18 1h18t18 -0.5t18.5 -0.5
q7 1 21 -9q47 -32 62 -70q1 -4 8 -18t9 -22q5 -19 5.5 -29.5t-0.5 -28.5q-1 -10 -4 -21.5t-5.5 -17.5t-9.5 -20t-8 -17q-1 -1 -1.5 -3t-1 -3t-1.5 -2q-4 -4 -10 -12.5t-8 -10.5q-37 -44 -98 -70q-20 -9 -30 -7q-5 1 -13 -1.5t-11 -3.5q-13 -1 -41.5 4t-46.5 14
q-51 24 -65 81q-4 17 -4 26q20 2 32 -9q13 -12 23.5 -14t31.5 1q30 3 82 34q8 4 20 16.5t16 16.5q13 11 30.5 38t22.5 34q0 7 9 24q3 6 -1 11t-10 5h-6h-6.5t-5.5 -1t-6 -3t-10 -2t-12 -1q-44 -16 -80 -45q-11 -8 -21 -2q-2 1 -4.5 1.5t-5 0.5t-3.5 1q-4 1 -12 -1.5t-10 0.5
q-3 2 -6 4.5t-6.5 4.5t-5.5 4q-10 8 -20 20q-6 7 -8 16v6.5t-1 8t-4 6.5q-1 2 0 7q2 6 4.5 18.5t5.5 22.5t6 18q10 22 38 86q11 25 37 83q0 1 3.5 8t4 8.5t3 8t2 8.5t1 9t-0.5 9q-1 5 7 20l14 14h30q5 0 17 3.5t18 2.5q2 0 7 2t8 2h54q4 0 4 -4q0 -3 1.5 -4.5t3.5 -1.5
q11 2 31.5 -2t30.5 -2q19 2 46 -15q-4 -8 -15.5 -9t-15.5 -4q29 1 45 -23q0 -4 -2.5 -7t-5.5 -3q-6 1 -18.5 -2.5t-19.5 -2.5q-13 2 -36 -1.5t-30 -3.5q-5 0 -11 -10q4 1 14 0.5t12 3.5q1 1 13 1q6 1 26 0.5t26 0.5zM144 466q1 0 1.5 1l1.5 3q-4 -1 -4 -2q-2 -1 1 -2z
M166 501l-1 2l-2 -2q1 3 1 6q-3 -1 -3 -5v-2v-2v0q-3 0 -4 -1.5t-1 -4.5v-3q-3 -1 -4 -2t-0.5 -4t0.5 -4q-4 0 -5 -3t0 -6q3 0 4 1.5t0.5 4t0.5 3.5q3 0 4 1.5t0.5 4.5t-0.5 4q5 0 6 9q3 0 4 3zM303 573h36q31 1 37 4h-73v-4z" />
    <glyph glyph-name="six" unicode="6" horiz-adv-x="393" 
d="M363 549q-1 -3 2 -7t1 -7q-9 -11 -21 -13q-10 -2 -15 -8q-3 -5 -12.5 -10.5t-12.5 -9.5q-21 -24 -40 -52q-25 -37 -49 -75q-4 -7 -20 -39q-2 -3 -2 -6.5t0.5 -8t-0.5 -7.5q4 0 11.5 -0.5t13.5 0t11 4t15 -0.5q56 -22 76 -44q15 -16 24 -41q11 -31 -9 -80q-14 -35 -44 -73
q-9 -12 -57 -61q-12 -12 -32 -19q-5 -2 -11.5 -5t-12.5 -6.5t-11 -5.5q-15 -5 -40 6q-6 3 -11.5 7t-8 6.5t-9 9.5t-8.5 9q-12 12 -21 16q-13 5 -22 21q-19 35 -18 61q0 2 -3.5 12.5t0.5 12.5q3 5 2 14.5t2 12.5t3 12.5t5 12.5q0 7 2 15t4 13.5t5.5 14t5.5 13.5q10 32 20 55
q32 79 36 86q26 52 59 98q22 31 40 49q4 4 12 14.5t13 15.5q35 34 60 41q9 13 25 7q2 -7 -9 -12q-35 -16 -55 -39l-2 -4q-4 1 -4 -4q-5 0 -5 -6v1q-3 -1 -4 -1q-2 -2 1 -3q1 0 1.5 1t1.5 2q5 1 5 6q5 0 4 4q6 -1 13 5.5t11 6.5q1 1 3 2t4 3t4 3q28 18 59 12q-2 -21 15 -25
q3 -1 3.5 -3t-2.5 -5q-1 0 -1 -2t-1 -2zM159 38q1 0 2 4q-2 -1 -3 -1q-3 -2 1 -3zM165 44q7 2 11 6t12 17q-3 -1 -5.5 -2.5t-5.5 -4.5l-4.5 -4.5t-4 -5.5t-3.5 -6zM231 240q-10 1 -30.5 -3t-31.5 -2q-2 -2 -8.5 -4.5t-10 -6t-4.5 -12.5q0 -10 -6.5 -31t-6.5 -33q-3 -3 -4 -6
t-1 -5.5t0.5 -7t0.5 -5.5q0 -5 -3.5 -11.5t-2.5 -10.5q6 -33 7 -40q0 -1 1.5 -2.5t1.5 -2.5q1 -6 6 -6.5t6 2.5q35 32 44 45q9 11 17.5 26t13 24.5t13.5 29.5t12 26l3 9t2 7q5 14 -10 19h-6q-2 1 -3 1z" />
    <glyph glyph-name="seven" unicode="7" horiz-adv-x="351" 
d="M351 521q1 -4 0 -9t-1.5 -8t-3.5 -8t-3.5 -6.5t-4.5 -8l-4 -6.5q-15 -24 -58 -89q-13 -19 -33 -45q-3 -3 -10 -15.5t-13 -17.5q-1 -4 2 -8t3 -6t1.5 -4.5t1.5 -4t-3 -4.5q0 -1 -0.5 -2.5l-0.5 -1.5q-2 -3 1.5 -8t-0.5 -8q-2 -2 -7.5 -2t-7.5 -3l-1 -1q-14 0 -21.5 -7.5
t-14.5 -21.5q-24 -44 -50 -99q-12 -28 -16 -47q-4 -26 0 -49q1 -3 1.5 -8.5t1.5 -8.5l2.5 -7.5t3.5 -8t6 -6.5q-2 0 -6.5 -1t-6 -1.5t-3 -3t-0.5 -7.5l-6 -7q-8 -1 -12 7q-4 7 -14 17.5t-13 14.5q-22 30 -30 60q-5 23 -1 57q3 16 10.5 43.5t9.5 38.5q1 4 2 6q17 23 0 43
q-4 4 0 9t-1 9h-2.5h-3t-3.5 0.5t-4 0.5q-2 1 0 4q3 3 6.5 5.5t7 3.5t7.5 1.5t8.5 1.5t7.5 2q8 2 13 8q-4 2 -9.5 1.5t-9 -1.5t-9 -3t-9.5 -2q-7 -2 -15 -3q-4 -1 -4.5 3.5t2.5 5.5q33 9 39 9q19 2 30 13q12 14 13 16q16 26 47 74q3 5 19.5 33t27.5 42q3 4 6.5 9t7.5 10.5
t7 9.5q3 5 1 10h-59q-28 -2 -46 19q-1 1 -5 4q-2 5 1 9.5t3 5.5q-1 4 -5 4t-4 2q-1 2 -0.5 4.5t2.5 2.5q6 0 17.5 3t17.5 3q11 -1 31 2t31 2q6 -1 30 -0.5t31 0.5t13 7q-7 4 -14 5.5t-18.5 1.5h-14.5q-20 1 -29 0.5t-29 -3t-29 -2.5q-1 0 -15 -2t-22 -2q7 5 29 10q19 3 41 4
t48 0t41 0q9 0 14 -0.5t10.5 -5.5t6.5 -15q0 -3 8 -7q25 -13 29 -45q0 -2 1 -4l2 -4t1.5 -4t0.5 -5zM239 483q4 5 9.5 12.5t10 14.5t9.5 13q-12 3 -17 -1q-5 -3 -10.5 -11.5t-8.5 -11.5q-19 -20 -45 -63q-1 0 -63 -101q18 -1 20 2q5 8 10.5 17t11.5 18.5t11 17.5
q33 53 62 93z" />
    <glyph glyph-name="eight" unicode="8" horiz-adv-x="435" 
d="M420 463q-1 -6 -1 -22.5t-2 -23.5q-6 -32 -34 -66q-40 -48 -90 -66q-4 -1 -11 -4.5t-13.5 -6t-12.5 -2.5q-2 -13 8 -24q17 -19 43 -65q17 -32 14 -55q-1 -13 0 -33q4 -46 -46 -85q-31 -24 -68 -24q-3 0 -11 -3t-13 -2q-43 9 -66 23q-14 9 -27 23q-2 2 -20 15q-3 2 -3 3
q-2 7 -11.5 16.5t-11.5 14.5q-2 3 -4.5 7t-6 8t-4.5 7q-12 18 -14 39q-4 54 39 125q7 6 16.5 16t18.5 18.5t18 13.5q16 11 19.5 21.5t-3.5 28.5q-4 8 -9 36q-4 20 -4 38q0 10 2 13q6 8 1 17q-7 12 1 30q21 47 58 77q22 19 50 21h37q11 0 39 -9q27 -9 48 -32q11 -12 25 -19
q7 -5 13.5 -10.5t12 -14t8.5 -13.5t8 -16t7 -15zM290 484q-18 -8 -26.5 -12t-20.5 -14t-19 -22q-17 -33 -16 -48v-8q-1 -9 8 -13q6 -3 13 3q5 4 20 15t22 18q7 6 13 14l10.5 14t10.5 15.5t10 15.5q6 8 3 17q-1 3 -3 4t-3.5 1h-5h-4.5h-12zM223 557q-4 -2 -10.5 -5
t-10.5 -5.5t-10 -7.5t-10 -11q33 16 35 17q21 5 33 13q-3 0 -9 1t-10.5 0.5t-7.5 -2.5zM155 484q-20 -23 -15 -51q1 7 7.5 24t7.5 27zM131 310q-2 -3 -8.5 -5t-7.5 -8q3 -5 7.5 -0.5t6.5 4.5q9 1 2 9zM207 100l5 10t5 10.5t4 10.5t2 10.5t-1 11.5q-6 28 -12 41
q-4 9 -12.5 23t-10.5 19q-16 -6 -25 -17q-30 -34 -47 -70q-10 -24 -5 -45q1 -1 2 -7t2 -8.5t3.5 -6t6.5 -4.5q28 -10 40 -7q10 2 24.5 11.5t18.5 17.5zM344 442q5 14 5 15l-2 3q-5 1 -6 -1q-1 -1 -1 -3v-4q-2 -3 -13 -24q-6 0 -9.5 -2t-8.5 -7.5t-6 -6.5l-16.5 -16.5
t-20 -19t-17.5 -12.5t-24 -12q-2 -1 -7 -6q-1 -2 0 -5q2 -5 5 -3q41 22 53 33q2 2 5 4.5t5 5t4.5 5t5.5 4.5q1 1 5.5 6.5t8 7t8.5 0.5q16 12 26 38z" />
    <glyph glyph-name="nine" unicode="9" horiz-adv-x="344" 
d="M126 42q-1 0 -1 2h2q-1 -1 -1 -2zM342 477q0 -2 3.5 -12t-1.5 -13q-3 -5 -2 -14.5t-1 -11.5q-3 -3 -3.5 -7t0 -7t-1 -6t-4.5 -5q0 -9 -2.5 -18.5t-7.5 -21.5t-6 -17q-11 -32 -20 -55q-32 -79 -36 -86q-27 -52 -60 -98q-22 -31 -39 -49q-4 -4 -12 -14t-13 -15
q-36 -35 -61 -42q-9 -13 -24 -7q-2 8 9 13q35 15 54 38l2 4q5 0 5 5q3 -1 5 4q1 0 1.5 0.5l2.5 2.5l-3 -1h-2v0q-5 -3 -4 -6q-5 0 -5 -5q-4 1 -7 -0.5t-5 -4t-5 -5t-6 -2.5q-2 0 -4 -1.5t-4 -3.5t-3 -2q-29 -19 -60 -13q2 21 -14 25q-3 1 -4 3.5t3 4.5q0 1 0.5 2.5t0.5 2.5
q2 2 -1.5 6t-0.5 7q9 11 20 13q10 2 15 9q4 4 13 10t12 9q22 25 40 52q26 37 50 76q3 6 20 38q1 3 1 6.5v8.5v8q-4 -1 -9 -0.5t-9 0.5t-8.5 -1t-8.5 -3q-5 -4 -16 1q-55 21 -75 43q-15 16 -25 42q-11 30 9 79q15 35 44 74q10 12 58 60q12 12 31 19q6 2 12 5t12.5 6.5
t11.5 5.5q15 6 40 -6q5 -2 10.5 -6.5t8.5 -7t9.5 -9.5t7.5 -8q12 -13 22 -17q12 -5 21 -21q20 -35 19 -61zM214 548l-1 -1q1 0 1 1zM210 547v-2q2 3 3 4zM213 546q-2 -1 -3 -1q1 -1 2 0zM209 545q-6 -2 -9.5 -4.5t-6.5 -6.5t-8 -13q10 6 24 24zM243 473q5 12 5 18t-3.5 18
t-4.5 18l-1 1.5l-1 1.5q-1 6 -5.5 6.5t-6.5 -1.5q-35 -33 -44 -45q-21 -29 -55 -107q-9 -19 -5 -27q4 -5 8 -6.5t11 -1.5t9 -1q6 0 18.5 3.5t19.5 1.5q5 -1 14.5 2t11.5 3q9 1 10 11q1 5 2.5 11t3.5 12t2 11q1 2 6.5 25.5t4.5 35.5q-1 8 0 10z" />
    <glyph glyph-name="colon" unicode=":" horiz-adv-x="185" 
d="M99 242q9 -3 8 -15q-1 -6 0 -16q1 -11 -6 -14q-12 -6 -18 1q-2 3 -8 6t-9 6.5t-2 10.5q1 0 0 1l-1 1q-6 1 -9 4t-3.5 6t0 9t0.5 8q-1 10 11 11q3 -2 3 -6v-6q4 -5 7 -2q10 10 19 -1q2 -2 8 -4zM118 393l17 -17v-23q-1 -2 -4 -2.5t-4 -1.5q-7 -8 -19 2q-4 4 -22 24
q-11 13 -6 32h9q3 -1 3.5 -5.5t4.5 -4.5h6.5h7.5t7 -4z" />
    <glyph glyph-name="semicolon" unicode=";" horiz-adv-x="171" 
d="M89 242q8 -3 8 -7q0 -3 0.5 -9.5t0.5 -11t-1 -10t-4 -9.5q-7 -13 -24 -18q-14 -5 -19 11q30 22 24 54h15zM103 371q7 -1 10 -5t5 -11.5t3 -10.5q-14 -15 -21 -13.5t-22 21.5l20 10q-4 2 -9.5 4l-11 4t-9.5 4q-10 5 -7 12q1 2 4 4t6.5 2.5t4.5 -0.5q2 -2 14 -7t13 -14z
" />
    <glyph glyph-name="less" unicode="&#x3c;" horiz-adv-x="273" 
d="M161 228q7 -6 14.5 -16t15 -19t15.5 -15q-6 -11 -9 -17q-27 13 -51 34q-12 10 -32.5 29.5t-29.5 27.5q-2 2 -10 8t-12 10q-9 9 -10.5 13t-1.5 19q15 1 36 14q23 15 79 52q1 1 4.5 2.5t4.5 3.5q7 9 25 9q10 0 13 -8q0 -1 4.5 -3t6.5 -4q-5 -22 -30 -38q-8 -5 -32.5 -23
t-39.5 -25q-1 0 -9 -9q4 -6 10.5 -12.5t12.5 -11t13.5 -11t12.5 -10.5z" />
    <glyph glyph-name="equal" unicode="=" horiz-adv-x="331" 
d="M278 204q9 -3 -4 -14q-6 -4 -15 -4h-54h-52q-6 0 -18 -3t-19 -3q-6 1 -11.5 3t-12 5.5t-9.5 4.5t-5 10q-1 6 -9.5 14.5t-14.5 10.5q-4 1 -4 4q-1 10 5 12q16 7 23 7q53 2 67 0q7 -2 16 -2.5t15.5 -0.5t15 -0.5t15.5 -1.5q2 0 5 -0.5t5 -0.5t5 -0.5t5.5 -1.5l5 -2t4.5 -2
t4 -3t3.5 -4.5t3.5 -5.5q1 -3 3 -3q9 3 15.5 -7t11.5 -12zM56 397q-2 -1 -4 0.5t-2 4.5q0 4 4 4q51 1 81 -1q-5 -3 -14 -3t-14 -1q1 -5 7 -4h2h49q16 2 45.5 -1t34.5 -4q6 0 18 -8l3 -3t4 -2.5t6 1.5v-23q-1 -11 -12 -11q-9 -1 -16 0q-18 1 -51.5 -2.5t-49.5 -2.5
q-3 0 -6.5 -2.5t-6.5 -2.5q-32 -3 -53 18l-13 13q9 5 13 7l-6 4h-8.5t-8 0.5t-3.5 2.5q-1 5 2 6t9.5 5t10 5t11.5 0l7 3q-3 1 -6.5 1t-6 0.5t-5.5 0.5h-5.5t-5 -0.5t-5 -1.5t-5.5 -3z" />
    <glyph glyph-name="greater" unicode="&#x3e;" horiz-adv-x="273" 
d="M210 286q17 -14 11 -35q-4 3 -11 1t-10 -3.5t-9 -6t-8 -5.5q-15 -9 -41 -27t-34 -24q-1 0 -5 -1.5t-5 -3.5q-8 -14 -29 -9q-3 1 -6 3.5t-7 6t-6 5.5q2 2 3 9.5t5 9.5q2 3 6.5 6.5t8 7t7.5 5.5q11 6 51 36q1 1 13 7.5t16 13.5q-5 8 -13 15.5t-19 16t-17 13.5q-6 6 -20 24
t-23 24q0 4 3 9.5t2 10.5q30 -15 56 -37q6 -5 12 -11t12 -11.5t11.5 -11t12 -11t12.5 -10.5q1 -1 21 -17z" />
    <glyph glyph-name="question" unicode="?" horiz-adv-x="374" 
d="M311 524q14 -17 13 -34q-2 -15 0 -33q0 -6 -3 -16t-3 -15q-1 -13 -11 -33q-30 -60 -54 -88q-9 -11 -48 -64q-12 -17 -33 -51.5t-31 -49.5q-18 -25 -15 -47q-30 -5 -43 20q-2 4 -5 5q-13 5 -13.5 15t3.5 20q3 25 16 50q2 3 5.5 10l5.5 11t5.5 9.5t7.5 10t9 7.5
q0 -2 1 -6.5t1 -8t-3 -6.5q-5 -6 -9.5 -13t-7 -12t-6.5 -15t-6 -14q-11 -22 -6 -34q15 53 58 111q8 10 22.5 30t20.5 30q3 3 36 58q26 41 36 67q15 39 12 72q-2 -4 -5 -8t-3 -7q-1 -18 -15 -47q-8 -17 -49 -88q-3 -6 -7 -5q2 11 17 37q38 66 44 104q1 2 3.5 6.5t1.5 8.5v6
q-5 4 -10 6t-11 1.5t-9.5 -1.5t-11 -3t-9.5 -3q-44 -12 -68 -57q-19 -37 -17 -65q1 -10 -11 -20q-6 -5 -12 1q-4 3 -11 10.5t-11 10.5q-2 2 -2 11q-2 41 27 89q13 22 37 41q22 18 51 23q2 0 12 3.5t16 2.5q1 0 7 6q-10 4 -15 3.5t-14.5 -3.5t-14.5 -3q-20 -1 -38 -14
q-18 -11 -35 -29q-10 -10 -24 -37q-4 -7 -7.5 -21t-5.5 -19q-2 -6 -2.5 -13.5t0.5 -17.5t1 -15q-8 -7 -9 1q-1 3 -2.5 8.5t-2 9t-1 9t0.5 8.5q9 33 10 36q21 44 55 73q21 18 42 24q4 1 17 5.5t21.5 6t17.5 0.5q19 -1 32 -8q40 -23 65 -53zM121 23q-2 -5 2 -16t-1 -18
q-6 -12 -8 -13.5t-13 -1.5q-12 -1 -17 7q-4 6 -6.5 6.5t-4.5 1t-3.5 2l-2.5 2.5t-2 3l-1.5 3t-1.5 4l-1 3q-5 14 4 26q4 6 13 5q2 0 5 1t5 1.5l2 0.5q1 -1 1 -2q3 -6 5 -7t10 4q2 1 4.5 -0.5t6 -5.5t4.5 -6z" />
    <glyph glyph-name="at" unicode="@" horiz-adv-x="711" 
d="M394 183q-1 0 -1 2q0 1 -0.5 2t-2 2.5t-3.5 2.5q-2 -3 -9 -10t-9 -13q-8 -17 -35 -39q-19 -16 -36 -15h-11.5t-11.5 0.5t-10 2.5t-11 6q-25 22 -32 31q-10 15 -15 36q-6 26 2 40q3 4 3 13.5t1 13.5q7 30 35 91q15 32 58 62q5 0 8 3.5t6.5 7t7.5 3.5q3 0 9 3.5t11 1.5
q3 -1 12.5 -3.5t14.5 -4.5q9 -4 26 -12.5l25 -12.5q4 -2 7 -4.5t7.5 -7.5t5.5 -6q16 -16 25 -19q12 -4 15 -22q2 -10 9 -13q9 -4 4 -17q-3 -10 -8 -20t-11 -22.5t-10 -18.5q-16 -35 -16 -66q0 -11 11 -15q5 6 37 27q20 12 37 41q25 42 35 75q11 37 13 53q4 43 3 60
q-1 36 -22 56q-26 24 -57 32q-39 9 -48 9q-54 -3 -89 -18q-40 -18 -69 -38q-30 -21 -39 -30q-16 -17 -34.5 -35t-54.5 -74q-5 -7 -12.5 -21.5t-9.5 -18.5q-6 -10 -11 -22.5t-10 -26.5t-9 -23q2 -10 -2 -30t-2 -29q1 -3 3.5 -18t4 -20.5t5.5 -16.5t9 -18q4 -6 11.5 -14
t9.5 -11q11 -13 26 -15q10 -2 16 -8q3 -4 11 -9t12 -9q-21 -10 -50 -3q-50 12 -92 61q-23 27 -33 69q-2 8 -3 17t-0.5 16t0 16.5t-0.5 16.5q5 7 6 22t2 19q2 4 4 12t4 14.5t4 11.5q1 3 6 22t12 27q-4 7 5 16q7 9 17.5 28.5t17.5 28.5q4 4 16.5 17.5t18.5 21.5q6 9 20.5 21.5
t17.5 15.5q12 12 41 33q56 39 119 57q32 9 49 6h23t23 -3q7 -2 21.5 -5t21.5 -5q39 -12 75.5 -38t71.5 -93q11 -20 10 -38q0 -3 0.5 -6t1.5 -6t1.5 -6t1 -6.5t0.5 -6.5q-1 -24 -13 -72q-10 -36 -26 -64q-22 -40 -58 -75q-28 -27 -62 -38q-7 -2 -16.5 -2t-15.5 -1
q-24 -3 -47 19q-14 13 -29 49zM306 393v1l-2 2q8 1 15 4t15.5 8t10.5 7q-21 1 -37 -20v2l-3 -1q-3 -2 1 -3zM332 196q2 4 6.5 8t6.5 7t1 8q3 1 6 3.5t5.5 5.5t4.5 6t3.5 6t3.5 6.5t4 6.5q21 28 36 59q5 9 1 14q-1 0 -3 -2.5t-5 -1.5q6 26 5 31q-1 10 -11 11q-30 3 -48 -20
q-13 -16 -15 -19q-2 -2 -8 -11t-10 -12q-1 0 -1.5 -1.5t-0.5 -2.5q-2 -4 -9 -17t-11 -22t-6 -18q-13 -44 -12 -61q1 -7 7 -13q34 31 63 75l5.5 11t9 14t9.5 8q1 -5 -7 -19q-6 -10 -17 -34q-1 -3 -5 -7t-6 -8t-2 -11zM259 317q1 3 2 3l-2 2l-1 -3z" />
    <glyph glyph-name="A" unicode="A" horiz-adv-x="500" 
d="M605 859q0 -4 2.5 -9.5t2.5 -7.5q-4 -7 -6.5 -21.5t-5.5 -20.5q-7 -19 -18.5 -54t-15.5 -47q-1 -4 -4 -16.5t-7 -19.5q-2 -3 -4.5 -16t-8.5 -18q0 -11 -13 -46q-12 -32 -20 -58q-5 -14 -12.5 -41t-11 -38t-8.5 -26.5t-9.5 -30t-8.5 -26.5q-9 -29 -16 -59q-12 -48 -17 -64
q-8 -24 -11 -42q-1 -9 -5 -24.5t-6 -23.5q0 -2 -3.5 -17t-4.5 -24q0 -3 -3 -9.5t-2 -11.5v-6.5t-1.5 -6.5t-2.5 -6q-4 -29 5 -42q4 -5 4 -13t-1 -11.5t-4.5 -4.5t-11.5 -1q-11 -1 -36 11q-13 7 -43 36q-21 19 -22 50q-1 26 6 70q1 7 2.5 17t2 17.5t3 16.5t5.5 17q1 3 0 16
q-1 19 -23 21q-6 1 -15.5 -1.5t-13.5 -3.5q-2 0 -8 0.5t-10 -0.5t-8 -4q-10 1 -27 -2.5t-25 -2.5q-11 0 -17 -2t-10 -7.5t-8 -17.5q-8 -21 -8 -34q0 -3 -2 -8t-3 -9.5t-1 -8.5q2 -7 -3 -26t3 -29q1 -2 1 -7q-2 -36 36 -54q15 -7 17 -16t-0.5 -13t-9.5 -2q-11 3 -17 -1
q-16 -12 -35 2q-38 28 -81 77q-30 34 -28 68q1 3 -2.5 10t-1.5 12q5 15 5 35q-1 5 2.5 17t1.5 19q0 2 2.5 6t2.5 6t2 7t2 9.5t-4 8.5q-2 3 -1 8.5t7 9.5q11 8 20 34q12 37 29 68q5 8 10 19.5t9.5 23t9.5 20.5q1 2 11 18t13 26q1 4 4.5 3.5t6.5 1t3.5 2.5t3 5l2.5 4
q6 11 22 36t24 39q12 21 40 62t41 65q3 7 8.5 14t13 16t10.5 13q14 17 80 84q43 44 87 68l9 9q31 -12 75 -48q5 -4 10 -6t12 -4t11 -3q1 -1 3 -1t3.5 0.5t3 -0.5t2.5 -3q1 -4 7.5 -10.5t5.5 -11.5zM438 723q1 2 0.5 4.5t-1 3t-2.5 2t-3 2.5q-164 -180 -263 -403q9 -13 22 -5
q3 2 13 3q32 3 36 4q3 1 8 2t9 1t9 0.5t9 1.5q5 1 14 5.5t15 4.5q7 1 9 6t1 10t1 10q0 1 1.5 2t1.5 2q1 19 1 27q-1 6 4.5 14t4.5 13q0 7 1.5 14t5.5 15.5t5 12.5q2 7 10 23t10 25q2 6 6.5 15.5t7 18t2.5 16.5q9 18 42 104q2 5 5 11.5t5.5 11.5t5 11t4.5 12zM230 728
q-5 -4 -12.5 -14.5t-12.5 -15.5l-4 -1q-1 5 5.5 11.5t6.5 11.5q9 9 19 21.5t20.5 25.5t19.5 22q46 50 55 59q44 42 91 77q2 2 5 2h4q-8 -14 -19 -19q-4 -1 -6 -3q-10 -12 -42.5 -40.5t-47.5 -46.5q-7 -9 -18 -20t-21 -21.5t-17 -19.5q-16 -19 -26 -29zM201 697
q1 -11 -14 -19q0 11 14 19zM187 678q1 -12 -9 -14q-1 11 9 14zM173 659q0 -1 0.5 -3.5t-0.5 -4t-5 -1.5q1 0 0.5 3t0.5 4.5t4 1.5zM164 645v-3q0 -5 -3 -6h-2v3t1 4.5t4 1.5zM154 627q1 -4 -2 -5q-2 5 -2 6q0 2 2 3q3 0 2 -2v-2zM159 636q0 -5 -5 -5q0 5 5 5zM168 650
q1 -5 -4 -5q0 5 4 5zM178 664q0 -5 -5 -5q0 5 5 5z" />
    <glyph glyph-name="A" unicode="&#xc5;" horiz-adv-x="500" 
d="M605 859q0 -4 2.5 -9.5t2.5 -7.5q-4 -7 -6.5 -21.5t-5.5 -20.5q-7 -19 -18.5 -54t-15.5 -47q-1 -4 -4 -16.5t-7 -19.5q-2 -3 -4.5 -16t-8.5 -18q0 -11 -13 -46q-12 -32 -20 -58q-5 -14 -12.5 -41t-11 -38t-8.5 -26.5t-9.5 -30t-8.5 -26.5q-9 -29 -16 -59q-12 -48 -17 -64
q-8 -24 -11 -42q-1 -9 -5 -24.5t-6 -23.5q0 -2 -3.5 -17t-4.5 -24q0 -3 -3 -9.5t-2 -11.5v-6.5t-1.5 -6.5t-2.5 -6q-4 -29 5 -42q4 -5 4 -13t-1 -11.5t-4.5 -4.5t-11.5 -1q-11 -1 -36 11q-13 7 -43 36q-21 19 -22 50q-1 26 6 70q1 7 2.5 17t2 17.5t3 16.5t5.5 17q1 3 0 16
q-1 19 -23 21q-6 1 -15.5 -1.5t-13.5 -3.5q-2 0 -8 0.5t-10 -0.5t-8 -4q-10 1 -27 -2.5t-25 -2.5q-11 0 -17 -2t-10 -7.5t-8 -17.5q-8 -21 -8 -34q0 -3 -2 -8t-3 -9.5t-1 -8.5q2 -7 -3 -26t3 -29q1 -2 1 -7q-2 -36 36 -54q15 -7 17 -16t-0.5 -13t-9.5 -2q-11 3 -17 -1
q-16 -12 -35 2q-38 28 -81 77q-30 34 -28 68q1 3 -2.5 10t-1.5 12q5 15 5 35q-1 5 2.5 17t1.5 19q0 2 2.5 6t2.5 6t2 7t2 9.5t-4 8.5q-2 3 -1 8.5t7 9.5q11 8 20 34q12 37 29 68q5 8 10 19.5t9.5 23t9.5 20.5q1 2 11 18t13 26q1 4 4.5 3.5t6.5 1t3.5 2.5t3 5l2.5 4
q6 11 22 36t24 39q12 21 40 62t41 65q3 7 8.5 14t13 16t10.5 13q14 17 80 84q43 44 87 68l9 9q31 -12 75 -48q5 -4 10 -6t12 -4t11 -3q1 -1 3 -1t3.5 0.5t3 -0.5t2.5 -3q1 -4 7.5 -10.5t5.5 -11.5zM438 723q1 2 0.5 4.5t-1 3t-2.5 2t-3 2.5q-164 -180 -263 -403q9 -13 22 -5
q3 2 13 3q32 3 36 4q3 1 8 2t9 1t9 0.5t9 1.5q5 1 14 5.5t15 4.5q7 1 9 6t1 10t1 10q0 1 1.5 2t1.5 2q1 19 1 27q-1 6 4.5 14t4.5 13q0 7 1.5 14t5.5 15.5t5 12.5q2 7 10 23t10 25q2 6 6.5 15.5t7 18t2.5 16.5q9 18 42 104q2 5 5 11.5t5.5 11.5t5 11t4.5 12zM230 728
q-5 -4 -12.5 -14.5t-12.5 -15.5l-4 -1q-1 5 5.5 11.5t6.5 11.5q9 9 19 21.5t20.5 25.5t19.5 22q46 50 55 59q44 42 91 77q2 2 5 2h4q-8 -14 -19 -19q-4 -1 -6 -3q-10 -12 -42.5 -40.5t-47.5 -46.5q-7 -9 -18 -20t-21 -21.5t-17 -19.5q-16 -19 -26 -29zM201 697
q1 -11 -14 -19q0 11 14 19zM187 678q1 -12 -9 -14q-1 11 9 14zM173 659q0 -1 0.5 -3.5t-0.5 -4t-5 -1.5q1 0 0.5 3t0.5 4.5t4 1.5zM164 645v-3q0 -5 -3 -6h-2v3t1 4.5t4 1.5zM154 627q1 -4 -2 -5q-2 5 -2 6q0 2 2 3q3 0 2 -2v-2zM159 636q0 -5 -5 -5q0 5 5 5zM168 650
q1 -5 -4 -5q0 5 4 5zM178 664q0 -5 -5 -5q0 5 5 5z" />
    <glyph glyph-name="A" unicode="&#xc4;" horiz-adv-x="500" 
d="M605 859q0 -4 2.5 -9.5t2.5 -7.5q-4 -7 -6.5 -21.5t-5.5 -20.5q-7 -19 -18.5 -54t-15.5 -47q-1 -4 -4 -16.5t-7 -19.5q-2 -3 -4.5 -16t-8.5 -18q0 -11 -13 -46q-12 -32 -20 -58q-5 -14 -12.5 -41t-11 -38t-8.5 -26.5t-9.5 -30t-8.5 -26.5q-9 -29 -16 -59q-12 -48 -17 -64
q-8 -24 -11 -42q-1 -9 -5 -24.5t-6 -23.5q0 -2 -3.5 -17t-4.5 -24q0 -3 -3 -9.5t-2 -11.5v-6.5t-1.5 -6.5t-2.5 -6q-4 -29 5 -42q4 -5 4 -13t-1 -11.5t-4.5 -4.5t-11.5 -1q-11 -1 -36 11q-13 7 -43 36q-21 19 -22 50q-1 26 6 70q1 7 2.5 17t2 17.5t3 16.5t5.5 17q1 3 0 16
q-1 19 -23 21q-6 1 -15.5 -1.5t-13.5 -3.5q-2 0 -8 0.5t-10 -0.5t-8 -4q-10 1 -27 -2.5t-25 -2.5q-11 0 -17 -2t-10 -7.5t-8 -17.5q-8 -21 -8 -34q0 -3 -2 -8t-3 -9.5t-1 -8.5q2 -7 -3 -26t3 -29q1 -2 1 -7q-2 -36 36 -54q15 -7 17 -16t-0.5 -13t-9.5 -2q-11 3 -17 -1
q-16 -12 -35 2q-38 28 -81 77q-30 34 -28 68q1 3 -2.5 10t-1.5 12q5 15 5 35q-1 5 2.5 17t1.5 19q0 2 2.5 6t2.5 6t2 7t2 9.5t-4 8.5q-2 3 -1 8.5t7 9.5q11 8 20 34q12 37 29 68q5 8 10 19.5t9.5 23t9.5 20.5q1 2 11 18t13 26q1 4 4.5 3.5t6.5 1t3.5 2.5t3 5l2.5 4
q6 11 22 36t24 39q12 21 40 62t41 65q3 7 8.5 14t13 16t10.5 13q14 17 80 84q43 44 87 68l9 9q31 -12 75 -48q5 -4 10 -6t12 -4t11 -3q1 -1 3 -1t3.5 0.5t3 -0.5t2.5 -3q1 -4 7.5 -10.5t5.5 -11.5zM438 723q1 2 0.5 4.5t-1 3t-2.5 2t-3 2.5q-164 -180 -263 -403q9 -13 22 -5
q3 2 13 3q32 3 36 4q3 1 8 2t9 1t9 0.5t9 1.5q5 1 14 5.5t15 4.5q7 1 9 6t1 10t1 10q0 1 1.5 2t1.5 2q1 19 1 27q-1 6 4.5 14t4.5 13q0 7 1.5 14t5.5 15.5t5 12.5q2 7 10 23t10 25q2 6 6.5 15.5t7 18t2.5 16.5q9 18 42 104q2 5 5 11.5t5.5 11.5t5 11t4.5 12zM230 728
q-5 -4 -12.5 -14.5t-12.5 -15.5l-4 -1q-1 5 5.5 11.5t6.5 11.5q9 9 19 21.5t20.5 25.5t19.5 22q46 50 55 59q44 42 91 77q2 2 5 2h4q-8 -14 -19 -19q-4 -1 -6 -3q-10 -12 -42.5 -40.5t-47.5 -46.5q-7 -9 -18 -20t-21 -21.5t-17 -19.5q-16 -19 -26 -29zM201 697
q1 -11 -14 -19q0 11 14 19zM187 678q1 -12 -9 -14q-1 11 9 14zM173 659q0 -1 0.5 -3.5t-0.5 -4t-5 -1.5q1 0 0.5 3t0.5 4.5t4 1.5zM164 645v-3q0 -5 -3 -6h-2v3t1 4.5t4 1.5zM154 627q1 -4 -2 -5q-2 5 -2 6q0 2 2 3q3 0 2 -2v-2zM159 636q0 -5 -5 -5q0 5 5 5zM168 650
q1 -5 -4 -5q0 5 4 5zM178 664q0 -5 -5 -5q0 5 5 5z" />
    <glyph glyph-name="A" unicode="&#xc3;" horiz-adv-x="500" 
d="M605 859q0 -4 2.5 -9.5t2.5 -7.5q-4 -7 -6.5 -21.5t-5.5 -20.5q-7 -19 -18.5 -54t-15.5 -47q-1 -4 -4 -16.5t-7 -19.5q-2 -3 -4.5 -16t-8.5 -18q0 -11 -13 -46q-12 -32 -20 -58q-5 -14 -12.5 -41t-11 -38t-8.5 -26.5t-9.5 -30t-8.5 -26.5q-9 -29 -16 -59q-12 -48 -17 -64
q-8 -24 -11 -42q-1 -9 -5 -24.5t-6 -23.5q0 -2 -3.5 -17t-4.5 -24q0 -3 -3 -9.5t-2 -11.5v-6.5t-1.5 -6.5t-2.5 -6q-4 -29 5 -42q4 -5 4 -13t-1 -11.5t-4.5 -4.5t-11.5 -1q-11 -1 -36 11q-13 7 -43 36q-21 19 -22 50q-1 26 6 70q1 7 2.5 17t2 17.5t3 16.5t5.5 17q1 3 0 16
q-1 19 -23 21q-6 1 -15.5 -1.5t-13.5 -3.5q-2 0 -8 0.5t-10 -0.5t-8 -4q-10 1 -27 -2.5t-25 -2.5q-11 0 -17 -2t-10 -7.5t-8 -17.5q-8 -21 -8 -34q0 -3 -2 -8t-3 -9.5t-1 -8.5q2 -7 -3 -26t3 -29q1 -2 1 -7q-2 -36 36 -54q15 -7 17 -16t-0.5 -13t-9.5 -2q-11 3 -17 -1
q-16 -12 -35 2q-38 28 -81 77q-30 34 -28 68q1 3 -2.5 10t-1.5 12q5 15 5 35q-1 5 2.5 17t1.5 19q0 2 2.5 6t2.5 6t2 7t2 9.5t-4 8.5q-2 3 -1 8.5t7 9.5q11 8 20 34q12 37 29 68q5 8 10 19.5t9.5 23t9.5 20.5q1 2 11 18t13 26q1 4 4.5 3.5t6.5 1t3.5 2.5t3 5l2.5 4
q6 11 22 36t24 39q12 21 40 62t41 65q3 7 8.5 14t13 16t10.5 13q14 17 80 84q43 44 87 68l9 9q31 -12 75 -48q5 -4 10 -6t12 -4t11 -3q1 -1 3 -1t3.5 0.5t3 -0.5t2.5 -3q1 -4 7.5 -10.5t5.5 -11.5zM438 723q1 2 0.5 4.5t-1 3t-2.5 2t-3 2.5q-164 -180 -263 -403q9 -13 22 -5
q3 2 13 3q32 3 36 4q3 1 8 2t9 1t9 0.5t9 1.5q5 1 14 5.5t15 4.5q7 1 9 6t1 10t1 10q0 1 1.5 2t1.5 2q1 19 1 27q-1 6 4.5 14t4.5 13q0 7 1.5 14t5.5 15.5t5 12.5q2 7 10 23t10 25q2 6 6.5 15.5t7 18t2.5 16.5q9 18 42 104q2 5 5 11.5t5.5 11.5t5 11t4.5 12zM230 728
q-5 -4 -12.5 -14.5t-12.5 -15.5l-4 -1q-1 5 5.5 11.5t6.5 11.5q9 9 19 21.5t20.5 25.5t19.5 22q46 50 55 59q44 42 91 77q2 2 5 2h4q-8 -14 -19 -19q-4 -1 -6 -3q-10 -12 -42.5 -40.5t-47.5 -46.5q-7 -9 -18 -20t-21 -21.5t-17 -19.5q-16 -19 -26 -29zM201 697
q1 -11 -14 -19q0 11 14 19zM187 678q1 -12 -9 -14q-1 11 9 14zM173 659q0 -1 0.5 -3.5t-0.5 -4t-5 -1.5q1 0 0.5 3t0.5 4.5t4 1.5zM164 645v-3q0 -5 -3 -6h-2v3t1 4.5t4 1.5zM154 627q1 -4 -2 -5q-2 5 -2 6q0 2 2 3q3 0 2 -2v-2zM159 636q0 -5 -5 -5q0 5 5 5zM168 650
q1 -5 -4 -5q0 5 4 5zM178 664q0 -5 -5 -5q0 5 5 5z" />
    <glyph glyph-name="A" unicode="&#xc2;" horiz-adv-x="500" 
d="M605 859q0 -4 2.5 -9.5t2.5 -7.5q-4 -7 -6.5 -21.5t-5.5 -20.5q-7 -19 -18.5 -54t-15.5 -47q-1 -4 -4 -16.5t-7 -19.5q-2 -3 -4.5 -16t-8.5 -18q0 -11 -13 -46q-12 -32 -20 -58q-5 -14 -12.5 -41t-11 -38t-8.5 -26.5t-9.5 -30t-8.5 -26.5q-9 -29 -16 -59q-12 -48 -17 -64
q-8 -24 -11 -42q-1 -9 -5 -24.5t-6 -23.5q0 -2 -3.5 -17t-4.5 -24q0 -3 -3 -9.5t-2 -11.5v-6.5t-1.5 -6.5t-2.5 -6q-4 -29 5 -42q4 -5 4 -13t-1 -11.5t-4.5 -4.5t-11.5 -1q-11 -1 -36 11q-13 7 -43 36q-21 19 -22 50q-1 26 6 70q1 7 2.5 17t2 17.5t3 16.5t5.5 17q1 3 0 16
q-1 19 -23 21q-6 1 -15.5 -1.5t-13.5 -3.5q-2 0 -8 0.5t-10 -0.5t-8 -4q-10 1 -27 -2.5t-25 -2.5q-11 0 -17 -2t-10 -7.5t-8 -17.5q-8 -21 -8 -34q0 -3 -2 -8t-3 -9.5t-1 -8.5q2 -7 -3 -26t3 -29q1 -2 1 -7q-2 -36 36 -54q15 -7 17 -16t-0.5 -13t-9.5 -2q-11 3 -17 -1
q-16 -12 -35 2q-38 28 -81 77q-30 34 -28 68q1 3 -2.5 10t-1.5 12q5 15 5 35q-1 5 2.5 17t1.5 19q0 2 2.5 6t2.5 6t2 7t2 9.5t-4 8.5q-2 3 -1 8.5t7 9.5q11 8 20 34q12 37 29 68q5 8 10 19.5t9.5 23t9.5 20.5q1 2 11 18t13 26q1 4 4.5 3.5t6.5 1t3.5 2.5t3 5l2.5 4
q6 11 22 36t24 39q12 21 40 62t41 65q3 7 8.5 14t13 16t10.5 13q14 17 80 84q43 44 87 68l9 9q31 -12 75 -48q5 -4 10 -6t12 -4t11 -3q1 -1 3 -1t3.5 0.5t3 -0.5t2.5 -3q1 -4 7.5 -10.5t5.5 -11.5zM438 723q1 2 0.5 4.5t-1 3t-2.5 2t-3 2.5q-164 -180 -263 -403q9 -13 22 -5
q3 2 13 3q32 3 36 4q3 1 8 2t9 1t9 0.5t9 1.5q5 1 14 5.5t15 4.5q7 1 9 6t1 10t1 10q0 1 1.5 2t1.5 2q1 19 1 27q-1 6 4.5 14t4.5 13q0 7 1.5 14t5.5 15.5t5 12.5q2 7 10 23t10 25q2 6 6.5 15.5t7 18t2.5 16.5q9 18 42 104q2 5 5 11.5t5.5 11.5t5 11t4.5 12zM230 728
q-5 -4 -12.5 -14.5t-12.5 -15.5l-4 -1q-1 5 5.5 11.5t6.5 11.5q9 9 19 21.5t20.5 25.5t19.5 22q46 50 55 59q44 42 91 77q2 2 5 2h4q-8 -14 -19 -19q-4 -1 -6 -3q-10 -12 -42.5 -40.5t-47.5 -46.5q-7 -9 -18 -20t-21 -21.5t-17 -19.5q-16 -19 -26 -29zM201 697
q1 -11 -14 -19q0 11 14 19zM187 678q1 -12 -9 -14q-1 11 9 14zM173 659q0 -1 0.5 -3.5t-0.5 -4t-5 -1.5q1 0 0.5 3t0.5 4.5t4 1.5zM164 645v-3q0 -5 -3 -6h-2v3t1 4.5t4 1.5zM154 627q1 -4 -2 -5q-2 5 -2 6q0 2 2 3q3 0 2 -2v-2zM159 636q0 -5 -5 -5q0 5 5 5zM168 650
q1 -5 -4 -5q0 5 4 5zM178 664q0 -5 -5 -5q0 5 5 5z" />
    <glyph glyph-name="A" unicode="&#xc1;" horiz-adv-x="500" 
d="M605 859q0 -4 2.5 -9.5t2.5 -7.5q-4 -7 -6.5 -21.5t-5.5 -20.5q-7 -19 -18.5 -54t-15.5 -47q-1 -4 -4 -16.5t-7 -19.5q-2 -3 -4.5 -16t-8.5 -18q0 -11 -13 -46q-12 -32 -20 -58q-5 -14 -12.5 -41t-11 -38t-8.5 -26.5t-9.5 -30t-8.5 -26.5q-9 -29 -16 -59q-12 -48 -17 -64
q-8 -24 -11 -42q-1 -9 -5 -24.5t-6 -23.5q0 -2 -3.5 -17t-4.5 -24q0 -3 -3 -9.5t-2 -11.5v-6.5t-1.5 -6.5t-2.5 -6q-4 -29 5 -42q4 -5 4 -13t-1 -11.5t-4.5 -4.5t-11.5 -1q-11 -1 -36 11q-13 7 -43 36q-21 19 -22 50q-1 26 6 70q1 7 2.5 17t2 17.5t3 16.5t5.5 17q1 3 0 16
q-1 19 -23 21q-6 1 -15.5 -1.5t-13.5 -3.5q-2 0 -8 0.5t-10 -0.5t-8 -4q-10 1 -27 -2.5t-25 -2.5q-11 0 -17 -2t-10 -7.5t-8 -17.5q-8 -21 -8 -34q0 -3 -2 -8t-3 -9.5t-1 -8.5q2 -7 -3 -26t3 -29q1 -2 1 -7q-2 -36 36 -54q15 -7 17 -16t-0.5 -13t-9.5 -2q-11 3 -17 -1
q-16 -12 -35 2q-38 28 -81 77q-30 34 -28 68q1 3 -2.5 10t-1.5 12q5 15 5 35q-1 5 2.5 17t1.5 19q0 2 2.5 6t2.5 6t2 7t2 9.5t-4 8.5q-2 3 -1 8.5t7 9.5q11 8 20 34q12 37 29 68q5 8 10 19.5t9.5 23t9.5 20.5q1 2 11 18t13 26q1 4 4.5 3.5t6.5 1t3.5 2.5t3 5l2.5 4
q6 11 22 36t24 39q12 21 40 62t41 65q3 7 8.5 14t13 16t10.5 13q14 17 80 84q43 44 87 68l9 9q31 -12 75 -48q5 -4 10 -6t12 -4t11 -3q1 -1 3 -1t3.5 0.5t3 -0.5t2.5 -3q1 -4 7.5 -10.5t5.5 -11.5zM438 723q1 2 0.5 4.5t-1 3t-2.5 2t-3 2.5q-164 -180 -263 -403q9 -13 22 -5
q3 2 13 3q32 3 36 4q3 1 8 2t9 1t9 0.5t9 1.5q5 1 14 5.5t15 4.5q7 1 9 6t1 10t1 10q0 1 1.5 2t1.5 2q1 19 1 27q-1 6 4.5 14t4.5 13q0 7 1.5 14t5.5 15.5t5 12.5q2 7 10 23t10 25q2 6 6.5 15.5t7 18t2.5 16.5q9 18 42 104q2 5 5 11.5t5.5 11.5t5 11t4.5 12zM230 728
q-5 -4 -12.5 -14.5t-12.5 -15.5l-4 -1q-1 5 5.5 11.5t6.5 11.5q9 9 19 21.5t20.5 25.5t19.5 22q46 50 55 59q44 42 91 77q2 2 5 2h4q-8 -14 -19 -19q-4 -1 -6 -3q-10 -12 -42.5 -40.5t-47.5 -46.5q-7 -9 -18 -20t-21 -21.5t-17 -19.5q-16 -19 -26 -29zM201 697
q1 -11 -14 -19q0 11 14 19zM187 678q1 -12 -9 -14q-1 11 9 14zM173 659q0 -1 0.5 -3.5t-0.5 -4t-5 -1.5q1 0 0.5 3t0.5 4.5t4 1.5zM164 645v-3q0 -5 -3 -6h-2v3t1 4.5t4 1.5zM154 627q1 -4 -2 -5q-2 5 -2 6q0 2 2 3q3 0 2 -2v-2zM159 636q0 -5 -5 -5q0 5 5 5zM168 650
q1 -5 -4 -5q0 5 4 5zM178 664q0 -5 -5 -5q0 5 5 5z" />
    <glyph glyph-name="A" unicode="&#xc0;" horiz-adv-x="500" 
d="M605 859q0 -4 2.5 -9.5t2.5 -7.5q-4 -7 -6.5 -21.5t-5.5 -20.5q-7 -19 -18.5 -54t-15.5 -47q-1 -4 -4 -16.5t-7 -19.5q-2 -3 -4.5 -16t-8.5 -18q0 -11 -13 -46q-12 -32 -20 -58q-5 -14 -12.5 -41t-11 -38t-8.5 -26.5t-9.5 -30t-8.5 -26.5q-9 -29 -16 -59q-12 -48 -17 -64
q-8 -24 -11 -42q-1 -9 -5 -24.5t-6 -23.5q0 -2 -3.5 -17t-4.5 -24q0 -3 -3 -9.5t-2 -11.5v-6.5t-1.5 -6.5t-2.5 -6q-4 -29 5 -42q4 -5 4 -13t-1 -11.5t-4.5 -4.5t-11.5 -1q-11 -1 -36 11q-13 7 -43 36q-21 19 -22 50q-1 26 6 70q1 7 2.5 17t2 17.5t3 16.5t5.5 17q1 3 0 16
q-1 19 -23 21q-6 1 -15.5 -1.5t-13.5 -3.5q-2 0 -8 0.5t-10 -0.5t-8 -4q-10 1 -27 -2.5t-25 -2.5q-11 0 -17 -2t-10 -7.5t-8 -17.5q-8 -21 -8 -34q0 -3 -2 -8t-3 -9.5t-1 -8.5q2 -7 -3 -26t3 -29q1 -2 1 -7q-2 -36 36 -54q15 -7 17 -16t-0.5 -13t-9.5 -2q-11 3 -17 -1
q-16 -12 -35 2q-38 28 -81 77q-30 34 -28 68q1 3 -2.5 10t-1.5 12q5 15 5 35q-1 5 2.5 17t1.5 19q0 2 2.5 6t2.5 6t2 7t2 9.5t-4 8.5q-2 3 -1 8.5t7 9.5q11 8 20 34q12 37 29 68q5 8 10 19.5t9.5 23t9.5 20.5q1 2 11 18t13 26q1 4 4.5 3.5t6.5 1t3.5 2.5t3 5l2.5 4
q6 11 22 36t24 39q12 21 40 62t41 65q3 7 8.5 14t13 16t10.5 13q14 17 80 84q43 44 87 68l9 9q31 -12 75 -48q5 -4 10 -6t12 -4t11 -3q1 -1 3 -1t3.5 0.5t3 -0.5t2.5 -3q1 -4 7.5 -10.5t5.5 -11.5zM438 723q1 2 0.5 4.5t-1 3t-2.5 2t-3 2.5q-164 -180 -263 -403q9 -13 22 -5
q3 2 13 3q32 3 36 4q3 1 8 2t9 1t9 0.5t9 1.5q5 1 14 5.5t15 4.5q7 1 9 6t1 10t1 10q0 1 1.5 2t1.5 2q1 19 1 27q-1 6 4.5 14t4.5 13q0 7 1.5 14t5.5 15.5t5 12.5q2 7 10 23t10 25q2 6 6.5 15.5t7 18t2.5 16.5q9 18 42 104q2 5 5 11.5t5.5 11.5t5 11t4.5 12zM230 728
q-5 -4 -12.5 -14.5t-12.5 -15.5l-4 -1q-1 5 5.5 11.5t6.5 11.5q9 9 19 21.5t20.5 25.5t19.5 22q46 50 55 59q44 42 91 77q2 2 5 2h4q-8 -14 -19 -19q-4 -1 -6 -3q-10 -12 -42.5 -40.5t-47.5 -46.5q-7 -9 -18 -20t-21 -21.5t-17 -19.5q-16 -19 -26 -29zM201 697
q1 -11 -14 -19q0 11 14 19zM187 678q1 -12 -9 -14q-1 11 9 14zM173 659q0 -1 0.5 -3.5t-0.5 -4t-5 -1.5q1 0 0.5 3t0.5 4.5t4 1.5zM164 645v-3q0 -5 -3 -6h-2v3t1 4.5t4 1.5zM154 627q1 -4 -2 -5q-2 5 -2 6q0 2 2 3q3 0 2 -2v-2zM159 636q0 -5 -5 -5q0 5 5 5zM168 650
q1 -5 -4 -5q0 5 4 5zM178 664q0 -5 -5 -5q0 5 5 5z" />
    <glyph glyph-name="B" unicode="B" horiz-adv-x="591" 
d="M588 713q0 -3 0.5 -7.5t0.5 -7.5t-1 -7t-4 -6q0 -7 -1.5 -14.5t-4 -13t-6 -13t-4.5 -12.5q-3 -8 -13.5 -22.5t-12.5 -18.5q-6 -10 -24 -27q-6 -7 -58 -59q2 -3 7.5 -9.5t9 -11.5t4.5 -11t10 -10q5 -2 10 -5.5t9.5 -9t7 -9l7.5 -10.5t7 -9q17 -25 31 -67q1 -2 2 -7
q0 -2 -0.5 -16.5t4.5 -16.5q1 -2 -2 -9t-3 -10q2 -15 -4 -24q-1 -2 -1 -7.5t-1 -8.5q-23 -51 -28 -59q-30 -47 -58 -72q-18 -16 -59 -47q-40 -31 -87 -53q-20 -9 -56 -18q-21 -5 -69 -3q-21 1 -43 14q-6 4 -20.5 8.5t-21.5 9t-11 -0.5q-3 -5 -8.5 -7t-10.5 -1t-10 -1
q-5 0 -11.5 2.5t-10.5 2.5q-5 -1 -18 5q-22 10 -34 32q-16 30 -7 49q1 3 1 4q-2 9 2 27t3 27q-1 6 0 12.5t3 13.5t3 12q1 6 4 19t4 20q1 9 10 45q2 5 6 24t7 29q7 24 23 87q12 49 34 113q12 33 21 54q5 12 12 27.5t12.5 27.5t12 27t11.5 28q7 18 18.5 52.5t15.5 45.5t24 77
q7 22 9 34q1 6 4.5 7.5t11.5 -0.5q14 -3 19 -10q2 -3 10 -6q38 -15 56 -61q44 26 72 35q7 3 13 3h17.5t17.5 1q5 0 15 -3.5t16 -2.5t16 -7q22 -16 32.5 -27.5t28.5 -40.5q15 -24 18 -30t5.5 -17.5t3.5 -15.5q3 -8 1 -33zM345 831q-14 -11 -14 -21q4 5 9 7.5t11.5 5.5t10 4.5
t15.5 12.5q1 2 -1 5q0 2 -2.5 2.5t-2.5 -0.5q-5 -5 -14 -9.5t-12 -6.5zM239 571q0 -2 -3 -8t-4 -10.5t-1 -9.5q8 -2 13 -0.5t12 3.5t12 0q6 6 17.5 5.5t17.5 2.5q3 2 11.5 4t12.5 6q2 1 18 13.5t24 19.5l24 24l19 19q39 39 60 88q15 35 13 61q-1 11 -12 11h-14
q-47 -19 -57 -25q-59 -36 -71 -45q-5 -3 -11 -9.5t-12 -11.5t-12 -7q-3 -1 -4 -3q-1 -5 -6.5 -13t-7.5 -12t-4.5 -11t-5 -13.5t-4.5 -11.5q-4 -11 -25 -67zM391 574q-3 -1 -4 -1q-2 -2 1 -3q1 0 1.5 1zM233 461q-21 2 -37 -20l7.5 2.5t7 2.5t6 3t6 3.5t5 4t5.5 4.5zM106 466
q7 1 13 10q0 1 1 2q10 17 22 17q3 0 5 3q2 1 3 2q6 5 9.5 12t6 16.5t4.5 14.5q1 3 0 9.5t1 8.5q1 2 5.5 6t5.5 8q4 10 12.5 31.5t13.5 32.5q6 19 -7 34l-7 8q0 5 -1.5 8.5t-4 6l-6.5 6.5t-6 8q-27 -67 -29 -72q-4 -9 -12 -32t-13 -35q-4 -8 -7 -17t-5 -16.5t-5 -17.5t-5 -17
q-3 -8 2 -8q7 -1 7.5 -3.5t-3.5 -6.5q-5 -9 0 -19zM239 168q47 31 82 63q61 55 85 93q14 22 32 72q1 4 -2 9t-7 5q-6 -1 -14 0.5t-14.5 2.5t-13.5 2t-14.5 0t-14.5 -5q-8 1 -17.5 -0.5t-15 -3t-17 -5.5t-14.5 -5q-62 -19 -113 -52q-17 -11 -22 -18t-7 -26q-1 -4 -3.5 -12
t-2.5 -9q-9 -33 -14 -50q-2 -7 -5.5 -24.5t-7.5 -26.5q-1 -5 -2 -14.5t-3 -14.5q-4 -15 13 -16h9q4 -2 11.5 1t10.5 3q4 0 24 5q30 8 57 26zM312 139q77 49 130 119l-7 7q-9 -16 -39 -44q-43 -41 -43 -42q-4 -3 -11.5 -8.5t-12 -9t-10 -9.5t-7.5 -13zM463 644q3 7 9 16.5
t11 18.5t7 19q-5 -4 -8.5 -8t-7 -10.5t-4.5 -8t-20 -27.5q-3 -4 -10.5 -12.5t-9.5 -11.5t-8 -7.5t-9 -9t-3 -10.5q-5 0 -5 -4q-5 0 -5 -5q-5 0 -4 -5q-5 0 -5 -5q5 0 5 5q4 0 4 5q5 0 5 5q4 0 4 2q14 7 30 27.5t24 25.5z" />
    <glyph glyph-name="C" unicode="C" horiz-adv-x="521" 
d="M255 838q1 1 2 1q0 -1 -1 -2zM606 804q5 -8 -2 -15q-15 -17 -53 -79q-12 -19 -30.5 -57t-25.5 -51q-2 -3 -4 -10.5t-5 -11.5q-2 -2 -2.5 -5.5t-1.5 -7t-2.5 -5.5t-19.5 -20q-2 4 -9.5 5t-10.5 4q-3 5 -11 14t-11 15q-7 11 0 28q4 10 11 29t10 26q1 4 5 12l6 12q3 8 8 19
q9 20 -5 30q-5 4 -5 12v33q-5 -1 -7 -4t-2.5 -9.5t-1.5 -7.5q-14 20 -12 40q-11 0 -25 -12q-35 -31 -83 -104q-32 -48 -69 -129q-20 -45 -40 -111q-22 -73 -28 -105q-1 -5 -3.5 -12t-4 -13t-1.5 -11t-0.5 -10t-1.5 -9.5t-2 -9.5t-2 -9q-1 -8 -1.5 -26.5t-2.5 -28.5
q-6 -26 -4 -45q5 -36 9 -45q2 -5 8 -11q3 0 6.5 1t6.5 3t5 4t5.5 4.5t4.5 3.5q52 41 68 58l83 83q35 34 60 69q3 4 10.5 11t9.5 9q3 3 7 3h7q3 -6 -5 -13q-4 -3 -3 -10q-4 -1 -4 -2q-3 -1 1 -2q1 -1 3 3v1v-1v0q1 0 9 8q4 4 22 13q11 6 19 -1q1 -2 5.5 2t6.5 -2q8 -13 8 -15
q1 -30 -11 -47q-32 -43 -67 -85q-23 -29 -49.5 -57t-65.5 -67.5t-53 -52.5q-5 -6 -16 -13.5t-12 -9.5q-9 -7 -19 -6q-7 1 -40 0q-3 0 -12 4q-25 11 -41 27q-6 7 -30 30q-17 17 -25 19q-1 0 -11 8q-9 8 -31 43q-16 25 -19 46q0 5 -2.5 15t-3 17.5t-0.5 15.5q2 20 0 54
q0 4 1 8.5t2.5 9.5t1.5 8q1 1 0.5 13t3.5 14q3 2 1 18q0 3 2.5 8.5t2.5 8.5q1 7 15 69l2 2.5t2 4.5q-2 8 -0.5 15t5.5 17t4 14q2 5 4.5 12t4.5 12.5t4.5 12.5t3.5 12q13 37 17 47q3 5 10 22t12 26q3 5 6 12t5.5 14.5t5.5 12.5q48 88 79 127q28 35 55 64q30 32 89 53q2 0 5 2
t6 3t6 0q32 -9 39 -12q19 -8 27 -16q6 -7 22 -13q22 -9 41 -27q2 -2 6.5 -5.5t7.5 -6t6 -6.5t5 -8q1 1 2 3.5t1.5 4t2.5 2.5t5 -2q2 -2 12 -3q9 -2 10.5 -4.5t-1.5 -11.5q0 -1 -1 -13q6 1 25.5 0t25.5 5q8 5 13 -5zM258 838l2 2l-3 -1q1 2 1 3l-2 -2l-1 -2q-4 0 -4 -5
q-5 0 -5 -5q-15 -8 -14 -19q-5 1 -5 -4q-15 -8 -13 -18q-6 -3 -10.5 -8t-8.5 -12t-7 -10q-16 -20 -10 -33q4 8 18 28.5t17 33.5q15 8 14 19q5 -1 5 4q15 8 14 19q5 0 5 5q3 0 5 4q1 0 2 1zM484 707l4 4t3 4t-3 4q-2 2 -4 1t-3 -2t-2.5 -3t-3.5 -3q-3 -3 -3 -5
q-1 -6 -4 -12.5t-7 -13.5t-5 -12q-1 -2 -4 -9t-3 -10t1 -13q1 4 4 7.5t4 6.5q2 9 6 18t11 21.5t9 16.5zM524 767q18 10 12 32q-10 1 -12 -1v-31z" />
    <glyph glyph-name="C" unicode="&#xc7;" horiz-adv-x="521" 
d="M255 838q1 1 2 1q0 -1 -1 -2zM606 804q5 -8 -2 -15q-15 -17 -53 -79q-12 -19 -30.5 -57t-25.5 -51q-2 -3 -4 -10.5t-5 -11.5q-2 -2 -2.5 -5.5t-1.5 -7t-2.5 -5.5t-19.5 -20q-2 4 -9.5 5t-10.5 4q-3 5 -11 14t-11 15q-7 11 0 28q4 10 11 29t10 26q1 4 5 12l6 12q3 8 8 19
q9 20 -5 30q-5 4 -5 12v33q-5 -1 -7 -4t-2.5 -9.5t-1.5 -7.5q-14 20 -12 40q-11 0 -25 -12q-35 -31 -83 -104q-32 -48 -69 -129q-20 -45 -40 -111q-22 -73 -28 -105q-1 -5 -3.5 -12t-4 -13t-1.5 -11t-0.5 -10t-1.5 -9.5t-2 -9.5t-2 -9q-1 -8 -1.5 -26.5t-2.5 -28.5
q-6 -26 -4 -45q5 -36 9 -45q2 -5 8 -11q3 0 6.5 1t6.5 3t5 4t5.5 4.5t4.5 3.5q52 41 68 58l83 83q35 34 60 69q3 4 10.5 11t9.5 9q3 3 7 3h7q3 -6 -5 -13q-4 -3 -3 -10q-4 -1 -4 -2q-3 -1 1 -2q1 -1 3 3v1v-1v0q1 0 9 8q4 4 22 13q11 6 19 -1q1 -2 5.5 2t6.5 -2q8 -13 8 -15
q1 -30 -11 -47q-32 -43 -67 -85q-23 -29 -49.5 -57t-65.5 -67.5t-53 -52.5q-5 -6 -16 -13.5t-12 -9.5q-9 -7 -19 -6q-7 1 -40 0q-3 0 -12 4q-25 11 -41 27q-6 7 -30 30q-17 17 -25 19q-1 0 -11 8q-9 8 -31 43q-16 25 -19 46q0 5 -2.5 15t-3 17.5t-0.5 15.5q2 20 0 54
q0 4 1 8.5t2.5 9.5t1.5 8q1 1 0.5 13t3.5 14q3 2 1 18q0 3 2.5 8.5t2.5 8.5q1 7 15 69l2 2.5t2 4.5q-2 8 -0.5 15t5.5 17t4 14q2 5 4.5 12t4.5 12.5t4.5 12.5t3.5 12q13 37 17 47q3 5 10 22t12 26q3 5 6 12t5.5 14.5t5.5 12.5q48 88 79 127q28 35 55 64q30 32 89 53q2 0 5 2
t6 3t6 0q32 -9 39 -12q19 -8 27 -16q6 -7 22 -13q22 -9 41 -27q2 -2 6.5 -5.5t7.5 -6t6 -6.5t5 -8q1 1 2 3.5t1.5 4t2.5 2.5t5 -2q2 -2 12 -3q9 -2 10.5 -4.5t-1.5 -11.5q0 -1 -1 -13q6 1 25.5 0t25.5 5q8 5 13 -5zM258 838l2 2l-3 -1q1 2 1 3l-2 -2l-1 -2q-4 0 -4 -5
q-5 0 -5 -5q-15 -8 -14 -19q-5 1 -5 -4q-15 -8 -13 -18q-6 -3 -10.5 -8t-8.5 -12t-7 -10q-16 -20 -10 -33q4 8 18 28.5t17 33.5q15 8 14 19q5 -1 5 4q15 8 14 19q5 0 5 5q3 0 5 4q1 0 2 1zM484 707l4 4t3 4t-3 4q-2 2 -4 1t-3 -2t-2.5 -3t-3.5 -3q-3 -3 -3 -5
q-1 -6 -4 -12.5t-7 -13.5t-5 -12q-1 -2 -4 -9t-3 -10t1 -13q1 4 4 7.5t4 6.5q2 9 6 18t11 21.5t9 16.5zM524 767q18 10 12 32q-10 1 -12 -1v-31z" />
    <glyph glyph-name="D" unicode="D" horiz-adv-x="682" 
d="M735 601q0 -3 -3 -9t-2 -10q0 -3 -1 -6.5l-2 -7t-1 -5.5q-1 -20 -11 -46q-23 -62 -40 -86q-6 -8 -13.5 -25t-11.5 -23q-36 -59 -58 -87q-20 -25 -46.5 -54t-41.5 -44t-53 -52t-46 -45q-36 -35 -90 -65q-43 -23 -63 -28q-1 0 -3 -2t-3 -1q-9 1 -25.5 -2.5t-21.5 -3.5
q-20 0 -37 8q-12 5 -17 1q-11 -7 -20 -2q-2 1 -9.5 4t-12 6.5t-7.5 8.5q-9 21 -31 21q-9 1 -14 11q-2 3 -6.5 8.5t-5.5 7.5q-17 28 -37 76q0 4 -1 29.5t4 29.5q3 5 1 12q-1 3 -0.5 8t2 8.5t2.5 8t1 8.5q1 4 2 9t3 11t3 10q15 61 15.5 63t1.5 6.5t2 7t3 5.5t5 5t3.5 8t2.5 9
q3 4 7 15t7 16q4 6 7.5 17t5.5 15q3 6 7 17.5t5 15.5q10 22 14 29q5 7 9 16t7.5 19.5t6.5 16.5q11 25 23 58q5 12 11.5 28t12.5 31.5t10 27.5q2 6 5 12.5t6.5 13.5t5.5 12q12 29 30 65q4 8 4 29q0 14 11 19q21 10 18 41q0 2 -6 6q-7 4 -7.5 7t2.5 12q0 2 0.5 4t0.5 3
q3 9 6.5 10t10.5 -4q8 -7 14 -3q5 3 9 -1q4 -5 0 -10q0 -1 -1 -2t-1.5 -3t-0.5 -3l-5 -6q1 -1 3 -4t4 -4t5 -1q17 0 21 -5h2.5h2.5q4 4 9 4.5t8.5 -0.5t9 -3.5t7.5 -3.5q15 -5 23 -1q7 3 15 5t15 3t15.5 2t14.5 2q8 2 17.5 2.5t16 0.5t18 -1t17 -1t16.5 -4.5t17 -4.5
q7 -5 26.5 -16.5t28.5 -20.5q11 -10 20 -14q56 -26 92 -95q10 -20 19 -62q4 -17 4 -44t1 -44zM591 592q15 44 10 74q-18 -57 -20 -61q-1 -1 -4.5 -10.5t-5 -13t-5 -10t-7 -11t-8.5 -8.5q20 50 21 54q2 5 7 18.5t7.5 23t2.5 19.5q4 5 4 14.5t1 14.5q4 8 4.5 17.5t-0.5 21
t0 18.5q0 8 -8 22q-1 3 -3.5 4.5t-7.5 3t-6 1.5q-4 2 -10.5 2.5t-12.5 1t-10 2.5q-18 7 -31 3q-6 -3 -14 -3.5t-14.5 0t-14.5 -0.5q-1 0 -9.5 0.5t-8.5 -0.5q-10 -6 -31 -4q-6 0 -16 -2.5t-15 -2.5q-9 1 -24 -2.5t-19 -3.5q-7 -1 -11 -2t-8.5 -6t-3.5 -13q-3 -5 -5.5 -11
t-4.5 -13.5t-4 -11.5q-15 -38 -15 -39q-4 -8 -9.5 -23.5t-6.5 -18.5q-12 -29 -14 -44q-2 -8 -8 -23l-8 -20q-14 -46 -20 -62q-11 -25 -11 -35q-1 -2 -7 -21t-8 -22q-1 -2 -0.5 -11t-4.5 -11q0 -9 -7 -26.5t-7 -28.5q-6 -8 -9 -26t-5 -22q-7 -22 -10 -38q-1 -9 -4.5 -24
t-5.5 -22q-6 -31 -8 -47q-1 -8 -0.5 -14t0 -13.5t-4.5 -13.5q-1 -3 0 -14q1 -5 5.5 -7t9.5 1q1 0 2.5 0.5t3 1.5t2.5 1q13 11 40 27.5t36 22.5q44 30 80 65q83 81 116 118q11 13 31 37.5t29 34.5q23 28 53 83q36 66 50 109z" />
    <glyph glyph-name="E" unicode="E" horiz-adv-x="431" 
d="M498 854q-2 -3 -1.5 -6t1 -4t3 -3t2.5 -3q-5 -8 -15 -7q-69 1 -87 -1q-58 -4 -76 -9q-16 -4 -24 -21q-20 -37 -31 -76q-5 -16 -19.5 -55.5t-20.5 -61.5q-4 -17 -14 -48t-14 -47q-18 -67 -19 -69q-3 -12 -8 -34q-1 -4 -5.5 -14.5t-4.5 -17.5q0 -5 -5.5 -12.5t-6.5 -12.5
q-2 -12 -2 -13q5 -2 12 -2.5t11.5 1t11.5 3.5t10 2q6 2 20 5t21 4q24 5 38 10q8 2 16.5 2.5t19.5 0.5t16 1q7 -10 -2.5 -9.5t-21 -1.5t-19.5 -3.5t-21 -5t-19 -5.5q-38 -9 -70 -18q-5 -1 -2 -4h-9t-7 -3q8 -5 16 3q8 -1 16 0.5t20.5 5.5t15.5 5q5 1 24.5 4.5t29.5 7.5
q9 4 21.5 4.5t22.5 0t22 0.5q5 0 18 -7q13 -8 10 -17q-4 -10 -16 -14q-8 -3 -49 -13q-10 -3 -29.5 -8t-25.5 -7q-12 -3 -38.5 -11t-40.5 -12q-3 -1 -9 -3.5t-10 -2.5q-16 -3 -19 -17q-1 -5 -3 -8q-1 -1 -5 -5.5t-5.5 -6.5t-3 -6.5t-0.5 -8.5q0 -4 -3 -13.5t-1 -15.5
q1 -6 -2.5 -16t-2.5 -15v-15v-15q0 -11 3.5 -14t14.5 -3q5 0 13 2.5t11 3.5q32 4 36 4q4 5 16.5 4t17.5 5h1.5h3.5h4q5 1 9.5 0.5t9.5 0t10 3.5q3 2 9.5 2t10.5 -2q8 -5 29 -4q8 1 17.5 -1t20 -4.5t17.5 -3.5q2 -1 3.5 -2.5t1.5 -3.5t1 -3.5t3 -2.5q-3 -4 -7 -6t-11.5 -4.5
t-8.5 -2.5q-26 -10 -68 -18q-4 -1 -57 -14q-3 -5 -11 -5t-12 -2q-12 -8 -23 -7q-2 0 -3 -1t1 -3q-2 -1 -9 -0.5t-7 -2.5q8 -6 16 3q8 -1 17 1t19.5 5.5t17.5 4.5q12 2 36 8.5t37 8.5q28 5 67 10q-1 -9 -10 -11q-67 -13 -90 -19q-8 -2 -17.5 -4.5t-18.5 -5.5t-16.5 -5t-20 -6
t-21 -6.5t-20 -4.5t-21.5 -1q-16 2 -32 8q-42 18 -72 48q-22 23 -22 53q0 12 3.5 47t1.5 54q-2 21 -4 24q-1 8 -1 11t4 11.5t5 10.5q-2 2 -8.5 1.5t-9.5 2.5q0 10 14 16q4 2 9 7l6 6q5 3 4 8q-1 6 0.5 13t4 15.5t3.5 12.5q6 40 7 42q1 3 8 35t15 47q-1 11 6 29t8 24
q2 11 8.5 29.5t8.5 24.5q9 33 16 52q4 8 14 40.5t18 49.5q1 7 4 15t6.5 16t5.5 15q4 22 15 45q2 3 2 14t5 16q-2 17 15 47q2 6 8 21.5t12 23.5q15 5 29 -5q5 -3 15 -4q38 0 51 1q19 0 55 -9q19 -4 38 -5q4 -1 15.5 -4t17.5 -2q5 1 13 -7q-11 -3 -36 1.5t-35 -1.5
q8 1 23.5 -3t22.5 -3q4 0 5 -1q15 -5 43 -9q5 -1 9 -7v-3q2 -3 4 -4q8 -1 10.5 -8t-1.5 -11zM337 905q4 3 14 2.5t16 1.5q-6 0 -15 0.5t-15.5 1t-15 -1t-14.5 -6.5q3 0 9 -1t11 -0.5t10 3.5z" />
    <glyph glyph-name="E" unicode="&#xcb;" horiz-adv-x="431" 
d="M498 854q-2 -3 -1.5 -6t1 -4t3 -3t2.5 -3q-5 -8 -15 -7q-69 1 -87 -1q-58 -4 -76 -9q-16 -4 -24 -21q-20 -37 -31 -76q-5 -16 -19.5 -55.5t-20.5 -61.5q-4 -17 -14 -48t-14 -47q-18 -67 -19 -69q-3 -12 -8 -34q-1 -4 -5.5 -14.5t-4.5 -17.5q0 -5 -5.5 -12.5t-6.5 -12.5
q-2 -12 -2 -13q5 -2 12 -2.5t11.5 1t11.5 3.5t10 2q6 2 20 5t21 4q24 5 38 10q8 2 16.5 2.5t19.5 0.5t16 1q7 -10 -2.5 -9.5t-21 -1.5t-19.5 -3.5t-21 -5t-19 -5.5q-38 -9 -70 -18q-5 -1 -2 -4h-9t-7 -3q8 -5 16 3q8 -1 16 0.5t20.5 5.5t15.5 5q5 1 24.5 4.5t29.5 7.5
q9 4 21.5 4.5t22.5 0t22 0.5q5 0 18 -7q13 -8 10 -17q-4 -10 -16 -14q-8 -3 -49 -13q-10 -3 -29.5 -8t-25.5 -7q-12 -3 -38.5 -11t-40.5 -12q-3 -1 -9 -3.5t-10 -2.5q-16 -3 -19 -17q-1 -5 -3 -8q-1 -1 -5 -5.5t-5.5 -6.5t-3 -6.5t-0.5 -8.5q0 -4 -3 -13.5t-1 -15.5
q1 -6 -2.5 -16t-2.5 -15v-15v-15q0 -11 3.5 -14t14.5 -3q5 0 13 2.5t11 3.5q32 4 36 4q4 5 16.5 4t17.5 5h1.5h3.5h4q5 1 9.5 0.5t9.5 0t10 3.5q3 2 9.5 2t10.5 -2q8 -5 29 -4q8 1 17.5 -1t20 -4.5t17.5 -3.5q2 -1 3.5 -2.5t1.5 -3.5t1 -3.5t3 -2.5q-3 -4 -7 -6t-11.5 -4.5
t-8.5 -2.5q-26 -10 -68 -18q-4 -1 -57 -14q-3 -5 -11 -5t-12 -2q-12 -8 -23 -7q-2 0 -3 -1t1 -3q-2 -1 -9 -0.5t-7 -2.5q8 -6 16 3q8 -1 17 1t19.5 5.5t17.5 4.5q12 2 36 8.5t37 8.5q28 5 67 10q-1 -9 -10 -11q-67 -13 -90 -19q-8 -2 -17.5 -4.5t-18.5 -5.5t-16.5 -5t-20 -6
t-21 -6.5t-20 -4.5t-21.5 -1q-16 2 -32 8q-42 18 -72 48q-22 23 -22 53q0 12 3.5 47t1.5 54q-2 21 -4 24q-1 8 -1 11t4 11.5t5 10.5q-2 2 -8.5 1.5t-9.5 2.5q0 10 14 16q4 2 9 7l6 6q5 3 4 8q-1 6 0.5 13t4 15.5t3.5 12.5q6 40 7 42q1 3 8 35t15 47q-1 11 6 29t8 24
q2 11 8.5 29.5t8.5 24.5q9 33 16 52q4 8 14 40.5t18 49.5q1 7 4 15t6.5 16t5.5 15q4 22 15 45q2 3 2 14t5 16q-2 17 15 47q2 6 8 21.5t12 23.5q15 5 29 -5q5 -3 15 -4q38 0 51 1q19 0 55 -9q19 -4 38 -5q4 -1 15.5 -4t17.5 -2q5 1 13 -7q-11 -3 -36 1.5t-35 -1.5
q8 1 23.5 -3t22.5 -3q4 0 5 -1q15 -5 43 -9q5 -1 9 -7v-3q2 -3 4 -4q8 -1 10.5 -8t-1.5 -11zM337 905q4 3 14 2.5t16 1.5q-6 0 -15 0.5t-15.5 1t-15 -1t-14.5 -6.5q3 0 9 -1t11 -0.5t10 3.5z" />
    <glyph glyph-name="E" unicode="&#xca;" horiz-adv-x="431" 
d="M498 854q-2 -3 -1.5 -6t1 -4t3 -3t2.5 -3q-5 -8 -15 -7q-69 1 -87 -1q-58 -4 -76 -9q-16 -4 -24 -21q-20 -37 -31 -76q-5 -16 -19.5 -55.5t-20.5 -61.5q-4 -17 -14 -48t-14 -47q-18 -67 -19 -69q-3 -12 -8 -34q-1 -4 -5.5 -14.5t-4.5 -17.5q0 -5 -5.5 -12.5t-6.5 -12.5
q-2 -12 -2 -13q5 -2 12 -2.5t11.5 1t11.5 3.5t10 2q6 2 20 5t21 4q24 5 38 10q8 2 16.5 2.5t19.5 0.5t16 1q7 -10 -2.5 -9.5t-21 -1.5t-19.5 -3.5t-21 -5t-19 -5.5q-38 -9 -70 -18q-5 -1 -2 -4h-9t-7 -3q8 -5 16 3q8 -1 16 0.5t20.5 5.5t15.5 5q5 1 24.5 4.5t29.5 7.5
q9 4 21.5 4.5t22.5 0t22 0.5q5 0 18 -7q13 -8 10 -17q-4 -10 -16 -14q-8 -3 -49 -13q-10 -3 -29.5 -8t-25.5 -7q-12 -3 -38.5 -11t-40.5 -12q-3 -1 -9 -3.5t-10 -2.5q-16 -3 -19 -17q-1 -5 -3 -8q-1 -1 -5 -5.5t-5.5 -6.5t-3 -6.5t-0.5 -8.5q0 -4 -3 -13.5t-1 -15.5
q1 -6 -2.5 -16t-2.5 -15v-15v-15q0 -11 3.5 -14t14.5 -3q5 0 13 2.5t11 3.5q32 4 36 4q4 5 16.5 4t17.5 5h1.5h3.5h4q5 1 9.5 0.5t9.5 0t10 3.5q3 2 9.5 2t10.5 -2q8 -5 29 -4q8 1 17.5 -1t20 -4.5t17.5 -3.5q2 -1 3.5 -2.5t1.5 -3.5t1 -3.5t3 -2.5q-3 -4 -7 -6t-11.5 -4.5
t-8.5 -2.5q-26 -10 -68 -18q-4 -1 -57 -14q-3 -5 -11 -5t-12 -2q-12 -8 -23 -7q-2 0 -3 -1t1 -3q-2 -1 -9 -0.5t-7 -2.5q8 -6 16 3q8 -1 17 1t19.5 5.5t17.5 4.5q12 2 36 8.5t37 8.5q28 5 67 10q-1 -9 -10 -11q-67 -13 -90 -19q-8 -2 -17.5 -4.5t-18.5 -5.5t-16.5 -5t-20 -6
t-21 -6.5t-20 -4.5t-21.5 -1q-16 2 -32 8q-42 18 -72 48q-22 23 -22 53q0 12 3.5 47t1.5 54q-2 21 -4 24q-1 8 -1 11t4 11.5t5 10.5q-2 2 -8.5 1.5t-9.5 2.5q0 10 14 16q4 2 9 7l6 6q5 3 4 8q-1 6 0.5 13t4 15.5t3.5 12.5q6 40 7 42q1 3 8 35t15 47q-1 11 6 29t8 24
q2 11 8.5 29.5t8.5 24.5q9 33 16 52q4 8 14 40.5t18 49.5q1 7 4 15t6.5 16t5.5 15q4 22 15 45q2 3 2 14t5 16q-2 17 15 47q2 6 8 21.5t12 23.5q15 5 29 -5q5 -3 15 -4q38 0 51 1q19 0 55 -9q19 -4 38 -5q4 -1 15.5 -4t17.5 -2q5 1 13 -7q-11 -3 -36 1.5t-35 -1.5
q8 1 23.5 -3t22.5 -3q4 0 5 -1q15 -5 43 -9q5 -1 9 -7v-3q2 -3 4 -4q8 -1 10.5 -8t-1.5 -11zM337 905q4 3 14 2.5t16 1.5q-6 0 -15 0.5t-15.5 1t-15 -1t-14.5 -6.5q3 0 9 -1t11 -0.5t10 3.5z" />
    <glyph glyph-name="E" unicode="&#xc9;" horiz-adv-x="431" 
d="M498 854q-2 -3 -1.5 -6t1 -4t3 -3t2.5 -3q-5 -8 -15 -7q-69 1 -87 -1q-58 -4 -76 -9q-16 -4 -24 -21q-20 -37 -31 -76q-5 -16 -19.5 -55.5t-20.5 -61.5q-4 -17 -14 -48t-14 -47q-18 -67 -19 -69q-3 -12 -8 -34q-1 -4 -5.5 -14.5t-4.5 -17.5q0 -5 -5.5 -12.5t-6.5 -12.5
q-2 -12 -2 -13q5 -2 12 -2.5t11.5 1t11.5 3.5t10 2q6 2 20 5t21 4q24 5 38 10q8 2 16.5 2.5t19.5 0.5t16 1q7 -10 -2.5 -9.5t-21 -1.5t-19.5 -3.5t-21 -5t-19 -5.5q-38 -9 -70 -18q-5 -1 -2 -4h-9t-7 -3q8 -5 16 3q8 -1 16 0.5t20.5 5.5t15.5 5q5 1 24.5 4.5t29.5 7.5
q9 4 21.5 4.5t22.5 0t22 0.5q5 0 18 -7q13 -8 10 -17q-4 -10 -16 -14q-8 -3 -49 -13q-10 -3 -29.5 -8t-25.5 -7q-12 -3 -38.5 -11t-40.5 -12q-3 -1 -9 -3.5t-10 -2.5q-16 -3 -19 -17q-1 -5 -3 -8q-1 -1 -5 -5.5t-5.5 -6.5t-3 -6.5t-0.5 -8.5q0 -4 -3 -13.5t-1 -15.5
q1 -6 -2.5 -16t-2.5 -15v-15v-15q0 -11 3.5 -14t14.5 -3q5 0 13 2.5t11 3.5q32 4 36 4q4 5 16.5 4t17.5 5h1.5h3.5h4q5 1 9.5 0.5t9.5 0t10 3.5q3 2 9.5 2t10.5 -2q8 -5 29 -4q8 1 17.5 -1t20 -4.5t17.5 -3.5q2 -1 3.5 -2.5t1.5 -3.5t1 -3.5t3 -2.5q-3 -4 -7 -6t-11.5 -4.5
t-8.5 -2.5q-26 -10 -68 -18q-4 -1 -57 -14q-3 -5 -11 -5t-12 -2q-12 -8 -23 -7q-2 0 -3 -1t1 -3q-2 -1 -9 -0.5t-7 -2.5q8 -6 16 3q8 -1 17 1t19.5 5.5t17.5 4.5q12 2 36 8.5t37 8.5q28 5 67 10q-1 -9 -10 -11q-67 -13 -90 -19q-8 -2 -17.5 -4.5t-18.5 -5.5t-16.5 -5t-20 -6
t-21 -6.5t-20 -4.5t-21.5 -1q-16 2 -32 8q-42 18 -72 48q-22 23 -22 53q0 12 3.5 47t1.5 54q-2 21 -4 24q-1 8 -1 11t4 11.5t5 10.5q-2 2 -8.5 1.5t-9.5 2.5q0 10 14 16q4 2 9 7l6 6q5 3 4 8q-1 6 0.5 13t4 15.5t3.5 12.5q6 40 7 42q1 3 8 35t15 47q-1 11 6 29t8 24
q2 11 8.5 29.5t8.5 24.5q9 33 16 52q4 8 14 40.5t18 49.5q1 7 4 15t6.5 16t5.5 15q4 22 15 45q2 3 2 14t5 16q-2 17 15 47q2 6 8 21.5t12 23.5q15 5 29 -5q5 -3 15 -4q38 0 51 1q19 0 55 -9q19 -4 38 -5q4 -1 15.5 -4t17.5 -2q5 1 13 -7q-11 -3 -36 1.5t-35 -1.5
q8 1 23.5 -3t22.5 -3q4 0 5 -1q15 -5 43 -9q5 -1 9 -7v-3q2 -3 4 -4q8 -1 10.5 -8t-1.5 -11zM337 905q4 3 14 2.5t16 1.5q-6 0 -15 0.5t-15.5 1t-15 -1t-14.5 -6.5q3 0 9 -1t11 -0.5t10 3.5z" />
    <glyph glyph-name="E" unicode="&#xc8;" horiz-adv-x="431" 
d="M498 854q-2 -3 -1.5 -6t1 -4t3 -3t2.5 -3q-5 -8 -15 -7q-69 1 -87 -1q-58 -4 -76 -9q-16 -4 -24 -21q-20 -37 -31 -76q-5 -16 -19.5 -55.5t-20.5 -61.5q-4 -17 -14 -48t-14 -47q-18 -67 -19 -69q-3 -12 -8 -34q-1 -4 -5.5 -14.5t-4.5 -17.5q0 -5 -5.5 -12.5t-6.5 -12.5
q-2 -12 -2 -13q5 -2 12 -2.5t11.5 1t11.5 3.5t10 2q6 2 20 5t21 4q24 5 38 10q8 2 16.5 2.5t19.5 0.5t16 1q7 -10 -2.5 -9.5t-21 -1.5t-19.5 -3.5t-21 -5t-19 -5.5q-38 -9 -70 -18q-5 -1 -2 -4h-9t-7 -3q8 -5 16 3q8 -1 16 0.5t20.5 5.5t15.5 5q5 1 24.5 4.5t29.5 7.5
q9 4 21.5 4.5t22.5 0t22 0.5q5 0 18 -7q13 -8 10 -17q-4 -10 -16 -14q-8 -3 -49 -13q-10 -3 -29.5 -8t-25.5 -7q-12 -3 -38.5 -11t-40.5 -12q-3 -1 -9 -3.5t-10 -2.5q-16 -3 -19 -17q-1 -5 -3 -8q-1 -1 -5 -5.5t-5.5 -6.5t-3 -6.5t-0.5 -8.5q0 -4 -3 -13.5t-1 -15.5
q1 -6 -2.5 -16t-2.5 -15v-15v-15q0 -11 3.5 -14t14.5 -3q5 0 13 2.5t11 3.5q32 4 36 4q4 5 16.5 4t17.5 5h1.5h3.5h4q5 1 9.5 0.5t9.5 0t10 3.5q3 2 9.5 2t10.5 -2q8 -5 29 -4q8 1 17.5 -1t20 -4.5t17.5 -3.5q2 -1 3.5 -2.5t1.5 -3.5t1 -3.5t3 -2.5q-3 -4 -7 -6t-11.5 -4.5
t-8.5 -2.5q-26 -10 -68 -18q-4 -1 -57 -14q-3 -5 -11 -5t-12 -2q-12 -8 -23 -7q-2 0 -3 -1t1 -3q-2 -1 -9 -0.5t-7 -2.5q8 -6 16 3q8 -1 17 1t19.5 5.5t17.5 4.5q12 2 36 8.5t37 8.5q28 5 67 10q-1 -9 -10 -11q-67 -13 -90 -19q-8 -2 -17.5 -4.5t-18.5 -5.5t-16.5 -5t-20 -6
t-21 -6.5t-20 -4.5t-21.5 -1q-16 2 -32 8q-42 18 -72 48q-22 23 -22 53q0 12 3.5 47t1.5 54q-2 21 -4 24q-1 8 -1 11t4 11.5t5 10.5q-2 2 -8.5 1.5t-9.5 2.5q0 10 14 16q4 2 9 7l6 6q5 3 4 8q-1 6 0.5 13t4 15.5t3.5 12.5q6 40 7 42q1 3 8 35t15 47q-1 11 6 29t8 24
q2 11 8.5 29.5t8.5 24.5q9 33 16 52q4 8 14 40.5t18 49.5q1 7 4 15t6.5 16t5.5 15q4 22 15 45q2 3 2 14t5 16q-2 17 15 47q2 6 8 21.5t12 23.5q15 5 29 -5q5 -3 15 -4q38 0 51 1q19 0 55 -9q19 -4 38 -5q4 -1 15.5 -4t17.5 -2q5 1 13 -7q-11 -3 -36 1.5t-35 -1.5
q8 1 23.5 -3t22.5 -3q4 0 5 -1q15 -5 43 -9q5 -1 9 -7v-3q2 -3 4 -4q8 -1 10.5 -8t-1.5 -11zM337 905q4 3 14 2.5t16 1.5q-6 0 -15 0.5t-15.5 1t-15 -1t-14.5 -6.5q3 0 9 -1t11 -0.5t10 3.5z" />
    <glyph glyph-name="F" unicode="F" horiz-adv-x="454" 
d="M609 855q1 -1 -2 -4.5t-6.5 -3t-8.5 -1t-8.5 -3t-8 -1t-8.5 4.5q-3 0 -19.5 0.5t-19.5 -4.5l-6 -1q-24 -1 -29 -4q-4 -1 -9 -1.5t-10.5 -1t-9.5 -1.5t-13.5 -3t-14.5 -4q-1 0 -11.5 -2t-15.5 -6q-2 -1 -5.5 -1.5l-7 -1t-6.5 -1.5q-9 -4 -12.5 -6.5t-6 -6.5t-6.5 -13
q-4 -12 -11 -29.5t-13 -34t-11 -29.5q-12 -33 -32 -79q-16 -37 -31 -81q-1 -3 -3 -7.5t-3 -8t-2.5 -7.5t-2 -8.5t-0.5 -8.5q1 -7 3 -9.5t6 -0.5q7 5 13 4q16 -1 22 -0.5t22 3t22 3.5q1 0 52 3q20 2 40 -16q2 -2 29 -28q-9 -9 -15 -7q-11 2 -13.5 -9t-15.5 -10h-28
q-3 0 -11 -3.5t-13 -1.5q-3 -5 -12.5 -4.5t-11.5 -4.5q-35 -6 -116 -33q-9 -3 -14 -9q-9 -11 -23 -54q-4 -12 -16 -54q-2 -5 -4 -11t-3.5 -11t-3 -10.5l-3 -11t-2.5 -11.5q-1 -8 -6 -24t-6 -23q-7 -35 -13 -44q0 -12 -3.5 -26.5t-7 -29.5t-3.5 -27q0 -3 -3 -11t-1 -12
q-3 -3 -7 -3t-5 1q-6 8 -10 -1q-2 -5 -4.5 -8.5t-5.5 -6.5q-6 -5 -12.5 -2.5t-7.5 10.5q-1 15 -12 18q-8 3 -17 16q-6 9 -21 18t-19 12l-7 -7q1 5 1 9.5t-0.5 8.5t0.5 8t4 7q2 2 0 9q-1 7 2 19t3 17q0 7 3.5 18.5t4.5 15.5q4 21 11 47q3 13 9.5 36t8.5 32q11 38 24 77
q7 21 17 45q1 3 1 7v7t1 7t4 7q12 15 15 24q12 40 23 72q18 50 27 71q10 22 29 78q1 2 8 15t7 21q4 5 8 12.5t6 13.5t5 14t5 13q33 72 43 98q3 8 3 22v16v5v5t0.5 5t1.5 5t3.5 4.5t5.5 4.5h25q2 -2 2 -6v-7q6 -2 17 2t15 4l3 1.5t5 1.5q10 -1 22 1t26.5 5t22.5 4q7 1 23 1.5
t24 2.5q6 2 12.5 2.5t11.5 0.5t12 0.5t12 1.5q9 1 26.5 -2t25.5 -3q2 0 5.5 -3t6.5 -3q2 0 5 -3t1.5 -7t-6 -4t-5.5 2q-3 3 -17 3q-62 1 -73 0q-37 -3 -51 -8q-2 -1 -28 -5q-6 -1 -16.5 -3.5t-13.5 -3.5q4 -10 7 -12t10 1q10 4 36 7q0 1 24 6q4 1 8 0t8.5 0t7.5 4q0 1 2 0
q14 -1 39 2.5t37 2.5q5 0 16 -2.5t17 -2.5q9 0 20.5 -14.5t10.5 -24.5q0 -2 -0.5 -5.5t-1 -6t-0.5 -5.5t2 -6z" />
    <glyph glyph-name="G" unicode="G" horiz-adv-x="593" 
d="M712 912q17 -16 6 -45q-5 -13 -12.5 -29t-14.5 -32t-12 -29q-10 -26 -42 -105q-5 -14 -16.5 -43.5t-17.5 -45.5q-5 -12 -12.5 -34.5t-8.5 -27.5q-13 -36 -31 -49q-2 -1 -2 2.5t-0.5 5t-6.5 -2.5q-3 -3 -6.5 0t-5.5 7v20q-11 -7 -16 -4q-2 0 -8 13q-14 27 -8 57
q5 26 14 55q4 13 17 51.5t20 60.5q1 6 9 25t10 30q1 5 5 3q5 -1 7 1.5t3 6t3 4.5q0 8 7 21.5t7 21.5q-1 1 -4 1.5t-5.5 1t-5 2t-3.5 3.5t-6 3q-38 5 -68 -16q-39 -27 -50 -40q-4 -4 -13.5 -10.5t-12.5 -10.5q-3 -2 -12.5 -14.5t-15.5 -18.5q-23 -20 -27 -31q-9 -7 -17.5 -17
t-14 -18.5t-13.5 -20t-14 -18.5q-10 -12 -24.5 -35.5t-19.5 -31.5q-8 -11 -20 -34.5t-19 -33.5q-10 -16 -23 -52q-28 -72 -28 -73q-1 -5 -25 -83q2 -7 -2 -20.5t-3 -19.5q1 -5 -2.5 -12.5t-2.5 -11.5q2 -19 -4 -24v-43q0 -2 -0.5 -8.5t-0.5 -11t2 -7.5q1 -3 2.5 -8t3.5 -9.5
t5 -8.5q2 0 21.5 -0.5t23.5 4.5q4 -2 14.5 0.5t14 3.5t13 5.5t12.5 6.5q41 17 74 50q25 25 34 35q21 21 34 49l-1 6q-31 -11 -54 1v15l3 2q14 1 19 6q4 4 14 5.5t13 2.5q11 5 12 13q-12 2 -29 0q-7 -1 -27 -7.5t-31 -5.5q-3 2 -4 6.5t-3 5.5q-10 6 -3 13q8 8 -1 14
q-4 3 -5.5 6.5t-1 7t0.5 7.5q-1 5 5.5 9.5t14.5 5.5q2 1 4 3.5t3.5 4.5t3.5 0q5 -3 8 1t4 4q1 1 2.5 1.5l1.5 0.5h38q5 -8 12.5 -10t17.5 -0.5t15 0.5q67 -12 92 -26q14 -8 12 -23q-12 -7 -21 -11q22 -17 24 -18q8 -4 7 -14q-1 -16 3 -25q5 -12 1.5 -20.5t-8.5 -26
t-8.5 -25.5t-13 -23.5t-12.5 -24.5q-3 -7 -15 -19q-2 -2 -17.5 -22t-28.5 -25q-6 -7 -13 -12.5t-14.5 -11.5t-14 -10t-16 -10t-14.5 -9q-17 -11 -49 -19q-19 -5 -22 -7t-11.5 -2t-12.5 -5q0 -1 -13 -1q-48 0 -52 1q-32 2 -64 20q-53 31 -105 87q-33 38 -43 76q0 2 -2.5 12
t-3 12.5t-1.5 11t-1 13.5t1.5 11.5t4.5 12.5q1 2 0 7q-2 9 1.5 24.5t3.5 20.5q0 8 4 22.5t4 20.5q2 13 8 34.5t8 30.5q5 26 19 60l8 20t11 25.5t12 19.5q1 1 1 4v4q6 32 18 54q3 4 10.5 18.5t11.5 21.5q23 39 75 107q23 29 43 49q14 13 39 38.5t36 35.5q36 36 87 61
q44 22 54 25q6 1 19 4t19 4q5 1 10.5 0.5t10 -1.5t10 -2.5t10.5 -1.5q6 0 13 -7q4 -6 27 -19q23 -12 28 -18q2 -2 6.5 -3.5t8.5 -3.5t6 -4q13 7 5 23q-7 14 5 23q9 -11 21 -10q2 1 21 1q20 -1 26 -16q4 -10 13 -18zM356 886q0 1 1 2q4 2 3 4q-4 4 -7 1q-7 -8 -23 -21
t-22 -18q-10 -10 -29.5 -33t-31.5 -33q-8 -8 -17 -18.5t-14.5 -19t-14.5 -21.5t-14 -20q-32 -43 -38 -61q0 -1 -4 -5q-9 -8 -17.5 -27t-10.5 -23q1 -3 -3 -9t1 -10q24 41 25 43q37 64 64 100q59 77 84 101q35 36 68 68z" />
    <glyph glyph-name="H" unicode="H" horiz-adv-x="666" 
d="M739 900h-1h1zM738 899v1v-1zM790 861q1 -2 -5 -16q-11 -35 -43 -109q-5 -14 -16.5 -44.5t-18.5 -46.5q-5 -11 -11.5 -32.5t-8.5 -27.5q-5 -12 -13.5 -35t-12.5 -34q-2 -6 -6.5 -20t-6.5 -21q-21 -54 -24 -66q-4 -13 -2.5 -16t12.5 -10q15 -9 18 -13q2 -3 2 -11t4 -10
q2 -2 0.5 -5t-4.5 -4l-13 -6.5t-17 -6.5q-19 -2 -26 -11q-5 -6 -10 -24q-1 -1 -6.5 -23t-9.5 -34q-1 -2 -1.5 -13.5t-5.5 -15.5q0 -6 -1.5 -14t-3.5 -15.5t0 -13.5q1 -4 -2 -12t-3 -12q-2 -29 14 -81q5 -15 3.5 -19t-14.5 -12q-1 0 -2.5 -1.5t-3 -2.5t-4.5 0q-3 5 -8.5 8
t-14 5.5t-12.5 4.5q-15 7 -43 37q-18 18 -24 48q-3 19 -4 27v23v24q0 31 10 62v13q-5 1 -9 1.5t-9 0t-7.5 -1.5t-8 -3t-7.5 -2q-73 -23 -80 -26q-12 -5 -34.5 -12.5t-33.5 -12.5q-16 -6 -18 -21q-1 -4 -3 -10.5t-3 -8.5q-5 -21 -17 -61q-4 -11 -8 -32t-6 -30q-1 -5 -1.5 -11
t0 -14.5t0.5 -12.5h-8.5t-7.5 -1t-2 -5v-5q-8 -15 -21 -4q0 1 -1.5 2t-1.5 2q-2 1 -3.5 3.5t-2.5 4.5t-2 4.5t-2.5 4.5t-3.5 4q-4 2 -10.5 8t-8.5 8q-3 2 -4 6t-3 6q-7 6 -9 3q-6 -6 -10 2q-9 17 -11 40v21v24q-4 -2 -13 -1.5t-12 -2.5q-7 -5 -19 1q-8 4 -26 23q-2 2 -1 6.5
t5 7.5q-4 3 -11 2.5t-11 0.5q-2 0 -1.5 4t-0.5 5q11 -1 19 13q22 8 28 12q20 15 35 18q11 2 15 8q3 6 1 8q-3 3 -6 1q-42 -23 -56 -33q-2 -1 -6.5 -2.5t-7 -4t-3.5 -7.5q-10 2 -19 -13q-9 4 -2 14q4 5 9 9.5t14 10.5t11 8l4 2t5 3q9 13 33 23q20 7 54 40q3 3 5 7t3 7.5
t2.5 8.5t2.5 7q1 4 15 39q3 9 15 36t17 42q3 9 7 19t8.5 21t7.5 19q21 56 29 74q6 15 16 42.5t12 32.5q5 13 14.5 36.5t13.5 34.5q3 7 10 26t11 29q5 12 10.5 25.5t11.5 29.5t10 26q9 22 9 48q-1 11 0 11q5 14 9 18q3 5 8.5 1t7.5 -3l6 -1q2 -4 1.5 -13.5t1.5 -13.5
q3 -1 10 4q17 13 30 -2q10 -11 18 -14q5 -2 10 -8.5t5 -12.5q0 -5 1.5 -11t3 -11.5t0.5 -10.5t-4 -14.5t-4 -15.5q-2 -13 -20 -64q-5 -16 -19 -51q-1 -4 -11.5 -32.5t-16.5 -42.5q-8 -17 -19.5 -49t-15.5 -42q-4 -9 -10.5 -28t-11.5 -29q-4 -11 -9 -27t-10.5 -30.5
t-10.5 -26.5q-1 -3 -16 -50q16 0 17.5 -1t17 3t16.5 4q10 2 34.5 8.5t38.5 8.5q8 1 23 5t20 5q19 4 25 26q3 10 9.5 29.5l9.5 28.5q2 7 7.5 21t7.5 22q2 5 4 11t4 10.5t4.5 10.5t3.5 11q1 2 10.5 28.5t15.5 40.5q2 6 8.5 23t9.5 26q28 74 29 77q4 10 11.5 29t10.5 28
q20 44 26 57q6 14 19.5 38t18.5 35q4 9 12 11q11 -4 16.5 -7.5t10 -11.5t2.5 -20q0 1 -2.5 1t-2.5 -3q0 -1 2 -6q3 1 2 7q3 1 5 8q1 1 6 7q2 1 3 0t2 -2.5t2 -1.5q2 -2 1.5 -5.5t0.5 -6.5q2 -2 8 -1.5t10 -1.5q0 -6 -1 -6q-9 -8 2 -14q1 -1 4 -2.5t4.5 -2.5t3 -3t1.5 -6z
M373 834q-3 -2 1 -3h1l3 1q1 3 4 9t3.5 8.5t-1.5 10.5q-8 -19 -8 -25zM448 347q1 1 3.5 1t4.5 0.5t4 1.5l4 2t3.5 2.5t2.5 3.5q-8 13 -17 6q-1 -1 -11 -3q-56 -13 -64 -16q-17 -6 -61 -16q-18 -5 -29 -18q3 -4 9 -2q8 4 48 14q13 3 32.5 8t37.5 9t33 7zM377 835v-0.5v-1.5
l-1 2h1z" />
    <glyph glyph-name="I" unicode="I" horiz-adv-x="260" 
d="M354 860q1 -1 2.5 -5.5t2 -6.5t0.5 -5.5t-1 -7.5q-5 -11 -10 -25t-10 -29t-9 -26q-33 -86 -43 -113q-44 -121 -56 -160q-5 -15 -13.5 -44t-12.5 -42q-10 -31 -29 -87.5t-25 -75.5q-3 -10 -8.5 -30t-8.5 -29q-8 -27 -16 -58q-1 -3 -3.5 -11t-3.5 -13.5t0 -10.5t-2 -12.5
t-3 -11.5q1 -23 8 -40h-30q-2 -5 5 -10.5t1 -12.5q-1 1 -4 3.5t-5 5t-2 3.5q0 7 -3 11.5t-5.5 6t-9 4t-8.5 2.5l-10 2.5t-14 7.5q0 1 -15 2q-2 20 -3.5 24.5t-12.5 9.5q0 4 -0.5 11.5t-0.5 12.5t0.5 11t2.5 11q2 7 2 16.5t0.5 18.5t5.5 15v12.5t1 12t2.5 12t3 11.5t1.5 12
q4 22 13 54q8 29 21 64q3 10 11 29.5t12 28.5q4 13 18 47.5t21 54.5q14 41 24 64q2 4 6.5 15.5t7.5 16.5q12 24 13 33q7 8 13 28t14 29q1 1 1.5 4t-0.5 4q-5 6 -4.5 10t3 10t1.5 9q7 12 16 35t12 31q6 13 19.5 42.5t20.5 44.5q3 6 2 13q0 5 8 20q2 5 5 5q28 1 37 -5
q12 -7 4 -19q-1 -1 -3 -2.5t-3 -3t0 -3.5q0 -8 2 -9q4 0 13 -7.5t16 -6.5q12 1 15 -8zM308 777q3 6 28 67h-31q-5 -7 -11.5 -24.5t-13.5 -25.5q-11 -12 -10 -24q0 -3 -3 -6q-7 -7 -12 -16t-10.5 -24.5t-7.5 -19.5q-6 -15 -28 -68q-1 -4 -8 -21.5t-11 -26.5q-3 -7 -8.5 -25
t-9.5 -27q-4 -7 1 -10q3 -2 5.5 -1t4 2.5t1.5 3.5q0 5 5 10.5t6 8.5q8 22 25.5 62t22.5 52q1 4 4.5 11t4.5 11t5 11t6 10q0 2 1.5 6t2.5 6t3 5.5t3.5 5.5t4 3.5t5.5 1.5q4 1 6.5 3t3.5 3.5t2.5 5t2.5 4.5q2 3 3.5 7.5t3.5 10t3 8.5z" />
    <glyph glyph-name="I" unicode="&#xcf;" horiz-adv-x="260" 
d="M354 860q1 -1 2.5 -5.5t2 -6.5t0.5 -5.5t-1 -7.5q-5 -11 -10 -25t-10 -29t-9 -26q-33 -86 -43 -113q-44 -121 -56 -160q-5 -15 -13.5 -44t-12.5 -42q-10 -31 -29 -87.5t-25 -75.5q-3 -10 -8.5 -30t-8.5 -29q-8 -27 -16 -58q-1 -3 -3.5 -11t-3.5 -13.5t0 -10.5t-2 -12.5
t-3 -11.5q1 -23 8 -40h-30q-2 -5 5 -10.5t1 -12.5q-1 1 -4 3.5t-5 5t-2 3.5q0 7 -3 11.5t-5.5 6t-9 4t-8.5 2.5l-10 2.5t-14 7.5q0 1 -15 2q-2 20 -3.5 24.5t-12.5 9.5q0 4 -0.5 11.5t-0.5 12.5t0.5 11t2.5 11q2 7 2 16.5t0.5 18.5t5.5 15v12.5t1 12t2.5 12t3 11.5t1.5 12
q4 22 13 54q8 29 21 64q3 10 11 29.5t12 28.5q4 13 18 47.5t21 54.5q14 41 24 64q2 4 6.5 15.5t7.5 16.5q12 24 13 33q7 8 13 28t14 29q1 1 1.5 4t-0.5 4q-5 6 -4.5 10t3 10t1.5 9q7 12 16 35t12 31q6 13 19.5 42.5t20.5 44.5q3 6 2 13q0 5 8 20q2 5 5 5q28 1 37 -5
q12 -7 4 -19q-1 -1 -3 -2.5t-3 -3t0 -3.5q0 -8 2 -9q4 0 13 -7.5t16 -6.5q12 1 15 -8zM308 777q3 6 28 67h-31q-5 -7 -11.5 -24.5t-13.5 -25.5q-11 -12 -10 -24q0 -3 -3 -6q-7 -7 -12 -16t-10.5 -24.5t-7.5 -19.5q-6 -15 -28 -68q-1 -4 -8 -21.5t-11 -26.5q-3 -7 -8.5 -25
t-9.5 -27q-4 -7 1 -10q3 -2 5.5 -1t4 2.5t1.5 3.5q0 5 5 10.5t6 8.5q8 22 25.5 62t22.5 52q1 4 4.5 11t4.5 11t5 11t6 10q0 2 1.5 6t2.5 6t3 5.5t3.5 5.5t4 3.5t5.5 1.5q4 1 6.5 3t3.5 3.5t2.5 5t2.5 4.5q2 3 3.5 7.5t3.5 10t3 8.5z" />
    <glyph glyph-name="I" unicode="&#xce;" horiz-adv-x="260" 
d="M354 860q1 -1 2.5 -5.5t2 -6.5t0.5 -5.5t-1 -7.5q-5 -11 -10 -25t-10 -29t-9 -26q-33 -86 -43 -113q-44 -121 -56 -160q-5 -15 -13.5 -44t-12.5 -42q-10 -31 -29 -87.5t-25 -75.5q-3 -10 -8.5 -30t-8.5 -29q-8 -27 -16 -58q-1 -3 -3.5 -11t-3.5 -13.5t0 -10.5t-2 -12.5
t-3 -11.5q1 -23 8 -40h-30q-2 -5 5 -10.5t1 -12.5q-1 1 -4 3.5t-5 5t-2 3.5q0 7 -3 11.5t-5.5 6t-9 4t-8.5 2.5l-10 2.5t-14 7.5q0 1 -15 2q-2 20 -3.5 24.5t-12.5 9.5q0 4 -0.5 11.5t-0.5 12.5t0.5 11t2.5 11q2 7 2 16.5t0.5 18.5t5.5 15v12.5t1 12t2.5 12t3 11.5t1.5 12
q4 22 13 54q8 29 21 64q3 10 11 29.5t12 28.5q4 13 18 47.5t21 54.5q14 41 24 64q2 4 6.5 15.5t7.5 16.5q12 24 13 33q7 8 13 28t14 29q1 1 1.5 4t-0.5 4q-5 6 -4.5 10t3 10t1.5 9q7 12 16 35t12 31q6 13 19.5 42.5t20.5 44.5q3 6 2 13q0 5 8 20q2 5 5 5q28 1 37 -5
q12 -7 4 -19q-1 -1 -3 -2.5t-3 -3t0 -3.5q0 -8 2 -9q4 0 13 -7.5t16 -6.5q12 1 15 -8zM308 777q3 6 28 67h-31q-5 -7 -11.5 -24.5t-13.5 -25.5q-11 -12 -10 -24q0 -3 -3 -6q-7 -7 -12 -16t-10.5 -24.5t-7.5 -19.5q-6 -15 -28 -68q-1 -4 -8 -21.5t-11 -26.5q-3 -7 -8.5 -25
t-9.5 -27q-4 -7 1 -10q3 -2 5.5 -1t4 2.5t1.5 3.5q0 5 5 10.5t6 8.5q8 22 25.5 62t22.5 52q1 4 4.5 11t4.5 11t5 11t6 10q0 2 1.5 6t2.5 6t3 5.5t3.5 5.5t4 3.5t5.5 1.5q4 1 6.5 3t3.5 3.5t2.5 5t2.5 4.5q2 3 3.5 7.5t3.5 10t3 8.5z" />
    <glyph glyph-name="I" unicode="&#xcd;" horiz-adv-x="260" 
d="M354 860q1 -1 2.5 -5.5t2 -6.5t0.5 -5.5t-1 -7.5q-5 -11 -10 -25t-10 -29t-9 -26q-33 -86 -43 -113q-44 -121 -56 -160q-5 -15 -13.5 -44t-12.5 -42q-10 -31 -29 -87.5t-25 -75.5q-3 -10 -8.5 -30t-8.5 -29q-8 -27 -16 -58q-1 -3 -3.5 -11t-3.5 -13.5t0 -10.5t-2 -12.5
t-3 -11.5q1 -23 8 -40h-30q-2 -5 5 -10.5t1 -12.5q-1 1 -4 3.5t-5 5t-2 3.5q0 7 -3 11.5t-5.5 6t-9 4t-8.5 2.5l-10 2.5t-14 7.5q0 1 -15 2q-2 20 -3.5 24.5t-12.5 9.5q0 4 -0.5 11.5t-0.5 12.5t0.5 11t2.5 11q2 7 2 16.5t0.5 18.5t5.5 15v12.5t1 12t2.5 12t3 11.5t1.5 12
q4 22 13 54q8 29 21 64q3 10 11 29.5t12 28.5q4 13 18 47.5t21 54.5q14 41 24 64q2 4 6.5 15.5t7.5 16.5q12 24 13 33q7 8 13 28t14 29q1 1 1.5 4t-0.5 4q-5 6 -4.5 10t3 10t1.5 9q7 12 16 35t12 31q6 13 19.5 42.5t20.5 44.5q3 6 2 13q0 5 8 20q2 5 5 5q28 1 37 -5
q12 -7 4 -19q-1 -1 -3 -2.5t-3 -3t0 -3.5q0 -8 2 -9q4 0 13 -7.5t16 -6.5q12 1 15 -8zM308 777q3 6 28 67h-31q-5 -7 -11.5 -24.5t-13.5 -25.5q-11 -12 -10 -24q0 -3 -3 -6q-7 -7 -12 -16t-10.5 -24.5t-7.5 -19.5q-6 -15 -28 -68q-1 -4 -8 -21.5t-11 -26.5q-3 -7 -8.5 -25
t-9.5 -27q-4 -7 1 -10q3 -2 5.5 -1t4 2.5t1.5 3.5q0 5 5 10.5t6 8.5q8 22 25.5 62t22.5 52q1 4 4.5 11t4.5 11t5 11t6 10q0 2 1.5 6t2.5 6t3 5.5t3.5 5.5t4 3.5t5.5 1.5q4 1 6.5 3t3.5 3.5t2.5 5t2.5 4.5q2 3 3.5 7.5t3.5 10t3 8.5z" />
    <glyph glyph-name="I" unicode="&#xcc;" horiz-adv-x="260" 
d="M354 860q1 -1 2.5 -5.5t2 -6.5t0.5 -5.5t-1 -7.5q-5 -11 -10 -25t-10 -29t-9 -26q-33 -86 -43 -113q-44 -121 -56 -160q-5 -15 -13.5 -44t-12.5 -42q-10 -31 -29 -87.5t-25 -75.5q-3 -10 -8.5 -30t-8.5 -29q-8 -27 -16 -58q-1 -3 -3.5 -11t-3.5 -13.5t0 -10.5t-2 -12.5
t-3 -11.5q1 -23 8 -40h-30q-2 -5 5 -10.5t1 -12.5q-1 1 -4 3.5t-5 5t-2 3.5q0 7 -3 11.5t-5.5 6t-9 4t-8.5 2.5l-10 2.5t-14 7.5q0 1 -15 2q-2 20 -3.5 24.5t-12.5 9.5q0 4 -0.5 11.5t-0.5 12.5t0.5 11t2.5 11q2 7 2 16.5t0.5 18.5t5.5 15v12.5t1 12t2.5 12t3 11.5t1.5 12
q4 22 13 54q8 29 21 64q3 10 11 29.5t12 28.5q4 13 18 47.5t21 54.5q14 41 24 64q2 4 6.5 15.5t7.5 16.5q12 24 13 33q7 8 13 28t14 29q1 1 1.5 4t-0.5 4q-5 6 -4.5 10t3 10t1.5 9q7 12 16 35t12 31q6 13 19.5 42.5t20.5 44.5q3 6 2 13q0 5 8 20q2 5 5 5q28 1 37 -5
q12 -7 4 -19q-1 -1 -3 -2.5t-3 -3t0 -3.5q0 -8 2 -9q4 0 13 -7.5t16 -6.5q12 1 15 -8zM308 777q3 6 28 67h-31q-5 -7 -11.5 -24.5t-13.5 -25.5q-11 -12 -10 -24q0 -3 -3 -6q-7 -7 -12 -16t-10.5 -24.5t-7.5 -19.5q-6 -15 -28 -68q-1 -4 -8 -21.5t-11 -26.5q-3 -7 -8.5 -25
t-9.5 -27q-4 -7 1 -10q3 -2 5.5 -1t4 2.5t1.5 3.5q0 5 5 10.5t6 8.5q8 22 25.5 62t22.5 52q1 4 4.5 11t4.5 11t5 11t6 10q0 2 1.5 6t2.5 6t3 5.5t3.5 5.5t4 3.5t5.5 1.5q4 1 6.5 3t3.5 3.5t2.5 5t2.5 4.5q2 3 3.5 7.5t3.5 10t3 8.5z" />
    <glyph glyph-name="J" unicode="J" horiz-adv-x="374" 
d="M12 713q1 1 2 1q-1 -2 -1 -4q-2 0 -1 3zM454 835q5 -6 4.5 -40t-0.5 -40q-6 -15 -12 -56q-5 -33 -25 -88q-19 -52 -27 -71q-5 -11 -13 -31t-12 -29q-22 -51 -24 -59q-1 -3 -4.5 -8t-4.5 -7q-29 -67 -80 -164q-28 -54 -63 -101q-43 -58 -77 -90q-11 -10 -14 -12
q-33 -20 -53 -31q-4 -2 -14.5 -5t-16.5 -6q-7 -5 -15 2q-3 3 -6 2q-28 -2 -46 30q-5 9 -9.5 10t-8 4t-4.5 5t-3 7.5t-2.5 6.5t-1 5.5t-2.5 6.5t-6 3q-5 1 -6 6t3 9q1 2 2 5.5t3 5.5h27q6 1 12 4.5t16 9.5t18 11t15 11q43 39 88 109q16 25 47 84q1 2 10.5 17.5t12.5 24.5
q6 16 20.5 46t19.5 43q6 15 26 57q2 4 26 67q31 78 45 118q4 11 12.5 34t12.5 35q20 59 23 75q-14 1 -29 -3q-58 -19 -85 -34q-57 -32 -82 -56q-3 -3 -16 -12q-42 -30 -64 -63q-6 -9 -12 -10q-18 0 -23 2q1 5 -2 6.5t-7 1.5t-5 1q-1 3 -3 8.5t-4 7.5q-3 4 -2 10l1 0.5t2 3.5
h-2l-2 -1q-2 -2 -5 -5.5t-5.5 -5t-6.5 -1.5q-4 13 1 20q2 2 9 11.5t11 13.5q15 13 22 26q4 5 9 9.5t12 9.5t10 8q6 5 14 12.5l16 15t14 12.5q2 1 17 9.5t20 16.5q9 5 19.5 11t19 11.5t19.5 12.5t19 12q26 16 64 27t58 6q26 -7 40 -22q5 -5 19.5 -19t21.5 -22q14 -15 24 -47z
M284 904q9 4 28.5 7.5t28.5 8.5q-8 12 -17 5q-4 -3 -15 -3q-7 0 -35 -8q-33 -10 -65 -29q-4 -2 -28 -15.5t-36 -22.5q-5 -3 -24.5 -15.5t-28.5 -20.5q-10 -8 -60 -59q0 -1 -2 -12q8 9 17.5 16.5t20.5 16t16 12.5q41 35 89 63l36 20q7 5 14.5 9t15 7.5t14.5 6.5t16 6.5
t15 6.5zM336 734q2 4 -3 5q-6 0 -6 -2q0 -7 -2.5 -14.5t-6.5 -16t-5 -13.5q-13 -39 -42 -107q-4 -9 -13 -31.5t-15 -34.5q-4 -10 -12 -29.5t-10 -24.5q-2 -3 -25 -53q-2 -3 -6 -10t-6 -12t-2 -9q1 -11 -7.5 -26.5t-8.5 -24.5q-8 -7 -16 -25t-10 -20q-11 -19 -10 -26
q-11 -5 -15 -23l-3 -2l-3 -2l-2 -2.5t-0.5 -3.5t0.5 -5q10 5 8 14q11 5 15 24q4 -1 7 5q6 11 15.5 28.5t18 33t15.5 28.5q6 10 15 30.5t13 28.5q15 28 31 67q1 3 7 15.5t8 19.5q3 8 8.5 22.5t7.5 18.5q6 15 16 42q14 36 16 45q3 9 6.5 21t6.5 23.5t6 20.5q1 5 4.5 13.5
t4.5 11.5z" />
    <glyph glyph-name="K" unicode="K" horiz-adv-x="512" 
d="M661 822q3 -3 1.5 -7.5t-2.5 -6.5t-4 -6.5t-4 -5.5q-3 -5 -22 -29q-9 -11 -21.5 -23.5l-24.5 -24.5t-21 -23q-33 -42 -80 -83q-17 -15 -36.5 -33.5t-32.5 -31.5t-35.5 -36.5t-32.5 -32.5q-20 -21 -52 -56q-18 -21 -10 -50q14 -47 33 -88q15 -32 46 -84q8 -14 25 -39
t20 -31q8 -11 22 -29q2 -2 6 -6.5t7 -8.5t5 -7q6 -8 32 -24q6 -4 10 -6q15 -6 1 -17l-1.5 -0.5t-2.5 -0.5q-10 -8 -5 -20q1 -2 1 -13q-7 1 -13 0.5t-13.5 0.5t-13.5 4q-15 6 -24 1t-31 9q-57 35 -80 61q-56 61 -79 96q-6 8 -15.5 20.5t-18 24t-14.5 22.5l-15 15
q-7 -6 -11 -26q-2 -10 -7 -29t-8.5 -34.5t-3.5 -29.5q-6 -6 -6 -19t-3 -17q-1 -4 -1.5 -9t0 -9t0.5 -10v-10q0 -10 9 -14q13 -6 14 -6q1 -1 4 -2.5l4 -2t2.5 -3.5t-0.5 -6q-1 -5 4.5 -10.5t6.5 -7.5q-1 0 -3 -3t-3 -3.5t-3 -2.5t-3 -2.5t-3 -2t-4 -1t-4 0.5t-4.5 1.5
t-4.5 3.5t-12 0q-7 -1 -18 7q-15 13 -26 13q-7 0 -16 10q-4 4 -9.5 8.5l-11 9t-8.5 8.5q-31 31 -33 68v44q0 6 3.5 20.5t1.5 22.5q0 2 0.5 3.5t3 3.5l2.5 2q2 1 7 0l1 -4t-2.5 -10t-2.5 -9q2 -13 -2 -18t-1 -17q0 -2 3 -2q4 0 4.5 1.5t0.5 6.5q0 11 12 63q2 6 5.5 21.5
t5.5 23.5q2 11 7.5 30.5t7.5 24.5q12 45 23 80q6 17 20.5 67t24.5 76q2 7 2 9q-2 4 -2 9.5t1 9t3 9t3 8.5q8 36 44 128q4 11 14 32.5t12 26.5q9 22 29 61.5t28 56.5q3 5 8 13t9.5 16t6.5 15q5 3 14.5 1.5t12.5 -2t12 -4t12 -4.5q6 -1 15 -8.5t15 -9.5q1 -4 6 -11t6 -11
t-5 -13q0 -13 -4 -25.5t-11 -28t-10 -23.5q-5 -16 -12 -33.5t-15.5 -38.5t-12.5 -33q-19 -50 -33 -88q-1 -3 -20 -57l14 7q6 7 18 17.5t21 20t15 20.5q0 1 3 3q10 8 20 19t21 24.5t18 21.5q48 51 55 59q36 43 73 94q18 27 32 39q13 11 38 47l5 4q34 -14 52 -34q10 -11 2 -24
q-6 -8 -6 -12t7 -9q6 -4 8.5 -9.5t4.5 -13t3 -10.5zM187 288q2 -3 5.5 -11.5t5.5 -12.5t7 -9.5t11 -9.5q-4 4 -5.5 12.5t-2.5 11.5q-3 4 -4.5 13t-2.5 12q-2 5 -5.5 9.5t-6 5.5t-4.5 -1q-2 -5 -2.5 -6t2 -6t2.5 -6q1 0 0.5 -1z" />
    <glyph glyph-name="L" unicode="L" 
d="M125 131q-6 -4 -5 -17q1 -5 5.5 -7.5t7.5 -0.5q4 3 15 3q100 1 122 0q9 0 50 -10q1 0 7 -6q-2 -2 -13 -2h-52t-52 -1q-36 0 -76 -13q-10 -3 -12 -6q-1 -1 -3.5 -3t-3 -3.5t0.5 -4.5q2 -2 3.5 -2t4 1.5t3.5 2.5q9 1 24.5 5t20.5 6q9 1 27 1.5t27 2.5q21 6 62 4
q33 -2 55 -9q9 -3 12 -9q9 -17 13 -20q1 -1 1.5 -3.5t-0.5 -2.5q-5 -4 -5 -13l3.5 -5t-0.5 -8q-6 2 -16 -2t-15 -3q-18 2 -33 0q-7 -1 -22 -2.5t-24 -2.5t-21.5 -4t-22.5 -6q-59 -21 -70 -25q-26 -10 -32 16q-1 6 -5 7q-6 2 -12 8t-12.5 12t-12.5 9q-4 1 -10 12
q-13 20 -32 32q-26 16 -33 58q-4 22 2 31q2 5 1.5 16.5t4.5 14.5q0 6 2.5 17t2.5 13q2 13 5 20q2 6 4 17q3 16 12.5 44.5t12.5 41.5q2 6 16 42q11 27 35 96q3 10 11 31t12 32q4 10 25 63q3 8 8 19t9.5 22t7.5 19q4 9 21 48.5t24 62.5q5 6 9 13.5t8 18.5t5 15q10 23 31 67
q1 1 3 18v9v9q1 12 12 12h19q3 -6 -1 -14.5t-1 -12.5q8 -3 15 2q17 14 32 -2q1 -2 12.5 -10t14.5 -16q0 -1 3 -6t2 -8q-1 -5 3 -14t1 -15q-4 -10 -9 -26q-2 -7 -4.5 -14t-6.5 -15.5t-5 -13.5q-3 -7 -51 -125q-15 -36 -32 -76q-23 -53 -37 -95q-4 -10 -12.5 -31.5
t-12.5 -33.5q-6 -18 -14.5 -42.5t-16.5 -48t-14 -42.5q-33 -105 -38 -142z" />
    <glyph glyph-name="M" unicode="M" horiz-adv-x="865" 
d="M132 521l3 6q0 -4 -1 -9h-2v1.5v1.5zM931 847q-1 -6 0 -10.5t0 -10.5t-5 -10q-4 -22 -19 -61t-19 -57q-5 -16 -14.5 -47t-13.5 -47q-11 -40 -14 -50q-2 -6 -4 -12.5t-3.5 -12t-3 -12.5t-2.5 -12q-4 -12 -22 -81q-2 -9 -6.5 -27.5t-5.5 -21.5l-3 -18t-4.5 -21.5
t-6.5 -17.5q2 -12 -4 -33t-5 -31q0 -4 -3 -10.5t-2 -11.5q2 -5 -1.5 -13t-3.5 -11q0 -1 0.5 -5t0.5 -6t-1 -5t-4 -5v-3q1 -9 -3 -28.5t-2 -30.5q1 -5 0 -10t-2.5 -11l-2.5 -10q-3 -32 16 -72q-5 -2 -12 -2h-11q-2 -3 -2 -8.5t-1 -8.5q-2 0 -7.5 -3.5t-9.5 -3.5q-15 2 -20 11
q-14 23 -28 31q-6 3 -13 14t-13 15q0 -1 -2.5 -3.5t-3.5 -2l-5 2.5l-5 5l-5 5t-3.5 5t-1.5 6.5t0 7.5q1 4 0 5q-7 4 -8.5 10t-0.5 15.5t0 12.5v29q1 22 4 28q2 4 1.5 13.5t3.5 13.5q2 3 0 18q0 4 2.5 9.5t3.5 7.5q2 10 6 33.5t7 35.5q1 6 5 16.5t5 15.5q14 50 23 82
q3 8 6 17t5.5 17.5t5.5 17t6 18t5 17.5l-1 2q-3 -1 -5.5 -3.5t-3.5 -4.5t-2.5 -5.5t-2.5 -4.5q-5 -8 -22 -34t-24.5 -41t-31 -58t-34.5 -68q-2 -5 -11 -23.5t-14 -29.5q-2 -4 -10 -23.5t-12 -30.5q-10 -21 -26 -60q-17 -40 -30 -77q-1 -3 -4 -7t-5.5 -7.5t-3.5 -7.5
q-1 -2 -8 -3q-5 -1 -6.5 -1t-4 -1.5t-3 -2t-1.5 -3t-1.5 -5l-1.5 -7.5q-19 10 -29 15.5t-23 17.5t-19 25q-2 4 -5 8t-5.5 7.5t-4.5 7.5q-14 27 -25 74q0 3 -2.5 12t-3.5 14q-1 2 -1 6v7t-1 6t-2 4q-3 4 -3.5 13t-5.5 12q1 12 -4 32.5t-6 29.5q0 5 -1 10.5t-2.5 12t-2.5 10.5
q0 1 -0.5 3.5t-1.5 5t-1 3.5v6.5v6t-1 6t-3 6.5q-2 2 -1 11t-4 12q2 8 -1.5 21t-3.5 20q2 18 -10 26q-4 2 -4 12v73v10q0 4 -3 5q-6 1 -6 -2q-1 -5 -5 -12t-5 -10q-6 -23 -21.5 -66t-22.5 -64q-19 -67 -27 -95q-1 -6 -3.5 -15.5t-4 -16.5t-4 -15.5t-5.5 -15.5q-1 -3 -1 -12
t-5 -14q1 -8 0 -18t-2.5 -17t-4 -18.5t-3.5 -17.5q-4 -21 -3.5 -54t-0.5 -54q0 -12 -3 -15t-15 -4q-10 -1 -27.5 2t-24.5 3q-1 0 -8 5q-36 21 -47 53q-8 24 -6 39q0 5 -0.5 13.5t0 15t4.5 12.5v7q0 1 -0.5 14t2.5 13q2 5 1.5 15t2.5 12q3 3 3 12.5t5 12.5q0 6 1 14t3 14
t4 14t3 15q0 9 3 19t6 21.5t5 18.5q1 7 6 21t6 21q0 2 6 18t4 25q5 8 8 17.5t6.5 21.5t5.5 18q37 104 66 189q3 11 8 25t10 27t9 24q2 7 8 23.5t10 29t6 24.5q6 7 11 23.5t7 20.5q6 12 15 10q2 0 5.5 -5.5t9.5 -3.5q3 1 6 -0.5t6.5 -3t6.5 -1.5q2 -1 4 -2.5t3.5 -3t4 -4.5
t3.5 -4q4 -4 10 -5q8 0 16.5 -3t18.5 -8.5t16 -7.5q8 -3 12 -13q10 -25 15 -43q2 -11 2 -30t2 -27q4 -25 3 -71t2 -71q3 -26 2.5 -77.5t2.5 -77.5q1 -14 1.5 -43t2.5 -44q1 -8 2 -25.5t3 -26.5q3 -17 4 -48q0 -3 3 -11t2 -13q4 -4 6.5 -10t2.5 -12v-13v-14q9 19 21.5 51.5
t17.5 46.5q4 9 8.5 19t8.5 19.5t8.5 19.5l9 20t7.5 19l3 3q1 0 0 1q-4 5 -4 10.5t2.5 9t6 8.5t5.5 9q26 59 38 80q6 10 13.5 23t13.5 23.5t13 23.5t14 23q5 7 18 29.5t22 33.5q4 7 15 22t17 23q88 115 92 120q24 32 42 48q12 11 20 10q2 -1 5 2t4.5 7.5t0.5 6.5q0 1 -2 3.5
t-1.5 3.5t1.5 4q4 6 15 5h9q2 -5 2.5 -6.5t-2 -6t-2.5 -5.5q-1 -4 2.5 -10t2.5 -11q-1 0 -1 2l-3 -2q-3 -1 1 -3l3 3q10 26 36 20q3 -7 4 -9.5t5.5 -6t10.5 -2.5q3 0 4 -4q0 -2 1 -2q11 -18 9 -32zM36 221q4 8 0 16q-4 -8 0 -16zM134 518q3 2 2 12l-1 -3q-1 3 -1 5l-2 -3v-8
q0 -1 -1 -3q-2 1 -4 -4q-3 -10 -11 -32l-12 -33q-5 -13 -12 -38.5t-9 -32.5q-12 -41 -16 -72q0 -3 -3 -8t-3 -9q2 -10 -3 -18t1 -22l7 15q0 7 1.5 14.5t4 16t3.5 12.5q10 46 24 96q3 11 7.5 25.5t9 28.5t7.5 25q0 1 5 13.5t6 22.5zM230 849q4 9 -2 17l-6 -14
q-11 -36 -59 -173q-26 -78 -40 -117q-16 -45 -37 -112q-4 -12 -10 -37t-10 -37q-2 -7 -4.5 -16t-4.5 -20t-4 -17q0 -1 -3.5 -12.5t-3 -13.5t1.5 -14q-5 1 -5 -5q0 -9 -1 -12q-3 -3 -3.5 -6t0 -7t0.5 -5l2 -2l1 2q0 11 1 16q5 0 5 6v13q5 2 4.5 8t0.5 10q4 9 17 58
q3 10 6.5 23t7 23.5t7 23t6.5 23.5q3 14 13.5 40t14.5 39q3 12 12 38q1 4 4.5 11t6 13t2.5 12q1 5 7 17.5t4 20.5q15 38 45 134q16 53 24 72zM528 385q4 8 1 12q-1 -3 -3.5 -6t-3.5 -5q-44 -85 -68 -145q-5 -12 -26 -71q-5 -13 -2 -27q2 12 19 50q6 15 18.5 45.5t19.5 46.5
q38 85 45 100zM534 401l0.5 0.5t1.5 0.5q-1 1 -1.5 2l-0.5 1l-2 -1q1 -1 2 -3z" />
    <glyph glyph-name="N" unicode="N" horiz-adv-x="643" 
d="M123 507l3 6q0 -4 -1 -9h-2v1.5v1.5zM749 863q5 -4 4.5 -6.5t-3.5 -6.5t-2 -7q0 -10 -11 -33q-15 -28 -36 -88q-1 -3 -25 -67q-33 -86 -35 -94q-7 -20 -21 -59t-16 -45q-11 -33 -15 -53q-1 -4 -3 -9.5t-3.5 -10t-3.5 -9.5t-3.5 -10.5t-2.5 -10.5q-4 -24 -13 -48
q-5 -11 -10.5 -33t-7.5 -28q-6 -21 -11 -49q-6 -36 -13 -46q0 -18 -8.5 -48.5t-10.5 -40.5q-1 -4 -6 -15t-4 -19q0 -1 -2 -3t-5 -4.5t-4 -3.5q-8 -10 -16 -3q-3 3 -7.5 3h-9.5l7 -7q-1 -1 -3 -3.5t-4 -3.5t-4 0q-4 2 -14.5 5t-17 6.5t-10.5 10.5q-3 5 -5 5q-10 3 -18 9.5
t-12 12.5t-10.5 17t-9.5 15q-5 8 -10 18.5t-7 17.5t-5.5 21t-5.5 19q-3 11 -18 77q-1 4 -3.5 14.5t-4 17t-2.5 15.5t0 16q-5 15 -9 45.5t-10 45.5q2 8 -1.5 21.5t-3.5 19.5q2 17 -9 24q-5 3 -5 14v73q0 12 -2 14q-5 1 -7 -3q-7 -13 -18 -47q-2 -6 -10 -27.5t-11 -33.5
t-11 -31.5t-10 -28.5q-15 -48 -20 -69q-1 -8 -5 -21t-6.5 -24.5t-2.5 -21.5q-4 -4 -4 -12.5t-2 -11.5q-3 -4 -3 -12t-1 -12q-4 -10 -6.5 -33t-7.5 -34v-14v-85q0 -5 -1.5 -8t-4.5 -4.5t-9 -2.5q-10 -1 -29.5 2t-26.5 3q-4 0 -10 5q-1 1 -7 6.5t-7.5 7t-6.5 6t-7.5 7.5
t-5.5 7.5t-5.5 8.5t-4.5 9q-1 3 -2 14t-4 16q1 10 0 17.5t-0.5 17.5t4.5 17q1 2 0 9q-1 8 2 21t3 17q0 7 4 19t4 18q1 10 5.5 29t6.5 27q0 4 14 62q4 15 12 42.5t11 40t20 59.5q23 64 64 185q5 13 10.5 29.5t10 29t10 29.5t9.5 29q2 5 11.5 32.5t14.5 41.5q3 9 8 16
q7 9 15 -2q3 -4 7 -4q25 -1 35 -16q3 -5 8 -7t11.5 -2.5t9.5 -1.5q6 -2 17.5 -8t17.5 -8q7 -3 12 -14q9 -19 15 -43q2 -10 2 -28.5t2 -26.5q4 -25 3 -71.5t2 -71.5q3 -27 2.5 -76t2.5 -75q1 -13 1.5 -30t1 -33t2.5 -29q0 -6 1 -24.5t3 -27.5q2 -8 2.5 -24t2.5 -23
q0 -3 1 -8.5t1.5 -8.5t2.5 -7.5t6 -7.5q7 8 7 13q0 7 5 20t4 21q0 1 2 2q9 8 14.5 19t10 29.5t5.5 23.5q5 13 11.5 32.5t11.5 33.5t11 32t9 34q11 18 22 55t14 43q6 15 15 55q3 14 12 40t10 31q1 2 35 102q7 19 12 28q4 9 9 21.5t10 24t11 20.5q1 1 2.5 3t2.5 4l2 4
q6 7 10 0q11 1 16.5 0.5t16 -3t15.5 -2.5q2 -2 1.5 -6.5t1.5 -6.5q1 0 11 -1l2 -2v-19l3 -2q3 0 6 -0.5t5 -1.5t5 -3t5 -3zM27 208q4 7 0 15q-4 -8 0 -15zM125 504q3 2 2 12l-1 -3q0 3 -1 6q-2 -3 -2 -4v-8v-3q-3 1 -4 -3q-3 -8 -6.5 -17t-6 -16t-5.5 -16t-6 -17
q-5 -13 -11.5 -38.5t-9.5 -32.5q-12 -41 -16 -72q0 -3 -3 -8t-3 -9q2 -10 -3 -17q-5 -9 1 -22q7 14 7 15q0 6 1.5 13.5t4.5 16t4 13.5q10 45 23 95q4 13 12 39.5t12 39.5q0 1 5 13.5t6 22.5zM221 835q4 9 -1 17l-7 -14q-11 -35 -59 -173q-26 -78 -40 -117q-16 -44 -37 -111
q-4 -13 -10 -38t-10 -36q-2 -8 -4 -17t-4.5 -19.5t-4.5 -17.5q0 -1 -3.5 -12.5t-3 -13.5t1.5 -14q-5 1 -5 -5q0 -9 -1 -12q-3 -3 -3.5 -5.5t0 -7t0.5 -5.5l2 -1l1 1q0 11 1 17q5 -1 5 5v13q5 2 5 8v10q4 9 17 58q4 15 13.5 45.5t13.5 47.5q3 14 13.5 40.5t14.5 39.5
q3 11 12 37q2 4 5 11t5.5 13.5t2.5 11.5q1 5 7 17.5t4 20.5q15 39 45 134q16 53 24 72z" />
    <glyph glyph-name="N" unicode="&#xd1;" horiz-adv-x="643" 
d="M123 507l3 6q0 -4 -1 -9h-2v1.5v1.5zM749 863q5 -4 4.5 -6.5t-3.5 -6.5t-2 -7q0 -10 -11 -33q-15 -28 -36 -88q-1 -3 -25 -67q-33 -86 -35 -94q-7 -20 -21 -59t-16 -45q-11 -33 -15 -53q-1 -4 -3 -9.5t-3.5 -10t-3.5 -9.5t-3.5 -10.5t-2.5 -10.5q-4 -24 -13 -48
q-5 -11 -10.5 -33t-7.5 -28q-6 -21 -11 -49q-6 -36 -13 -46q0 -18 -8.5 -48.5t-10.5 -40.5q-1 -4 -6 -15t-4 -19q0 -1 -2 -3t-5 -4.5t-4 -3.5q-8 -10 -16 -3q-3 3 -7.5 3h-9.5l7 -7q-1 -1 -3 -3.5t-4 -3.5t-4 0q-4 2 -14.5 5t-17 6.5t-10.5 10.5q-3 5 -5 5q-10 3 -18 9.5
t-12 12.5t-10.5 17t-9.5 15q-5 8 -10 18.5t-7 17.5t-5.5 21t-5.5 19q-3 11 -18 77q-1 4 -3.5 14.5t-4 17t-2.5 15.5t0 16q-5 15 -9 45.5t-10 45.5q2 8 -1.5 21.5t-3.5 19.5q2 17 -9 24q-5 3 -5 14v73q0 12 -2 14q-5 1 -7 -3q-7 -13 -18 -47q-2 -6 -10 -27.5t-11 -33.5
t-11 -31.5t-10 -28.5q-15 -48 -20 -69q-1 -8 -5 -21t-6.5 -24.5t-2.5 -21.5q-4 -4 -4 -12.5t-2 -11.5q-3 -4 -3 -12t-1 -12q-4 -10 -6.5 -33t-7.5 -34v-14v-85q0 -5 -1.5 -8t-4.5 -4.5t-9 -2.5q-10 -1 -29.5 2t-26.5 3q-4 0 -10 5q-1 1 -7 6.5t-7.5 7t-6.5 6t-7.5 7.5
t-5.5 7.5t-5.5 8.5t-4.5 9q-1 3 -2 14t-4 16q1 10 0 17.5t-0.5 17.5t4.5 17q1 2 0 9q-1 8 2 21t3 17q0 7 4 19t4 18q1 10 5.5 29t6.5 27q0 4 14 62q4 15 12 42.5t11 40t20 59.5q23 64 64 185q5 13 10.5 29.5t10 29t10 29.5t9.5 29q2 5 11.5 32.5t14.5 41.5q3 9 8 16
q7 9 15 -2q3 -4 7 -4q25 -1 35 -16q3 -5 8 -7t11.5 -2.5t9.5 -1.5q6 -2 17.5 -8t17.5 -8q7 -3 12 -14q9 -19 15 -43q2 -10 2 -28.5t2 -26.5q4 -25 3 -71.5t2 -71.5q3 -27 2.5 -76t2.5 -75q1 -13 1.5 -30t1 -33t2.5 -29q0 -6 1 -24.5t3 -27.5q2 -8 2.5 -24t2.5 -23
q0 -3 1 -8.5t1.5 -8.5t2.5 -7.5t6 -7.5q7 8 7 13q0 7 5 20t4 21q0 1 2 2q9 8 14.5 19t10 29.5t5.5 23.5q5 13 11.5 32.5t11.5 33.5t11 32t9 34q11 18 22 55t14 43q6 15 15 55q3 14 12 40t10 31q1 2 35 102q7 19 12 28q4 9 9 21.5t10 24t11 20.5q1 1 2.5 3t2.5 4l2 4
q6 7 10 0q11 1 16.5 0.5t16 -3t15.5 -2.5q2 -2 1.5 -6.5t1.5 -6.5q1 0 11 -1l2 -2v-19l3 -2q3 0 6 -0.5t5 -1.5t5 -3t5 -3zM27 208q4 7 0 15q-4 -8 0 -15zM125 504q3 2 2 12l-1 -3q0 3 -1 6q-2 -3 -2 -4v-8v-3q-3 1 -4 -3q-3 -8 -6.5 -17t-6 -16t-5.5 -16t-6 -17
q-5 -13 -11.5 -38.5t-9.5 -32.5q-12 -41 -16 -72q0 -3 -3 -8t-3 -9q2 -10 -3 -17q-5 -9 1 -22q7 14 7 15q0 6 1.5 13.5t4.5 16t4 13.5q10 45 23 95q4 13 12 39.5t12 39.5q0 1 5 13.5t6 22.5zM221 835q4 9 -1 17l-7 -14q-11 -35 -59 -173q-26 -78 -40 -117q-16 -44 -37 -111
q-4 -13 -10 -38t-10 -36q-2 -8 -4 -17t-4.5 -19.5t-4.5 -17.5q0 -1 -3.5 -12.5t-3 -13.5t1.5 -14q-5 1 -5 -5q0 -9 -1 -12q-3 -3 -3.5 -5.5t0 -7t0.5 -5.5l2 -1l1 1q0 11 1 17q5 -1 5 5v13q5 2 5 8v10q4 9 17 58q4 15 13.5 45.5t13.5 47.5q3 14 13.5 40.5t14.5 39.5
q3 11 12 37q2 4 5 11t5.5 13.5t2.5 11.5q1 5 7 17.5t4 20.5q15 39 45 134q16 53 24 72z" />
    <glyph glyph-name="O" unicode="O" horiz-adv-x="545" 
d="M597 657q1 -12 -3 -37.5t-2 -38.5q-5 -15 -10 -44t-8 -40q-3 -12 -7 -26t-9.5 -30t-8.5 -26t-11 -28t-11 -26q-7 -18 -23.5 -51.5t-18.5 -38.5t-7.5 -13.5t-7.5 -13.5q-13 -33 -42 -72q-3 -3 -17.5 -23.5t-22.5 -30.5q-17 -21 -50 -54q-32 -31 -73 -52q-36 -19 -66 -16
q-47 4 -60 10q-8 4 -29 19q-4 2 -12 7.5t-12 8.5t-9 8.5t-8 12.5l-10 10q-11 11 -18.5 22t-12 19t-15.5 31q-4 9 -6 18.5t-4.5 23.5t-3.5 19q-3 14 -3 41t-1 37q0 4 0.5 9t2.5 10.5t2 8.5q0 2 0.5 11.5t3.5 15.5q2 3 2 14.5t4 15.5q-1 11 4 30.5t5 29.5q0 3 1 6t2.5 6.5
t2.5 5.5l2.5 7.5l2.5 7.5t2 7t1 8t1.5 9l3 10t0.5 9q-2 3 0 10.5t2.5 10t3.5 9t4 8.5q14 35 17 40q4 6 7.5 15l7 18t6.5 15q37 67 63 105q30 43 49 65q3 3 7 8t7 8.5t7 7.5l8 8q15 15 24 16q4 1 9 5t10 9.5t9 8.5q27 20 56 35q34 17 52 17q30 0 53 -5q7 -1 11 -5
q8 -7 21 -15.5t24.5 -16.5t19.5 -16t21 -24t20 -23q13 -13 26 -57q10 -36 9 -53q-1 -3 1 -7.5t3.5 -8.5t0.5 -8v-27zM413 866q-1 0 -7.5 -1.5t-8.5 -1.5t-7.5 -1.5t-8 -3t-6.5 -3.5t-7 -4.5t-6 -5.5q6 -2 7 -2.5t6 2t6 2.5q5 2 16 4.5t17 4.5q5 3 4 7t-5 3zM173 78
q0 1 10.5 6t14.5 11q-5 1 -7.5 0t-6.5 -3t-6 -2q-4 0 -7.5 -2t-8.5 -5t-7 -5q12 -4 18 0zM470 710v68v14q-2 4 -5 7t-5 1q-4 -5 -13.5 -5.5t-11.5 -2.5q-23 -11 -47 -29q-19 -15 -48 -47.5t-43 -53.5q-3 -4 -7 -10t-7 -10t-6.5 -10t-5.5 -11q-3 -9 -11.5 -23.5t-11.5 -20.5
q-4 -11 -11 -23.5t-14 -25.5t-11 -23q-3 -7 -7.5 -19.5t-6.5 -17.5q-8 -18 -15 -38q-3 -11 -18 -35q-3 -3 -6 -9q-4 -9 -10 -36q-2 -8 -5.5 -21.5t-6.5 -25t-5 -21.5q-3 -14 0 -40q1 -7 -2.5 -19t-2.5 -19q0 -3 1 -19.5t3 -25.5q1 -7 2 -21.5t3 -21.5q1 -4 6.5 -10t5.5 -11
q18 1 19 1q20 8 31 17q6 4 21.5 16.5t26 21.5t20.5 19q3 3 6 8t6.5 9.5t6.5 7.5q5 3 8.5 8.5t7.5 11t7 8.5q4 4 10 15.5t11 16.5q1 1 4 7q3 5 -1 6q-4 2 -6 1q-19 -18 -25 -35l-3 -2l-7 7q4 2 6.5 5t5 8l3.5 7q41 60 59 96q18 37 27 59q26 59 38 95q8 23 22 75q2 10 5.5 29
t3.5 23q10 47 9 74z" />
    <glyph glyph-name="O" unicode="&#xd8;" horiz-adv-x="545" 
d="M597 657q1 -12 -3 -37.5t-2 -38.5q-5 -15 -10 -44t-8 -40q-3 -12 -7 -26t-9.5 -30t-8.5 -26t-11 -28t-11 -26q-7 -18 -23.5 -51.5t-18.5 -38.5t-7.5 -13.5t-7.5 -13.5q-13 -33 -42 -72q-3 -3 -17.5 -23.5t-22.5 -30.5q-17 -21 -50 -54q-32 -31 -73 -52q-36 -19 -66 -16
q-47 4 -60 10q-8 4 -29 19q-4 2 -12 7.5t-12 8.5t-9 8.5t-8 12.5l-10 10q-11 11 -18.5 22t-12 19t-15.5 31q-4 9 -6 18.5t-4.5 23.5t-3.5 19q-3 14 -3 41t-1 37q0 4 0.5 9t2.5 10.5t2 8.5q0 2 0.5 11.5t3.5 15.5q2 3 2 14.5t4 15.5q-1 11 4 30.5t5 29.5q0 3 1 6t2.5 6.5
t2.5 5.5l2.5 7.5l2.5 7.5t2 7t1 8t1.5 9l3 10t0.5 9q-2 3 0 10.5t2.5 10t3.5 9t4 8.5q14 35 17 40q4 6 7.5 15l7 18t6.5 15q37 67 63 105q30 43 49 65q3 3 7 8t7 8.5t7 7.5l8 8q15 15 24 16q4 1 9 5t10 9.5t9 8.5q27 20 56 35q34 17 52 17q30 0 53 -5q7 -1 11 -5
q8 -7 21 -15.5t24.5 -16.5t19.5 -16t21 -24t20 -23q13 -13 26 -57q10 -36 9 -53q-1 -3 1 -7.5t3.5 -8.5t0.5 -8v-27zM413 866q-1 0 -7.5 -1.5t-8.5 -1.5t-7.5 -1.5t-8 -3t-6.5 -3.5t-7 -4.5t-6 -5.5q6 -2 7 -2.5t6 2t6 2.5q5 2 16 4.5t17 4.5q5 3 4 7t-5 3zM173 78
q0 1 10.5 6t14.5 11q-5 1 -7.5 0t-6.5 -3t-6 -2q-4 0 -7.5 -2t-8.5 -5t-7 -5q12 -4 18 0zM470 710v68v14q-2 4 -5 7t-5 1q-4 -5 -13.5 -5.5t-11.5 -2.5q-23 -11 -47 -29q-19 -15 -48 -47.5t-43 -53.5q-3 -4 -7 -10t-7 -10t-6.5 -10t-5.5 -11q-3 -9 -11.5 -23.5t-11.5 -20.5
q-4 -11 -11 -23.5t-14 -25.5t-11 -23q-3 -7 -7.5 -19.5t-6.5 -17.5q-8 -18 -15 -38q-3 -11 -18 -35q-3 -3 -6 -9q-4 -9 -10 -36q-2 -8 -5.5 -21.5t-6.5 -25t-5 -21.5q-3 -14 0 -40q1 -7 -2.5 -19t-2.5 -19q0 -3 1 -19.5t3 -25.5q1 -7 2 -21.5t3 -21.5q1 -4 6.5 -10t5.5 -11
q18 1 19 1q20 8 31 17q6 4 21.5 16.5t26 21.5t20.5 19q3 3 6 8t6.5 9.5t6.5 7.5q5 3 8.5 8.5t7.5 11t7 8.5q4 4 10 15.5t11 16.5q1 1 4 7q3 5 -1 6q-4 2 -6 1q-19 -18 -25 -35l-3 -2l-7 7q4 2 6.5 5t5 8l3.5 7q41 60 59 96q18 37 27 59q26 59 38 95q8 23 22 75q2 10 5.5 29
t3.5 23q10 47 9 74z" />
    <glyph glyph-name="O" unicode="&#xd6;" horiz-adv-x="545" 
d="M597 657q1 -12 -3 -37.5t-2 -38.5q-5 -15 -10 -44t-8 -40q-3 -12 -7 -26t-9.5 -30t-8.5 -26t-11 -28t-11 -26q-7 -18 -23.5 -51.5t-18.5 -38.5t-7.5 -13.5t-7.5 -13.5q-13 -33 -42 -72q-3 -3 -17.5 -23.5t-22.5 -30.5q-17 -21 -50 -54q-32 -31 -73 -52q-36 -19 -66 -16
q-47 4 -60 10q-8 4 -29 19q-4 2 -12 7.5t-12 8.5t-9 8.5t-8 12.5l-10 10q-11 11 -18.5 22t-12 19t-15.5 31q-4 9 -6 18.5t-4.5 23.5t-3.5 19q-3 14 -3 41t-1 37q0 4 0.5 9t2.5 10.5t2 8.5q0 2 0.5 11.5t3.5 15.5q2 3 2 14.5t4 15.5q-1 11 4 30.5t5 29.5q0 3 1 6t2.5 6.5
t2.5 5.5l2.5 7.5l2.5 7.5t2 7t1 8t1.5 9l3 10t0.5 9q-2 3 0 10.5t2.5 10t3.5 9t4 8.5q14 35 17 40q4 6 7.5 15l7 18t6.5 15q37 67 63 105q30 43 49 65q3 3 7 8t7 8.5t7 7.5l8 8q15 15 24 16q4 1 9 5t10 9.5t9 8.5q27 20 56 35q34 17 52 17q30 0 53 -5q7 -1 11 -5
q8 -7 21 -15.5t24.5 -16.5t19.5 -16t21 -24t20 -23q13 -13 26 -57q10 -36 9 -53q-1 -3 1 -7.5t3.5 -8.5t0.5 -8v-27zM413 866q-1 0 -7.5 -1.5t-8.5 -1.5t-7.5 -1.5t-8 -3t-6.5 -3.5t-7 -4.5t-6 -5.5q6 -2 7 -2.5t6 2t6 2.5q5 2 16 4.5t17 4.5q5 3 4 7t-5 3zM173 78
q0 1 10.5 6t14.5 11q-5 1 -7.5 0t-6.5 -3t-6 -2q-4 0 -7.5 -2t-8.5 -5t-7 -5q12 -4 18 0zM470 710v68v14q-2 4 -5 7t-5 1q-4 -5 -13.5 -5.5t-11.5 -2.5q-23 -11 -47 -29q-19 -15 -48 -47.5t-43 -53.5q-3 -4 -7 -10t-7 -10t-6.5 -10t-5.5 -11q-3 -9 -11.5 -23.5t-11.5 -20.5
q-4 -11 -11 -23.5t-14 -25.5t-11 -23q-3 -7 -7.5 -19.5t-6.5 -17.5q-8 -18 -15 -38q-3 -11 -18 -35q-3 -3 -6 -9q-4 -9 -10 -36q-2 -8 -5.5 -21.5t-6.5 -25t-5 -21.5q-3 -14 0 -40q1 -7 -2.5 -19t-2.5 -19q0 -3 1 -19.5t3 -25.5q1 -7 2 -21.5t3 -21.5q1 -4 6.5 -10t5.5 -11
q18 1 19 1q20 8 31 17q6 4 21.5 16.5t26 21.5t20.5 19q3 3 6 8t6.5 9.5t6.5 7.5q5 3 8.5 8.5t7.5 11t7 8.5q4 4 10 15.5t11 16.5q1 1 4 7q3 5 -1 6q-4 2 -6 1q-19 -18 -25 -35l-3 -2l-7 7q4 2 6.5 5t5 8l3.5 7q41 60 59 96q18 37 27 59q26 59 38 95q8 23 22 75q2 10 5.5 29
t3.5 23q10 47 9 74z" />
    <glyph glyph-name="O" unicode="&#xd5;" horiz-adv-x="545" 
d="M597 657q1 -12 -3 -37.5t-2 -38.5q-5 -15 -10 -44t-8 -40q-3 -12 -7 -26t-9.5 -30t-8.5 -26t-11 -28t-11 -26q-7 -18 -23.5 -51.5t-18.5 -38.5t-7.5 -13.5t-7.5 -13.5q-13 -33 -42 -72q-3 -3 -17.5 -23.5t-22.5 -30.5q-17 -21 -50 -54q-32 -31 -73 -52q-36 -19 -66 -16
q-47 4 -60 10q-8 4 -29 19q-4 2 -12 7.5t-12 8.5t-9 8.5t-8 12.5l-10 10q-11 11 -18.5 22t-12 19t-15.5 31q-4 9 -6 18.5t-4.5 23.5t-3.5 19q-3 14 -3 41t-1 37q0 4 0.5 9t2.5 10.5t2 8.5q0 2 0.5 11.5t3.5 15.5q2 3 2 14.5t4 15.5q-1 11 4 30.5t5 29.5q0 3 1 6t2.5 6.5
t2.5 5.5l2.5 7.5l2.5 7.5t2 7t1 8t1.5 9l3 10t0.5 9q-2 3 0 10.5t2.5 10t3.5 9t4 8.5q14 35 17 40q4 6 7.5 15l7 18t6.5 15q37 67 63 105q30 43 49 65q3 3 7 8t7 8.5t7 7.5l8 8q15 15 24 16q4 1 9 5t10 9.5t9 8.5q27 20 56 35q34 17 52 17q30 0 53 -5q7 -1 11 -5
q8 -7 21 -15.5t24.5 -16.5t19.5 -16t21 -24t20 -23q13 -13 26 -57q10 -36 9 -53q-1 -3 1 -7.5t3.5 -8.5t0.5 -8v-27zM413 866q-1 0 -7.5 -1.5t-8.5 -1.5t-7.5 -1.5t-8 -3t-6.5 -3.5t-7 -4.5t-6 -5.5q6 -2 7 -2.5t6 2t6 2.5q5 2 16 4.5t17 4.5q5 3 4 7t-5 3zM173 78
q0 1 10.5 6t14.5 11q-5 1 -7.5 0t-6.5 -3t-6 -2q-4 0 -7.5 -2t-8.5 -5t-7 -5q12 -4 18 0zM470 710v68v14q-2 4 -5 7t-5 1q-4 -5 -13.5 -5.5t-11.5 -2.5q-23 -11 -47 -29q-19 -15 -48 -47.5t-43 -53.5q-3 -4 -7 -10t-7 -10t-6.5 -10t-5.5 -11q-3 -9 -11.5 -23.5t-11.5 -20.5
q-4 -11 -11 -23.5t-14 -25.5t-11 -23q-3 -7 -7.5 -19.5t-6.5 -17.5q-8 -18 -15 -38q-3 -11 -18 -35q-3 -3 -6 -9q-4 -9 -10 -36q-2 -8 -5.5 -21.5t-6.5 -25t-5 -21.5q-3 -14 0 -40q1 -7 -2.5 -19t-2.5 -19q0 -3 1 -19.5t3 -25.5q1 -7 2 -21.5t3 -21.5q1 -4 6.5 -10t5.5 -11
q18 1 19 1q20 8 31 17q6 4 21.5 16.5t26 21.5t20.5 19q3 3 6 8t6.5 9.5t6.5 7.5q5 3 8.5 8.5t7.5 11t7 8.5q4 4 10 15.5t11 16.5q1 1 4 7q3 5 -1 6q-4 2 -6 1q-19 -18 -25 -35l-3 -2l-7 7q4 2 6.5 5t5 8l3.5 7q41 60 59 96q18 37 27 59q26 59 38 95q8 23 22 75q2 10 5.5 29
t3.5 23q10 47 9 74z" />
    <glyph glyph-name="O" unicode="&#xd4;" horiz-adv-x="545" 
d="M597 657q1 -12 -3 -37.5t-2 -38.5q-5 -15 -10 -44t-8 -40q-3 -12 -7 -26t-9.5 -30t-8.5 -26t-11 -28t-11 -26q-7 -18 -23.5 -51.5t-18.5 -38.5t-7.5 -13.5t-7.5 -13.5q-13 -33 -42 -72q-3 -3 -17.5 -23.5t-22.5 -30.5q-17 -21 -50 -54q-32 -31 -73 -52q-36 -19 -66 -16
q-47 4 -60 10q-8 4 -29 19q-4 2 -12 7.5t-12 8.5t-9 8.5t-8 12.5l-10 10q-11 11 -18.5 22t-12 19t-15.5 31q-4 9 -6 18.5t-4.5 23.5t-3.5 19q-3 14 -3 41t-1 37q0 4 0.5 9t2.5 10.5t2 8.5q0 2 0.5 11.5t3.5 15.5q2 3 2 14.5t4 15.5q-1 11 4 30.5t5 29.5q0 3 1 6t2.5 6.5
t2.5 5.5l2.5 7.5l2.5 7.5t2 7t1 8t1.5 9l3 10t0.5 9q-2 3 0 10.5t2.5 10t3.5 9t4 8.5q14 35 17 40q4 6 7.5 15l7 18t6.5 15q37 67 63 105q30 43 49 65q3 3 7 8t7 8.5t7 7.5l8 8q15 15 24 16q4 1 9 5t10 9.5t9 8.5q27 20 56 35q34 17 52 17q30 0 53 -5q7 -1 11 -5
q8 -7 21 -15.5t24.5 -16.5t19.5 -16t21 -24t20 -23q13 -13 26 -57q10 -36 9 -53q-1 -3 1 -7.5t3.5 -8.5t0.5 -8v-27zM413 866q-1 0 -7.5 -1.5t-8.5 -1.5t-7.5 -1.5t-8 -3t-6.5 -3.5t-7 -4.5t-6 -5.5q6 -2 7 -2.5t6 2t6 2.5q5 2 16 4.5t17 4.5q5 3 4 7t-5 3zM173 78
q0 1 10.5 6t14.5 11q-5 1 -7.5 0t-6.5 -3t-6 -2q-4 0 -7.5 -2t-8.5 -5t-7 -5q12 -4 18 0zM470 710v68v14q-2 4 -5 7t-5 1q-4 -5 -13.5 -5.5t-11.5 -2.5q-23 -11 -47 -29q-19 -15 -48 -47.5t-43 -53.5q-3 -4 -7 -10t-7 -10t-6.5 -10t-5.5 -11q-3 -9 -11.5 -23.5t-11.5 -20.5
q-4 -11 -11 -23.5t-14 -25.5t-11 -23q-3 -7 -7.5 -19.5t-6.5 -17.5q-8 -18 -15 -38q-3 -11 -18 -35q-3 -3 -6 -9q-4 -9 -10 -36q-2 -8 -5.5 -21.5t-6.5 -25t-5 -21.5q-3 -14 0 -40q1 -7 -2.5 -19t-2.5 -19q0 -3 1 -19.5t3 -25.5q1 -7 2 -21.5t3 -21.5q1 -4 6.5 -10t5.5 -11
q18 1 19 1q20 8 31 17q6 4 21.5 16.5t26 21.5t20.5 19q3 3 6 8t6.5 9.5t6.5 7.5q5 3 8.5 8.5t7.5 11t7 8.5q4 4 10 15.5t11 16.5q1 1 4 7q3 5 -1 6q-4 2 -6 1q-19 -18 -25 -35l-3 -2l-7 7q4 2 6.5 5t5 8l3.5 7q41 60 59 96q18 37 27 59q26 59 38 95q8 23 22 75q2 10 5.5 29
t3.5 23q10 47 9 74z" />
    <glyph glyph-name="O" unicode="&#xd3;" horiz-adv-x="545" 
d="M597 657q1 -12 -3 -37.5t-2 -38.5q-5 -15 -10 -44t-8 -40q-3 -12 -7 -26t-9.5 -30t-8.5 -26t-11 -28t-11 -26q-7 -18 -23.5 -51.5t-18.5 -38.5t-7.5 -13.5t-7.5 -13.5q-13 -33 -42 -72q-3 -3 -17.5 -23.5t-22.5 -30.5q-17 -21 -50 -54q-32 -31 -73 -52q-36 -19 -66 -16
q-47 4 -60 10q-8 4 -29 19q-4 2 -12 7.5t-12 8.5t-9 8.5t-8 12.5l-10 10q-11 11 -18.5 22t-12 19t-15.5 31q-4 9 -6 18.5t-4.5 23.5t-3.5 19q-3 14 -3 41t-1 37q0 4 0.5 9t2.5 10.5t2 8.5q0 2 0.5 11.5t3.5 15.5q2 3 2 14.5t4 15.5q-1 11 4 30.5t5 29.5q0 3 1 6t2.5 6.5
t2.5 5.5l2.5 7.5l2.5 7.5t2 7t1 8t1.5 9l3 10t0.5 9q-2 3 0 10.5t2.5 10t3.5 9t4 8.5q14 35 17 40q4 6 7.5 15l7 18t6.5 15q37 67 63 105q30 43 49 65q3 3 7 8t7 8.5t7 7.5l8 8q15 15 24 16q4 1 9 5t10 9.5t9 8.5q27 20 56 35q34 17 52 17q30 0 53 -5q7 -1 11 -5
q8 -7 21 -15.5t24.5 -16.5t19.5 -16t21 -24t20 -23q13 -13 26 -57q10 -36 9 -53q-1 -3 1 -7.5t3.5 -8.5t0.5 -8v-27zM413 866q-1 0 -7.5 -1.5t-8.5 -1.5t-7.5 -1.5t-8 -3t-6.5 -3.5t-7 -4.5t-6 -5.5q6 -2 7 -2.5t6 2t6 2.5q5 2 16 4.5t17 4.5q5 3 4 7t-5 3zM173 78
q0 1 10.5 6t14.5 11q-5 1 -7.5 0t-6.5 -3t-6 -2q-4 0 -7.5 -2t-8.5 -5t-7 -5q12 -4 18 0zM470 710v68v14q-2 4 -5 7t-5 1q-4 -5 -13.5 -5.5t-11.5 -2.5q-23 -11 -47 -29q-19 -15 -48 -47.5t-43 -53.5q-3 -4 -7 -10t-7 -10t-6.5 -10t-5.5 -11q-3 -9 -11.5 -23.5t-11.5 -20.5
q-4 -11 -11 -23.5t-14 -25.5t-11 -23q-3 -7 -7.5 -19.5t-6.5 -17.5q-8 -18 -15 -38q-3 -11 -18 -35q-3 -3 -6 -9q-4 -9 -10 -36q-2 -8 -5.5 -21.5t-6.5 -25t-5 -21.5q-3 -14 0 -40q1 -7 -2.5 -19t-2.5 -19q0 -3 1 -19.5t3 -25.5q1 -7 2 -21.5t3 -21.5q1 -4 6.5 -10t5.5 -11
q18 1 19 1q20 8 31 17q6 4 21.5 16.5t26 21.5t20.5 19q3 3 6 8t6.5 9.5t6.5 7.5q5 3 8.5 8.5t7.5 11t7 8.5q4 4 10 15.5t11 16.5q1 1 4 7q3 5 -1 6q-4 2 -6 1q-19 -18 -25 -35l-3 -2l-7 7q4 2 6.5 5t5 8l3.5 7q41 60 59 96q18 37 27 59q26 59 38 95q8 23 22 75q2 10 5.5 29
t3.5 23q10 47 9 74z" />
    <glyph glyph-name="O" unicode="&#xd2;" horiz-adv-x="545" 
d="M597 657q1 -12 -3 -37.5t-2 -38.5q-5 -15 -10 -44t-8 -40q-3 -12 -7 -26t-9.5 -30t-8.5 -26t-11 -28t-11 -26q-7 -18 -23.5 -51.5t-18.5 -38.5t-7.5 -13.5t-7.5 -13.5q-13 -33 -42 -72q-3 -3 -17.5 -23.5t-22.5 -30.5q-17 -21 -50 -54q-32 -31 -73 -52q-36 -19 -66 -16
q-47 4 -60 10q-8 4 -29 19q-4 2 -12 7.5t-12 8.5t-9 8.5t-8 12.5l-10 10q-11 11 -18.5 22t-12 19t-15.5 31q-4 9 -6 18.5t-4.5 23.5t-3.5 19q-3 14 -3 41t-1 37q0 4 0.5 9t2.5 10.5t2 8.5q0 2 0.5 11.5t3.5 15.5q2 3 2 14.5t4 15.5q-1 11 4 30.5t5 29.5q0 3 1 6t2.5 6.5
t2.5 5.5l2.5 7.5l2.5 7.5t2 7t1 8t1.5 9l3 10t0.5 9q-2 3 0 10.5t2.5 10t3.5 9t4 8.5q14 35 17 40q4 6 7.5 15l7 18t6.5 15q37 67 63 105q30 43 49 65q3 3 7 8t7 8.5t7 7.5l8 8q15 15 24 16q4 1 9 5t10 9.5t9 8.5q27 20 56 35q34 17 52 17q30 0 53 -5q7 -1 11 -5
q8 -7 21 -15.5t24.5 -16.5t19.5 -16t21 -24t20 -23q13 -13 26 -57q10 -36 9 -53q-1 -3 1 -7.5t3.5 -8.5t0.5 -8v-27zM413 866q-1 0 -7.5 -1.5t-8.5 -1.5t-7.5 -1.5t-8 -3t-6.5 -3.5t-7 -4.5t-6 -5.5q6 -2 7 -2.5t6 2t6 2.5q5 2 16 4.5t17 4.5q5 3 4 7t-5 3zM173 78
q0 1 10.5 6t14.5 11q-5 1 -7.5 0t-6.5 -3t-6 -2q-4 0 -7.5 -2t-8.5 -5t-7 -5q12 -4 18 0zM470 710v68v14q-2 4 -5 7t-5 1q-4 -5 -13.5 -5.5t-11.5 -2.5q-23 -11 -47 -29q-19 -15 -48 -47.5t-43 -53.5q-3 -4 -7 -10t-7 -10t-6.5 -10t-5.5 -11q-3 -9 -11.5 -23.5t-11.5 -20.5
q-4 -11 -11 -23.5t-14 -25.5t-11 -23q-3 -7 -7.5 -19.5t-6.5 -17.5q-8 -18 -15 -38q-3 -11 -18 -35q-3 -3 -6 -9q-4 -9 -10 -36q-2 -8 -5.5 -21.5t-6.5 -25t-5 -21.5q-3 -14 0 -40q1 -7 -2.5 -19t-2.5 -19q0 -3 1 -19.5t3 -25.5q1 -7 2 -21.5t3 -21.5q1 -4 6.5 -10t5.5 -11
q18 1 19 1q20 8 31 17q6 4 21.5 16.5t26 21.5t20.5 19q3 3 6 8t6.5 9.5t6.5 7.5q5 3 8.5 8.5t7.5 11t7 8.5q4 4 10 15.5t11 16.5q1 1 4 7q3 5 -1 6q-4 2 -6 1q-19 -18 -25 -35l-3 -2l-7 7q4 2 6.5 5t5 8l3.5 7q41 60 59 96q18 37 27 59q26 59 38 95q8 23 22 75q2 10 5.5 29
t3.5 23q10 47 9 74z" />
    <glyph glyph-name="P" unicode="P" horiz-adv-x="590" 
d="M608 680q8 -31 3 -111q-1 -30 -15 -77q-17 -57 -27 -79q-2 -6 -9 -23t-12.5 -28t-13.5 -21q-4 -6 -8 -14l-8.5 -17t-8.5 -15q-20 -31 -43 -65q-41 -58 -99 -111q-55 -50 -89 -67q-57 -27 -110 9q-30 20 -64 55q-1 1 -13 12q-10 -9 -13 -29q-1 -4 -11 -38q-1 -4 -5.5 -19
t-7.5 -23q-1 -3 -4 -9.5t-3.5 -9.5t-2.5 -10.5t0 -10.5q-5 -9 -8 -19t-6 -22t-5 -19q-3 -10 -7.5 -27.5t-6.5 -23.5q-2 -9 -9 -38q0 -1 -3 -16.5t-6 -22.5q-1 -1 -1 -2q2 -10 -1.5 -27t-3.5 -23q-1 -34 24 -56l5 -5q1 -4 0.5 -5t-3 -3.5t-2.5 -3.5q-6 -12 -26 -10
q-18 2 -42 24q-2 3 -63 63q-7 7 -27 41q-1 2 -2 13q0 5 0.5 31t-0.5 30q0 5 2.5 12.5t2.5 11.5v5.5v6t1 5.5t4 5q-2 11 3.5 31.5t6.5 25.5q4 26 13 41q0 14 9 40t10 39q8 17 17.5 50t11.5 41q6 17 16 47t18.5 55t16.5 46q10 30 26 70q4 11 21 55.5t26 67.5q16 36 48 119
q5 11 11.5 26.5t12.5 30.5t10.5 27t18.5 42.5t20 47.5q2 7 13 23q9 13 9 27q0 5 1 10t2.5 10t3 9t3.5 9.5t4 9.5q4 14 16 12q1 -1 6 0t8 0t4 -8q1 -1 6 -2q2 -1 5.5 2t5.5 1q3 -1 11 -8q24 -20 36 -35t3 -30q-5 -8 0 -14q3 -2 7 2t8 1q-5 -11 -3 -15q6 -4 14 0q30 16 44 20
q39 12 54 11h24q-10 10 -54 16q43 9 81 -13q21 -12 33 -24q6 -6 16.5 -18.5t13.5 -15.5q25 -28 28 -33q6 -10 15.5 -35t12.5 -38zM224 595q-1 -4 -3.5 -10.5t-2.5 -8.5q-1 -3 2 -3q6 -1 6 1q0 4 6 19q-2 3 -3 3q-5 1 -5 -1zM508 694q6 13 0 29q0 2 -1 5.5t-1.5 5.5t-1.5 5
t-3 5q0 3 -10 3h-10.5h-8.5q-17 1 -32 -5q-8 -3 -21 -8t-24.5 -9t-20.5 -9q-18 -8 -58 -35q-33 -22 -43 -33q-19 -20 -27 -47q-5 -20 -18.5 -56.5t-16.5 -46.5q-5 -14 -11 -30t-13 -35t-11 -30q-4 -13 -64 -192q-8 -24 9 -42q14 -14 17 -16q15 -10 22 -8q23 9 32 14
q44 32 94 85l5 4.5t6 6.5q6 9 20 26.5t20 27.5q3 5 8 11.5t9 11t8 11t7 12.5q10 21 39 66q5 8 10.5 18t11 20.5t10.5 18.5q12 20 29 61q1 3 4.5 11t5 12t4.5 11t4.5 12t3.5 11.5t3 12.5t1 13q3 3 4 7t0.5 8t0.5 8q5 23 5 24q-1 15 3 25z" />
    <glyph glyph-name="Q" unicode="Q" horiz-adv-x="545" 
d="M593 710q4 -19 4 -64q1 -9 -0.5 -20t-3 -23.5t-1.5 -20.5q-2 -23 -10 -56q-2 -5 -3 -11t-2.5 -11t-2.5 -10.5t-2.5 -11t-2.5 -10.5q-6 -18 -31 -83q-25 -66 -53 -117q-6 -10 -16 -30t-19 -36t-19 -29q-16 -19 -1 -36q1 -2 22.5 -29t35.5 -39q25 -22 30 -25q14 -8 20 -7
q9 2 26 -6q1 -7 0.5 -15t-7.5 -12q-14 -11 -24 -9q-4 1 -10 -2.5t-10 -2.5q-8 2 -28.5 4t-30.5 7q-26 11 -47 32l-49 49q-27 -26 -45 -41q-23 -19 -85 -46h-61t-17 4.5t-14 5.5q-10 3 -27 18q-5 4 -14 10t-15.5 12t-9.5 14q-1 2 -2 3t-2 2.5t-2.5 2.5l-3 2t-2.5 2
q-15 15 -23 29t-21 42q-7 17 -14 60q-4 22 -4 55q0 3 -0.5 13t0 16.5t2.5 11.5q2 6 2 20t5 20q2 3 1.5 13.5t3.5 14.5q0 6 1 12l2 12t2.5 11.5t3 12t1.5 12.5l6 18q8 26 8 30q0 3 2.5 13.5t2.5 17.5q-1 9 10 37q15 36 17 40q5 8 11 23.5t10 22.5q39 71 64 107q35 50 48 62
q2 2 5.5 8t6.5 9q5 3 12 11.5t14 14.5t17 7q15 15 28 23q2 2 22 15.5t32 18.5q3 2 11.5 5.5t13.5 5.5t12.5 4t14.5 2q32 0 53 -5q6 -1 11 -5q4 -4 35 -25t43 -37q4 -6 9.5 -12t11 -13t9.5 -12q10 -12 23 -54q2 -6 10 -52zM414 868q-35 -5 -52 -21q6 -3 8.5 -2.5t7.5 2.5t7 3
q5 0 31 9q4 1 3 5.5t-5 3.5zM174 80q2 2 7.5 4.5t10 5.5t8.5 8q-29 -7 -44 -18q13 -3 18 0zM470 686q1 9 1 96q0 11 -1 12q-1 3 -4 6.5t-5 1.5q-4 -4 -13 -5t-12 -3q-41 -23 -57 -38q-52 -51 -79 -90q-4 -4 -11.5 -17t-12.5 -20q-6 -6 -12 -20t-9 -18q-32 -53 -72 -163
q-7 -19 -14 -25q-2 -1 -3 -3t-2 -3.5t-2 -4t-2 -4.5q-3 -5 -11 -37q-2 -6 -5.5 -17t-5 -18t-3.5 -16.5t-2 -17.5q0 -16 -3 -47t-3 -47q0 -6 2.5 -16t2.5 -15q-1 -35 17 -59q2 0 6 -0.5t7.5 -0.5t6.5 2q4 3 17 9.5t19 11.5q3 2 8.5 7.5t10 9.5t9.5 6q4 2 7.5 5t6.5 6l6 6
t6 6.5t6 5.5q10 9 -3 19q-6 5 -2.5 7.5t4 9.5t4.5 9q5 4 -2 12q-10 12 -20 37t-15 33q2 6 -3.5 12t-6.5 8q-10 28 -9 67q0 5 4 10q12 12 26 3q3 -2 4.5 -1t2 2.5t1.5 4t2 3.5h33h6t5.5 -1.5t5 -2.5t5 -3t4.5 -3q3 -1 4.5 -3.5t2 -5t1 -5.5t0.5 -5l6 -21q1 -1 5.5 -17
t11.5 -24l21 35q22 43 32 67q23 56 31 79q18 51 26 87q1 5 3.5 13t3.5 12.5t2 12t0 13.5v4q7 15 9 46z" />
    <glyph glyph-name="R" unicode="R" horiz-adv-x="483" 
d="M288 77l2 -2q-1 0 -2 1v1zM518 673q1 2 2 2q0 -1 -1 -2h-1zM606 746q8 -10 -3 -25q0 -5 -0.5 -9.5t-1 -8.5t-2 -9t-2.5 -8t-3 -8.5t-3 -8t-4 -8t-4 -7.5l-4 -8l-4 -8q-11 -21 -29 -41q-6 -7 -17 -20t-20.5 -23.5t-18.5 -18.5q-40 -37 -78 -78q-11 -13 -62 -56
q-36 -31 -51 -39q-6 -3 -7 -11t3 -16q2 -5 11.5 -24.5t14.5 -30.5q17 -43 47 -100q25 -46 48 -69q3 -3 9.5 -10t10.5 -10.5t10 -9t12 -9t12 -6.5q8 -4 5 -17q-2 0 -7 -0.5t-8 -0.5t-5 1q-5 4 -9 4t-5.5 -0.5t-6 -5l-4.5 -4.5q-1 -1 -1.5 -3.5t-2 -4t-4.5 -2.5q3 -1 8 -4
t8.5 -4t7.5 0q6 1 6 -4t-8 -5h-11h-12q-14 -1 -18 -4q-5 -2 -8 -2t-9 2.5t-8 3.5q-43 8 -75 24q-10 5 -18 13q-43 40 -77 109q-35 70 -47 108q-1 4 -6 4t-9 -5q-2 -2 -2.5 -5t-0.5 -6t-0.5 -6t-1.5 -5.5t-4 -4.5q-13 -64 -14 -69q-2 -8 -8 -28t-8 -31q0 -2 -6.5 -27
t-5.5 -39v-4.5v-4.5q1 -2 3 -6.5t2.5 -6t-1.5 -3.5q-4 -1 -13 -9t-17 -9q-23 -1 -34 12q-10 11 -25 25q-17 16 -13 37q7 38 10 47q2 8 4 17.5t4.5 19t4.5 17.5q4 14 10.5 40.5t12.5 47.5t13 40q3 8 7.5 22.5t7.5 20.5q4 12 -2 22q-4 9 -1 30q1 9 8 15q3 2 9 1.5t9 1.5
q4 15 15.5 41t14.5 36q1 3 31 78q2 5 31 76q-4 2 -5 3q-10 -15 -22.5 -46.5t-19.5 -43.5q-2 4 -1 10.5t2.5 10.5t4 10.5t3.5 10.5q-2 0 -6 0.5t-6 -0.5t-4 -6q-25 -53 -37 -87l-4 -10t-4 -9t-4.5 -9.5t-4.5 -9.5q-29 -79 -34 -96q-1 -2 -2 -4.5t-2 -4.5t-2 -5t0 -5l-3 -2
q-1 -1 -2 0q-5 1 -4 5q2 3 4 7.5t3.5 9l2.5 7.5q4 17 15 49.5t15 48.5q4 15 10.5 31.5t15 36.5t13.5 31q22 59 51 122q33 74 39 85q27 57 40 82q1 3 10.5 19t12.5 25q4 0 7.5 -1.5t7 -2.5t5.5 -2q20 -2 28 -13q14 -18 29 -15q6 -7 17 -1q2 1 3 2q31 17 62 14q9 -1 26 0
q35 2 70 -29q3 -2 10.5 -10t13.5 -12t14 -6l3 -3q35 -39 41 -65q6 -4 5.5 -13t2.5 -15zM382 805h-3q-5 -2 -6 -5q7 1 6 0q1 1 -1 4q3 1 6 1t4.5 -0.5t3.5 0.5t4 3q-9 5 -14 -3zM370 814q-6 1 -11 -8q6 1 7.5 2t3.5 6zM370 799q-13 2 -16 -7q5 -1 6.5 -0.5t5 3.5t4.5 4z
M245 541q-2 -7 -7 -29.5t-11 -33.5q6 3 12.5 8t11.5 9t11.5 10t10 9.5l10.5 10.5l10 10l7 7q8 0 12 11q1 3 9 10q16 14 42 43.5t36 39.5l5 5q2 8 18 23q4 3 7 7.5t6.5 9.5t6.5 8q23 20 51 65q0 1 3 4.5t4 5.5t0.5 5.5t-3.5 6.5q-4 -8 -6 -9.5t-9 -3.5q5 14 2 18t-18 5
q-4 0 -8.5 -0.5t-8.5 -1t-8.5 -2t-8 -2.5t-8 -2t-8.5 -2q-18 -3 -75 -29q-11 -5 -15 -17q-4 -10 -12 -29t-11 -27q-3 -7 -10 -23t-10 -25t-10 -26t-10 -25q-2 -7 -8.5 -21.5t-9.5 -22.5zM217 394q0 -1 -1 -2q-4 -2 -2 -4q4 -1 5.5 -1t4 3.5t4.5 3.5q-8 4 -11 0zM228 153
q28 -47 55 -72v-1v8q-19 21 -48 72q-39 66 -60 125q-2 5 -7 3q-4 -2 -2 -6q20 -48 26 -60q20 -42 36 -69zM292 74l-2 3h-2q0 5 -4 2q0 -2 4 -3v-1q0 -1 3 -2l-1 2q1 -1 2 -1zM520 673q1 1 2 3l-2 -1q0 1 1 3q-3 -2 -3 -3q-1 -1 0 -2q-3 0 -7 -5q-8 -6 -19.5 -21t-17.5 -20
q-10 -10 -67 -67.5t-90 -85.5q-8 -6 -23 -18t-23 -19l-14.5 -11.5t-21.5 -18.5q12 -2 24 4q8 4 20.5 15.5t14.5 12.5q31 25 38 32q6 6 40 36q24 21 66 66.5t52 55.5q5 5 13.5 18.5t14.5 18.5q0 1 1 3v4h1z" />
    <glyph glyph-name="S" unicode="S" horiz-adv-x="499" 
d="M260 748l2 2q0 -1 -1 -2h-1zM616 823q12 -11 5 -26q-1 -2 -2.5 -7.5t-2.5 -8.5q-5 -9 -10.5 -21.5t-11 -24.5t-10.5 -21q-9 -20 -37 -88q-16 -39 -31 -81q-1 -2 -7 -28q0 -2 0.5 -3.5t-0.5 -3t-4 -2.5q-2 0 -6.5 -3t-7.5 -1q-4 3 -10.5 5t-12.5 4.5t-11 6.5
q-22 18 -36 60q-2 8 -1 14q3 9 6 22t6.5 25.5t6.5 22.5q17 54 23 67v11q-5 2 -9 -1q-15 -11 -28.5 -24t-33.5 -33l-26 -26q-19 -20 -29 -33q-18 -27 -24 -34q-14 -16 -27 -36q-11 -18 -16 -38t0 -41q8 -33 24 -73q15 -35 22 -45t18.5 -33.5t20.5 -35.5q5 -7 11 -23.5
t10 -23.5q4 -8 8.5 -24t8.5 -23q-1 -18 0 -33t-2 -33t-12 -32q-17 -29 -42 -44q-47 -28 -99 -39q-3 0 -13.5 -1t-15.5 -3q-11 -5 -29 -4q-46 3 -85 31q-29 21 -49 62q-4 7 -7 9q-28 14 -41 58q-4 14 -4 21t3 22q2 9 2.5 13.5t1.5 11.5t2 13q1 10 6 11q6 1 8.5 3t5.5 9l3 7
q4 7 10 19.5t11.5 23t11.5 19.5q1 2 15 17q3 4 13 1q1 -14 1 -18h25q1 -1 7.5 -6t12.5 -3q2 -17 1.5 -23t-4.5 -19q-11 -30 -10 -55q1 -9 -1 -20.5t-3.5 -23t0.5 -20.5v-5.5v-5.5t0.5 -5t2.5 -5.5t4 -3.5q4 -2 7.5 -2.5t7.5 -0.5t7 0.5t7.5 2t6.5 2.5t7.5 3.5t6.5 2.5
q50 21 71 45q19 22 9 40q-2 4 -1 14q2 25 -17 65q-3 6 -7.5 17.5t-9 20t-9.5 15.5q-5 8 -10 18t-10.5 22t-8.5 19q-21 43 -32 92q-9 45 -9 50q-2 54 32 100q29 38 45 54l40 40q53 53 138 109q31 20 44 25q8 3 27.5 8.5t30.5 10.5q8 4 15 -9q-5 -10 -18 -15q-11 -5 -44 -23
q-5 -3 -10 -9q-14 -2 -21 -13q16 2 21 13q12 -1 12 0q12 9 54 25q9 4 9 5q9 9 16 7q22 -6 24 -9q2 -1 6 -5l6.5 -6.5t6.5 -4.5t9 -3q3 0 4 -4t1 -5q2 -3 10.5 -7.5t10.5 -8.5q6 -19 9 -22zM225 702q3 6 10.5 12.5t13 13.5t7.5 15q-7 0 -11 -3t-9.5 -11.5t-8.5 -11.5
q-43 -43 -61 -85l-5 -5q-5 -4 1 -8l3 -3q26 40 28 43q0 1 13 18t19 25zM262 748q1 0 3 3l-3 -1q1 1 1 2q-2 -2 -3 -2v-2q-5 0 -3 -5q2 1 4 5h1z" />
    <glyph glyph-name="T" unicode="T" horiz-adv-x="403" 
d="M820 822q2 -13 0.5 -16t-13.5 -5q0 -3 2.5 -5t4.5 -4.5t1 -6.5q-20 -4 -32 1q-6 2 -8 2q-17 -2 -48 1.5t-39 3.5q-29 0 -41 4q-4 1 -19 0.5t-19 4.5h-2q-12 -1 -34.5 2.5t-34.5 2.5q-6 -1 -15 3q-9 3 -17 1.5t-14.5 -7.5t-9.5 -14q-3 -12 -12 -32t-11 -27
q-5 -13 -12.5 -29t-15 -33t-11.5 -29q-7 -18 -30 -68q-17 -39 -34 -94q-5 -15 -15.5 -44.5t-15.5 -43.5q-7 -22 -15 -47t-18.5 -55t-16.5 -47q-25 -76 -44 -134q-8 -24 -12 -44q-3 -15 8 -23q0 -1 4 -3.5t5.5 -4t1.5 -5t-4 -7.5l0.5 -1.5t2 -3t2.5 -1.5q12 -4 13 -13
q-5 -5 -17 -7t-16 -4q-6 -3 -14 1q-56 30 -84 57q-20 18 -33 63q-1 1 -1 5v5q0 4 3 12.5t3 13.5q-3 18 4 24q-2 13 10 50q2 6 6 22.5t7 25.5q20 59 27 83q7 27 34 108q14 40 21 54q1 3 1.5 7.5t2.5 7.5t6 5q9 -7 5 -19q-25 -66 -38 -113q-16 -55 -26 -77q2 -4 0.5 -10.5
t-3 -10t-4 -10t-3.5 -9.5q-2 -7 -6 -20.5t-6 -19.5q-3 -10 -7.5 -30t-7.5 -29q-4 -12 7 -18q15 55 16 59q9 34 50 158q1 3 8.5 28.5t12.5 37.5q6 16 18.5 54.5t21.5 58.5q5 11 15 43q3 10 11 29.5t11 29.5q2 6 7.5 17t7.5 17q0 1 2 4.5t3.5 5.5t0.5 5t-4 6t2 11q10 16 15 29
q19 51 22 56q-12 9 -29 9q-143 -1 -223 0q-5 0 -14.5 -2.5t-14.5 -2.5h-13h-13.5t-13.5 2t-13 6l-2.5 10l-2.5 10t-1.5 11t0.5 12q1 8 -4 12q-10 8 -2 23q7 15 10 28t18 18q45 16 79 13q10 -1 30.5 2.5t30.5 3.5q10 -1 64 -1q9 0 31.5 -3t34.5 -2q44 3 65 0q10 -2 30 -2.5
t29 -2.5q7 -1 15 -1.5t14 -0.5t14 -0.5t14 -2.5q21 -4 41 -3q4 0 12.5 -3t13.5 -3q2 0 6.5 1t7 1t6.5 -1.5t6 -4.5q1 -1 7 0q10 2 27.5 -2t27.5 -3q14 -5 41.5 -10.5l32.5 -6.5q9 -2 70 -25q12 -5 15 -5t2 -5t-5 -4q-32 9 -35 10q-15 8 -54 13q-2 1 -10 3.5t-14 1.5t-24 4
q-3 2 -12 1t-13 0q-19 7 -40 2q59 -11 73 -12.5t72 -12.5q4 -1 11 -8q11 -11 26 -16q33 -11 43 -20q13 -13 10 -22v-4z" />
    <glyph glyph-name="U" unicode="U" horiz-adv-x="562" 
d="M643 840q1 -2 6.5 -3t5.5 -6q0 -3 -1 -6t-3 -6.5t-3 -5.5q-11 -22 -31 -81q-3 -10 -52 -162q-18 -55 -18 -56q-14 -51 -15 -54q-3 -10 -26 -86q-14 -48 -16 -71q-1 -7 -5.5 -23t-4.5 -25q-6 -4 -3 -19q1 -4 -2.5 -10t-3.5 -9q2 -12 -1.5 -34.5t-3 -34t0.5 -34v-34.5
q2 -18 10 -54q1 -5 10 -15q7 -8 16 -17q9 -8 6 -14q-7 -13 -17 -13q-6 0 -12.5 1t-15 3.5t-11.5 2.5q-13 3 -44 25q-15 10 -41 37q-36 36 -43 88q-4 29 -3 31q0 5 -3.5 15t-2.5 16q1 2 1 33q-3 0 -5.5 -1t-4 -2.5t-3 -4t-2.5 -4t-2 -4t-2 -3.5q-10 -23 -32.5 -67t-32.5 -66
q-18 -35 -48 -59q-28 -21 -47 -8q-44 9 -90 43q-32 22 -51 72q-1 3 1 6q7 10 3 36q-4 24 -4 30.5t5 31.5v6v6v15t4 21q2 5 2 16t2 17q2 4 3 9t1 12t1 10q0 1 7 31q0 2 3 16.5t5 21.5q7 26 10 41q0 4 1.5 9.5t2.5 9.5t2.5 9.5t2.5 9.5q11 41 24 82q14 46 17 54q7 16 18 53
q5 16 6 38q1 16 9 34q5 11 20.5 49t26.5 58q1 9 8.5 24t9.5 21v5.5v6.5t1.5 6t4.5 5q0 6 5 7t7 -2q10 -9 22 -9q3 0 6.5 -3.5t7.5 -7t8 -5.5q1 0 1 -15q0 -21 -1 -23q-6 -9 4 -11h2q2 -1 9.5 -0.5t9.5 0.5q23 -2 23 -24q0 -29 -16 -78q-2 -7 -41 -120q-15 -46 -20 -59
q-2 -8 -6.5 -23.5t-6.5 -22.5q-13 -39 -14 -44q-1 -2 -7.5 -27.5t-11.5 -37.5q-3 -9 -13 -49q-1 -4 -4 -14t-4.5 -18t-1.5 -15q-6 -5 -4 -19q0 -4 -3 -9t-3 -8q1 -6 0 -12.5t-2.5 -14t-2.5 -11.5q-1 -7 -4 -23t-4 -25v-49v-10q-1 -6 7 -11q7 -3 11 7q2 5 5 10t5.5 9t6.5 9.5
t6 9.5l3 6t3.5 6.5t4 5.5t4.5 5q4 3 8.5 10.5t9.5 9.5q-13 -32 -24 -49q-4 -7 -15.5 -27.5t-18.5 -31.5q-9 -12 0 -21q2 -2 6 -10t9 -10q3 6 17 24t18 30l3 3q8 8 15.5 17.5t14.5 21t12 19.5t12.5 21.5t11.5 20.5q35 61 49 90q7 15 18 54q1 5 2.5 13t3 15.5t3.5 13.5
t3.5 13.5t3.5 14.5t4 12q2 4 2 15.5t6 12.5q-1 6 2 15.5t3 12.5q3 30 15 53q6 12 14 35t12 32q3 7 11.5 24t12.5 27q3 6 38 90q40 96 56 127q9 17 17 23q12 11 24 0q7 -8 19 -10q10 -1 21 -19q0 -2 2.5 -6.5t4 -6.5t4 -5t5 -5t6 -3t8.5 -1q3 0 6 -7q1 -1 3 -8zM105 425
q7 27 20 39q10 10 8 17q5 6 8.5 22t10.5 22q1 0 0.5 3t-0.5 4q5 17 8 23q4 9 29 74q3 8 7 18t7 18t6.5 17.5t6.5 17.5q3 7 7 17t8 19t6 17q1 5 9.5 23.5t9.5 29.5q7 4 4 17q-1 3 -7 5.5t-8 4.5q-3 -5 -4 -5q-37 -93 -37 -95q-20 -48 -33 -85q-4 -10 -16.5 -28t-20.5 -23
q-4 -2 -6 -8q-2 -5 -7 -16.5t-7 -17.5q-8 -30 -15 -41q-5 -8 -9 -18t-6.5 -17.5t-5.5 -19.5t-5 -18q-14 -46 -18 -66q-1 -5 -7.5 -33.5t-8.5 -44.5q-5 -37 -5 -40q-3 -7 -3.5 -21t-0.5 -19h18q0 2 2.5 6t2.5 5q2 12 7 34t7 31q2 12 6 26.5t9 31t8 26.5q2 7 4.5 15.5
t5.5 17.5zM374 308q3 4 3.5 8t0.5 7t-0.5 8t-0.5 9l-13.5 -13.5t-3.5 -8t-3.5 -8t-3.5 -8t-3 -8.5t-3 -8t-2.5 -8t-2 -8.5t-1.5 -9t-1 -9t0 -8.5q0 -8 -0.5 -59t4.5 -59q0 -2 3.5 -13.5t3.5 -18.5q3 3 3 10v12v12q0 4 -2.5 11.5t-2.5 11.5q1 8 3 25t2.5 24t-0.5 24q0 2 2 6
q1 1 1 2q1 5 6 10.5t4 8.5q0 7 4 23.5t2 25.5q-1 7 1 9z" />
    <glyph glyph-name="U" unicode="&#xdc;" horiz-adv-x="562" 
d="M643 840q1 -2 6.5 -3t5.5 -6q0 -3 -1 -6t-3 -6.5t-3 -5.5q-11 -22 -31 -81q-3 -10 -52 -162q-18 -55 -18 -56q-14 -51 -15 -54q-3 -10 -26 -86q-14 -48 -16 -71q-1 -7 -5.5 -23t-4.5 -25q-6 -4 -3 -19q1 -4 -2.5 -10t-3.5 -9q2 -12 -1.5 -34.5t-3 -34t0.5 -34v-34.5
q2 -18 10 -54q1 -5 10 -15q7 -8 16 -17q9 -8 6 -14q-7 -13 -17 -13q-6 0 -12.5 1t-15 3.5t-11.5 2.5q-13 3 -44 25q-15 10 -41 37q-36 36 -43 88q-4 29 -3 31q0 5 -3.5 15t-2.5 16q1 2 1 33q-3 0 -5.5 -1t-4 -2.5t-3 -4t-2.5 -4t-2 -4t-2 -3.5q-10 -23 -32.5 -67t-32.5 -66
q-18 -35 -48 -59q-28 -21 -47 -8q-44 9 -90 43q-32 22 -51 72q-1 3 1 6q7 10 3 36q-4 24 -4 30.5t5 31.5v6v6v15t4 21q2 5 2 16t2 17q2 4 3 9t1 12t1 10q0 1 7 31q0 2 3 16.5t5 21.5q7 26 10 41q0 4 1.5 9.5t2.5 9.5t2.5 9.5t2.5 9.5q11 41 24 82q14 46 17 54q7 16 18 53
q5 16 6 38q1 16 9 34q5 11 20.5 49t26.5 58q1 9 8.5 24t9.5 21v5.5v6.5t1.5 6t4.5 5q0 6 5 7t7 -2q10 -9 22 -9q3 0 6.5 -3.5t7.5 -7t8 -5.5q1 0 1 -15q0 -21 -1 -23q-6 -9 4 -11h2q2 -1 9.5 -0.5t9.5 0.5q23 -2 23 -24q0 -29 -16 -78q-2 -7 -41 -120q-15 -46 -20 -59
q-2 -8 -6.5 -23.5t-6.5 -22.5q-13 -39 -14 -44q-1 -2 -7.5 -27.5t-11.5 -37.5q-3 -9 -13 -49q-1 -4 -4 -14t-4.5 -18t-1.5 -15q-6 -5 -4 -19q0 -4 -3 -9t-3 -8q1 -6 0 -12.5t-2.5 -14t-2.5 -11.5q-1 -7 -4 -23t-4 -25v-49v-10q-1 -6 7 -11q7 -3 11 7q2 5 5 10t5.5 9t6.5 9.5
t6 9.5l3 6t3.5 6.5t4 5.5t4.5 5q4 3 8.5 10.5t9.5 9.5q-13 -32 -24 -49q-4 -7 -15.5 -27.5t-18.5 -31.5q-9 -12 0 -21q2 -2 6 -10t9 -10q3 6 17 24t18 30l3 3q8 8 15.5 17.5t14.5 21t12 19.5t12.5 21.5t11.5 20.5q35 61 49 90q7 15 18 54q1 5 2.5 13t3 15.5t3.5 13.5
t3.5 13.5t3.5 14.5t4 12q2 4 2 15.5t6 12.5q-1 6 2 15.5t3 12.5q3 30 15 53q6 12 14 35t12 32q3 7 11.5 24t12.5 27q3 6 38 90q40 96 56 127q9 17 17 23q12 11 24 0q7 -8 19 -10q10 -1 21 -19q0 -2 2.5 -6.5t4 -6.5t4 -5t5 -5t6 -3t8.5 -1q3 0 6 -7q1 -1 3 -8zM105 425
q7 27 20 39q10 10 8 17q5 6 8.5 22t10.5 22q1 0 0.5 3t-0.5 4q5 17 8 23q4 9 29 74q3 8 7 18t7 18t6.5 17.5t6.5 17.5q3 7 7 17t8 19t6 17q1 5 9.5 23.5t9.5 29.5q7 4 4 17q-1 3 -7 5.5t-8 4.5q-3 -5 -4 -5q-37 -93 -37 -95q-20 -48 -33 -85q-4 -10 -16.5 -28t-20.5 -23
q-4 -2 -6 -8q-2 -5 -7 -16.5t-7 -17.5q-8 -30 -15 -41q-5 -8 -9 -18t-6.5 -17.5t-5.5 -19.5t-5 -18q-14 -46 -18 -66q-1 -5 -7.5 -33.5t-8.5 -44.5q-5 -37 -5 -40q-3 -7 -3.5 -21t-0.5 -19h18q0 2 2.5 6t2.5 5q2 12 7 34t7 31q2 12 6 26.5t9 31t8 26.5q2 7 4.5 15.5
t5.5 17.5zM374 308q3 4 3.5 8t0.5 7t-0.5 8t-0.5 9l-13.5 -13.5t-3.5 -8t-3.5 -8t-3.5 -8t-3 -8.5t-3 -8t-2.5 -8t-2 -8.5t-1.5 -9t-1 -9t0 -8.5q0 -8 -0.5 -59t4.5 -59q0 -2 3.5 -13.5t3.5 -18.5q3 3 3 10v12v12q0 4 -2.5 11.5t-2.5 11.5q1 8 3 25t2.5 24t-0.5 24q0 2 2 6
q1 1 1 2q1 5 6 10.5t4 8.5q0 7 4 23.5t2 25.5q-1 7 1 9z" />
    <glyph glyph-name="U" unicode="&#xdb;" horiz-adv-x="562" 
d="M643 840q1 -2 6.5 -3t5.5 -6q0 -3 -1 -6t-3 -6.5t-3 -5.5q-11 -22 -31 -81q-3 -10 -52 -162q-18 -55 -18 -56q-14 -51 -15 -54q-3 -10 -26 -86q-14 -48 -16 -71q-1 -7 -5.5 -23t-4.5 -25q-6 -4 -3 -19q1 -4 -2.5 -10t-3.5 -9q2 -12 -1.5 -34.5t-3 -34t0.5 -34v-34.5
q2 -18 10 -54q1 -5 10 -15q7 -8 16 -17q9 -8 6 -14q-7 -13 -17 -13q-6 0 -12.5 1t-15 3.5t-11.5 2.5q-13 3 -44 25q-15 10 -41 37q-36 36 -43 88q-4 29 -3 31q0 5 -3.5 15t-2.5 16q1 2 1 33q-3 0 -5.5 -1t-4 -2.5t-3 -4t-2.5 -4t-2 -4t-2 -3.5q-10 -23 -32.5 -67t-32.5 -66
q-18 -35 -48 -59q-28 -21 -47 -8q-44 9 -90 43q-32 22 -51 72q-1 3 1 6q7 10 3 36q-4 24 -4 30.5t5 31.5v6v6v15t4 21q2 5 2 16t2 17q2 4 3 9t1 12t1 10q0 1 7 31q0 2 3 16.5t5 21.5q7 26 10 41q0 4 1.5 9.5t2.5 9.5t2.5 9.5t2.5 9.5q11 41 24 82q14 46 17 54q7 16 18 53
q5 16 6 38q1 16 9 34q5 11 20.5 49t26.5 58q1 9 8.5 24t9.5 21v5.5v6.5t1.5 6t4.5 5q0 6 5 7t7 -2q10 -9 22 -9q3 0 6.5 -3.5t7.5 -7t8 -5.5q1 0 1 -15q0 -21 -1 -23q-6 -9 4 -11h2q2 -1 9.5 -0.5t9.5 0.5q23 -2 23 -24q0 -29 -16 -78q-2 -7 -41 -120q-15 -46 -20 -59
q-2 -8 -6.5 -23.5t-6.5 -22.5q-13 -39 -14 -44q-1 -2 -7.5 -27.5t-11.5 -37.5q-3 -9 -13 -49q-1 -4 -4 -14t-4.5 -18t-1.5 -15q-6 -5 -4 -19q0 -4 -3 -9t-3 -8q1 -6 0 -12.5t-2.5 -14t-2.5 -11.5q-1 -7 -4 -23t-4 -25v-49v-10q-1 -6 7 -11q7 -3 11 7q2 5 5 10t5.5 9t6.5 9.5
t6 9.5l3 6t3.5 6.5t4 5.5t4.5 5q4 3 8.5 10.5t9.5 9.5q-13 -32 -24 -49q-4 -7 -15.5 -27.5t-18.5 -31.5q-9 -12 0 -21q2 -2 6 -10t9 -10q3 6 17 24t18 30l3 3q8 8 15.5 17.5t14.5 21t12 19.5t12.5 21.5t11.5 20.5q35 61 49 90q7 15 18 54q1 5 2.5 13t3 15.5t3.5 13.5
t3.5 13.5t3.5 14.5t4 12q2 4 2 15.5t6 12.5q-1 6 2 15.5t3 12.5q3 30 15 53q6 12 14 35t12 32q3 7 11.5 24t12.5 27q3 6 38 90q40 96 56 127q9 17 17 23q12 11 24 0q7 -8 19 -10q10 -1 21 -19q0 -2 2.5 -6.5t4 -6.5t4 -5t5 -5t6 -3t8.5 -1q3 0 6 -7q1 -1 3 -8zM105 425
q7 27 20 39q10 10 8 17q5 6 8.5 22t10.5 22q1 0 0.5 3t-0.5 4q5 17 8 23q4 9 29 74q3 8 7 18t7 18t6.5 17.5t6.5 17.5q3 7 7 17t8 19t6 17q1 5 9.5 23.5t9.5 29.5q7 4 4 17q-1 3 -7 5.5t-8 4.5q-3 -5 -4 -5q-37 -93 -37 -95q-20 -48 -33 -85q-4 -10 -16.5 -28t-20.5 -23
q-4 -2 -6 -8q-2 -5 -7 -16.5t-7 -17.5q-8 -30 -15 -41q-5 -8 -9 -18t-6.5 -17.5t-5.5 -19.5t-5 -18q-14 -46 -18 -66q-1 -5 -7.5 -33.5t-8.5 -44.5q-5 -37 -5 -40q-3 -7 -3.5 -21t-0.5 -19h18q0 2 2.5 6t2.5 5q2 12 7 34t7 31q2 12 6 26.5t9 31t8 26.5q2 7 4.5 15.5
t5.5 17.5zM374 308q3 4 3.5 8t0.5 7t-0.5 8t-0.5 9l-13.5 -13.5t-3.5 -8t-3.5 -8t-3.5 -8t-3 -8.5t-3 -8t-2.5 -8t-2 -8.5t-1.5 -9t-1 -9t0 -8.5q0 -8 -0.5 -59t4.5 -59q0 -2 3.5 -13.5t3.5 -18.5q3 3 3 10v12v12q0 4 -2.5 11.5t-2.5 11.5q1 8 3 25t2.5 24t-0.5 24q0 2 2 6
q1 1 1 2q1 5 6 10.5t4 8.5q0 7 4 23.5t2 25.5q-1 7 1 9z" />
    <glyph glyph-name="U" unicode="&#xda;" horiz-adv-x="562" 
d="M643 840q1 -2 6.5 -3t5.5 -6q0 -3 -1 -6t-3 -6.5t-3 -5.5q-11 -22 -31 -81q-3 -10 -52 -162q-18 -55 -18 -56q-14 -51 -15 -54q-3 -10 -26 -86q-14 -48 -16 -71q-1 -7 -5.5 -23t-4.5 -25q-6 -4 -3 -19q1 -4 -2.5 -10t-3.5 -9q2 -12 -1.5 -34.5t-3 -34t0.5 -34v-34.5
q2 -18 10 -54q1 -5 10 -15q7 -8 16 -17q9 -8 6 -14q-7 -13 -17 -13q-6 0 -12.5 1t-15 3.5t-11.5 2.5q-13 3 -44 25q-15 10 -41 37q-36 36 -43 88q-4 29 -3 31q0 5 -3.5 15t-2.5 16q1 2 1 33q-3 0 -5.5 -1t-4 -2.5t-3 -4t-2.5 -4t-2 -4t-2 -3.5q-10 -23 -32.5 -67t-32.5 -66
q-18 -35 -48 -59q-28 -21 -47 -8q-44 9 -90 43q-32 22 -51 72q-1 3 1 6q7 10 3 36q-4 24 -4 30.5t5 31.5v6v6v15t4 21q2 5 2 16t2 17q2 4 3 9t1 12t1 10q0 1 7 31q0 2 3 16.5t5 21.5q7 26 10 41q0 4 1.5 9.5t2.5 9.5t2.5 9.5t2.5 9.5q11 41 24 82q14 46 17 54q7 16 18 53
q5 16 6 38q1 16 9 34q5 11 20.5 49t26.5 58q1 9 8.5 24t9.5 21v5.5v6.5t1.5 6t4.5 5q0 6 5 7t7 -2q10 -9 22 -9q3 0 6.5 -3.5t7.5 -7t8 -5.5q1 0 1 -15q0 -21 -1 -23q-6 -9 4 -11h2q2 -1 9.5 -0.5t9.5 0.5q23 -2 23 -24q0 -29 -16 -78q-2 -7 -41 -120q-15 -46 -20 -59
q-2 -8 -6.5 -23.5t-6.5 -22.5q-13 -39 -14 -44q-1 -2 -7.5 -27.5t-11.5 -37.5q-3 -9 -13 -49q-1 -4 -4 -14t-4.5 -18t-1.5 -15q-6 -5 -4 -19q0 -4 -3 -9t-3 -8q1 -6 0 -12.5t-2.5 -14t-2.5 -11.5q-1 -7 -4 -23t-4 -25v-49v-10q-1 -6 7 -11q7 -3 11 7q2 5 5 10t5.5 9t6.5 9.5
t6 9.5l3 6t3.5 6.5t4 5.5t4.5 5q4 3 8.5 10.5t9.5 9.5q-13 -32 -24 -49q-4 -7 -15.5 -27.5t-18.5 -31.5q-9 -12 0 -21q2 -2 6 -10t9 -10q3 6 17 24t18 30l3 3q8 8 15.5 17.5t14.5 21t12 19.5t12.5 21.5t11.5 20.5q35 61 49 90q7 15 18 54q1 5 2.5 13t3 15.5t3.5 13.5
t3.5 13.5t3.5 14.5t4 12q2 4 2 15.5t6 12.5q-1 6 2 15.5t3 12.5q3 30 15 53q6 12 14 35t12 32q3 7 11.5 24t12.5 27q3 6 38 90q40 96 56 127q9 17 17 23q12 11 24 0q7 -8 19 -10q10 -1 21 -19q0 -2 2.5 -6.5t4 -6.5t4 -5t5 -5t6 -3t8.5 -1q3 0 6 -7q1 -1 3 -8zM105 425
q7 27 20 39q10 10 8 17q5 6 8.5 22t10.5 22q1 0 0.5 3t-0.5 4q5 17 8 23q4 9 29 74q3 8 7 18t7 18t6.5 17.5t6.5 17.5q3 7 7 17t8 19t6 17q1 5 9.5 23.5t9.5 29.5q7 4 4 17q-1 3 -7 5.5t-8 4.5q-3 -5 -4 -5q-37 -93 -37 -95q-20 -48 -33 -85q-4 -10 -16.5 -28t-20.5 -23
q-4 -2 -6 -8q-2 -5 -7 -16.5t-7 -17.5q-8 -30 -15 -41q-5 -8 -9 -18t-6.5 -17.5t-5.5 -19.5t-5 -18q-14 -46 -18 -66q-1 -5 -7.5 -33.5t-8.5 -44.5q-5 -37 -5 -40q-3 -7 -3.5 -21t-0.5 -19h18q0 2 2.5 6t2.5 5q2 12 7 34t7 31q2 12 6 26.5t9 31t8 26.5q2 7 4.5 15.5
t5.5 17.5zM374 308q3 4 3.5 8t0.5 7t-0.5 8t-0.5 9l-13.5 -13.5t-3.5 -8t-3.5 -8t-3.5 -8t-3 -8.5t-3 -8t-2.5 -8t-2 -8.5t-1.5 -9t-1 -9t0 -8.5q0 -8 -0.5 -59t4.5 -59q0 -2 3.5 -13.5t3.5 -18.5q3 3 3 10v12v12q0 4 -2.5 11.5t-2.5 11.5q1 8 3 25t2.5 24t-0.5 24q0 2 2 6
q1 1 1 2q1 5 6 10.5t4 8.5q0 7 4 23.5t2 25.5q-1 7 1 9z" />
    <glyph glyph-name="U" unicode="&#xd9;" horiz-adv-x="562" 
d="M643 840q1 -2 6.5 -3t5.5 -6q0 -3 -1 -6t-3 -6.5t-3 -5.5q-11 -22 -31 -81q-3 -10 -52 -162q-18 -55 -18 -56q-14 -51 -15 -54q-3 -10 -26 -86q-14 -48 -16 -71q-1 -7 -5.5 -23t-4.5 -25q-6 -4 -3 -19q1 -4 -2.5 -10t-3.5 -9q2 -12 -1.5 -34.5t-3 -34t0.5 -34v-34.5
q2 -18 10 -54q1 -5 10 -15q7 -8 16 -17q9 -8 6 -14q-7 -13 -17 -13q-6 0 -12.5 1t-15 3.5t-11.5 2.5q-13 3 -44 25q-15 10 -41 37q-36 36 -43 88q-4 29 -3 31q0 5 -3.5 15t-2.5 16q1 2 1 33q-3 0 -5.5 -1t-4 -2.5t-3 -4t-2.5 -4t-2 -4t-2 -3.5q-10 -23 -32.5 -67t-32.5 -66
q-18 -35 -48 -59q-28 -21 -47 -8q-44 9 -90 43q-32 22 -51 72q-1 3 1 6q7 10 3 36q-4 24 -4 30.5t5 31.5v6v6v15t4 21q2 5 2 16t2 17q2 4 3 9t1 12t1 10q0 1 7 31q0 2 3 16.5t5 21.5q7 26 10 41q0 4 1.5 9.5t2.5 9.5t2.5 9.5t2.5 9.5q11 41 24 82q14 46 17 54q7 16 18 53
q5 16 6 38q1 16 9 34q5 11 20.5 49t26.5 58q1 9 8.5 24t9.5 21v5.5v6.5t1.5 6t4.5 5q0 6 5 7t7 -2q10 -9 22 -9q3 0 6.5 -3.5t7.5 -7t8 -5.5q1 0 1 -15q0 -21 -1 -23q-6 -9 4 -11h2q2 -1 9.5 -0.5t9.5 0.5q23 -2 23 -24q0 -29 -16 -78q-2 -7 -41 -120q-15 -46 -20 -59
q-2 -8 -6.5 -23.5t-6.5 -22.5q-13 -39 -14 -44q-1 -2 -7.5 -27.5t-11.5 -37.5q-3 -9 -13 -49q-1 -4 -4 -14t-4.5 -18t-1.5 -15q-6 -5 -4 -19q0 -4 -3 -9t-3 -8q1 -6 0 -12.5t-2.5 -14t-2.5 -11.5q-1 -7 -4 -23t-4 -25v-49v-10q-1 -6 7 -11q7 -3 11 7q2 5 5 10t5.5 9t6.5 9.5
t6 9.5l3 6t3.5 6.5t4 5.5t4.5 5q4 3 8.5 10.5t9.5 9.5q-13 -32 -24 -49q-4 -7 -15.5 -27.5t-18.5 -31.5q-9 -12 0 -21q2 -2 6 -10t9 -10q3 6 17 24t18 30l3 3q8 8 15.5 17.5t14.5 21t12 19.5t12.5 21.5t11.5 20.5q35 61 49 90q7 15 18 54q1 5 2.5 13t3 15.5t3.5 13.5
t3.5 13.5t3.5 14.5t4 12q2 4 2 15.5t6 12.5q-1 6 2 15.5t3 12.5q3 30 15 53q6 12 14 35t12 32q3 7 11.5 24t12.5 27q3 6 38 90q40 96 56 127q9 17 17 23q12 11 24 0q7 -8 19 -10q10 -1 21 -19q0 -2 2.5 -6.5t4 -6.5t4 -5t5 -5t6 -3t8.5 -1q3 0 6 -7q1 -1 3 -8zM105 425
q7 27 20 39q10 10 8 17q5 6 8.5 22t10.5 22q1 0 0.5 3t-0.5 4q5 17 8 23q4 9 29 74q3 8 7 18t7 18t6.5 17.5t6.5 17.5q3 7 7 17t8 19t6 17q1 5 9.5 23.5t9.5 29.5q7 4 4 17q-1 3 -7 5.5t-8 4.5q-3 -5 -4 -5q-37 -93 -37 -95q-20 -48 -33 -85q-4 -10 -16.5 -28t-20.5 -23
q-4 -2 -6 -8q-2 -5 -7 -16.5t-7 -17.5q-8 -30 -15 -41q-5 -8 -9 -18t-6.5 -17.5t-5.5 -19.5t-5 -18q-14 -46 -18 -66q-1 -5 -7.5 -33.5t-8.5 -44.5q-5 -37 -5 -40q-3 -7 -3.5 -21t-0.5 -19h18q0 2 2.5 6t2.5 5q2 12 7 34t7 31q2 12 6 26.5t9 31t8 26.5q2 7 4.5 15.5
t5.5 17.5zM374 308q3 4 3.5 8t0.5 7t-0.5 8t-0.5 9l-13.5 -13.5t-3.5 -8t-3.5 -8t-3.5 -8t-3 -8.5t-3 -8t-2.5 -8t-2 -8.5t-1.5 -9t-1 -9t0 -8.5q0 -8 -0.5 -59t4.5 -59q0 -2 3.5 -13.5t3.5 -18.5q3 3 3 10v12v12q0 4 -2.5 11.5t-2.5 11.5q1 8 3 25t2.5 24t-0.5 24q0 2 2 6
q1 1 1 2q1 5 6 10.5t4 8.5q0 7 4 23.5t2 25.5q-1 7 1 9z" />
    <glyph glyph-name="V" unicode="V" horiz-adv-x="474" 
d="M562 875q0 -2 5.5 -20t4.5 -28q-1 -7 -0.5 -19t-0.5 -19q-4 -28 -5 -33q-4 -14 -10.5 -43.5t-10.5 -43.5q-3 -10 -7 -23t-8 -25.5t-7 -22.5t-6.5 -21.5t-8.5 -25t-7 -21.5q-4 -10 -11.5 -28t-10.5 -24q-7 -18 -16 -38t-19 -42.5t-16 -37.5q-16 -37 -59 -119
q-33 -63 -76 -127q-17 -25 -38 -48q-41 -45 -98 -60q-30 -8 -50 4q-2 2 -6 4.5t-6.5 4t-6.5 4t-6.5 4.5t-5.5 4.5t-5 5t-4.5 6t-4 7t-11.5 10.5q-29 19 -30 43q0 3 -11 23q-13 24 -12 47v19q0 2 -0.5 8t-0.5 10t2 7t2.5 6.5t0.5 6v6t1 5.5q1 4 4 11.5t4 11.5q2 7 5.5 21
t4.5 19t27 90q20 69 21 74q8 33 21 61q3 7 6 15t5 14t4.5 14.5t5.5 14.5q15 40 20 59q4 15 20 58q4 11 12 36t13 38q14 36 19 51q16 47 18 51q8 15 6 28q0 7 5.5 10.5t11.5 0.5q2 -1 5.5 -2.5t6 -3t3.5 -4.5q3 -3 7 -6t9 -6.5t7 -5.5q11 -9 17.5 -15.5t12 -18t5.5 -24.5
q0 -36 -22 -101q-4 -11 -10 -28.5t-11 -32.5t-10 -28q-4 -12 -14 -35t-13 -33q-4 -9 -13.5 -36t-15.5 -42q-8 -19 -21 -55t-18 -48q-18 -45 -27 -83q-5 -22 -19 -65q-4 -13 -3.5 -16.5t-2.5 -9t-3 -8.5q2 -3 1 -10.5t-1.5 -11t-2.5 -10.5t-3 -10q-2 -10 -2.5 -27.5
t-0.5 -22.5q-1 -6 8 -13q15 7 19 11q5 5 14 13.5t16 15.5t13 14q25 31 52 73q41 62 66 113q6 11 15 26t17 29.5t14 26.5q16 35 34 78q7 16 19 47.5t19 46.5q12 30 31 87.5t23 68.5q8 24 12 52q3 25 7 32q2 4 1.5 15t3.5 16q2 2 2 6.5t-0.5 10t-0.5 8.5q1 20 23 23v-43
q10 6 10 15q0 7 9 9q1 1 6 -2t6 2l5 -5q6 -13 15 -15q5 -1 6 -6zM36 148v24q-4 1 -7.5 -0.5t-5 -3t-0.5 -2.5q2 -2 2.5 -4.5t0.5 -4.5v-4v-4q1 -4 5 -4q5 0 5 3z" />
    <glyph glyph-name="W" unicode="W" horiz-adv-x="947" 
d="M998 724q0 -10 0.5 -40t-0.5 -40q-4 -37 -13 -72q-3 -10 -6.5 -22.5t-8 -26l-7.5 -22.5q-6 -19 -35 -81q-23 -47 -63 -110q-22 -34 -44 -60q-23 -27 -49 -59q-16 -19 -33 -37t-45.5 -45.5t-35.5 -34.5q-32 -32 -94 -56q-44 -17 -85 -11q-6 1 -12.5 3.5t-11.5 5l-12 6
t-12 5.5q-1 5 -4 8.5t-9.5 7.5t-7.5 5q-19 15 -22 19q-19 21 -25 57q3 -15 5 -18.5t12 -8.5q-5 7 -10 21q-4 11 -7 6q-7 -13 -11 2v3t-0.5 2.5t-1.5 2.5q-11 37 -10 76q0 1 4 10.5t-1 12.5q-17 -7 -22 -17q-24 -44 -66 -99q-8 -12 -19.5 -24t-25 -25t-21.5 -22
q-5 -5 -26 -12q-18 -6 -42.5 -2.5t-36.5 13.5q-2 9 -13.5 16.5t-13.5 10.5q-9 11 -19 10q-13 -1 -26 17q-16 24 -15 47q2 20 0 40q-1 10 1.5 22t5.5 25t4 22q5 4 5 14v11q12 43 36 115q4 10 8.5 22t10 26t8.5 23q3 6 18 41.5t21 54.5q1 3 2.5 6t3.5 6t3 6q19 45 85 173
q30 59 49 86q2 3 17 28q11 21 9 34q-1 5 0 9q1 5 5 6.5t9 -0.5l2 -1t4 -1q7 -2 8 -4t-2 -9q-2 -5 1 -7q3 -3 7 -1q15 8 20 7q14 -1 16 -9q3 -11 11 -10q6 1 9 -7q8 -21 9 -37q1 -9 -6.5 -20.5t-21 -34t-20.5 -33.5q-8 -13 -15.5 -27t-17 -34.5t-13.5 -27.5q-23 -46 -50 -108
q-4 -10 -10.5 -24.5t-12.5 -27.5t-10 -24q-5 -14 -15.5 -42t-15.5 -41q-15 -41 -29 -85q-5 -18 -12 -51q-1 -3 -3 -10t-2.5 -10t0.5 -11q-5 -3 -4.5 -14t-4.5 -15v-11q0 -40 -1 -43v-16.5t3.5 -16t10.5 -14.5q23 12 36 23q8 7 16 16t13.5 15.5t14.5 18t12.5 16.5t13 19
t12.5 18q11 16 69 112q16 26 28 49q4 8 19 36t22 43q18 41 21 53q5 16 16 26q15 14 13 30q3 0 4 1.5t1 4v3.5q4 3 7.5 7.5t4.5 7t3.5 10t3.5 8.5q3 0 4 1.5t0.5 4.5t-0.5 4q3 0 4 1.5t1 4v3.5q5 0 5 6v3q1 0 2 0.5t2 2.5h-3l-1 -1q-5 -2 -5 -8v-1.5v-1.5q-3 0 -4 -1.5
t-1 -4.5v-3q-3 -1 -4 -2t-0.5 -4t0.5 -4l-5 -2.5l-5 -2.5q4 17 23 50l3 3t3 4q28 57 40 75q4 7 10 19.5t12 23t12 18.5q1 0 1 2l1 2q6 5 12 13.5t9 13.5t8.5 17.5t7.5 15.5q4 9 0 13q-2 3 2 10t7 7q6 1 9.5 -3t4.5 -11v-23q7 3 9 12q2 8 5.5 9.5t11.5 -3.5q25 -12 35 -37
q7 -20 0 -50q-4 -15 -10 -30.5t-15 -35t-12 -29.5q-8 -17 -24.5 -50t-23.5 -50q-4 -11 -33 -71q-3 -6 -8 -14.5t-9.5 -16t-7.5 -15.5q-4 -9 -9 -21t-9.5 -21.5t-9.5 -21.5t-9 -21q-19 -48 -28 -78q-6 -22 -19 -70q-11 -41 -8 -104q2 -34 13 -51q7 -9 10.5 -11t12.5 1
q3 1 8.5 2.5t10 3.5t7.5 5q4 4 8 0q-4 -5 -5 -6q8 -5 15 1q55 41 72 53q39 27 95 87q24 25 47 60q1 2 1.5 5t0.5 4q10 2 9 14q11 4 14 23q11 5 14 24q6 1 10 8q1 2 2.5 6.5t3.5 7.5t5 5q2 2 2.5 4.5t0.5 6v4.5l4 2q4 4 5 7q54 107 74 166q16 48 25 90q1 5 2 16.5t3 16.5
q3 7 3.5 14.5t-0.5 16.5t0 14q-11 -29 -12 -44q-2 -11 -15 -62q-11 -43 -15 -50q-2 -5 -6.5 -23t-11.5 -26q-3 -12 -7 -24t-10.5 -26.5t-10 -22t-13 -25.5t-11.5 -23q-4 -8 -4 -17q-16 -15 -24 -42q-10 -5 -14 -24q-11 -4 -14 -23q-10 -3 -9 -14q-6 -3 -10.5 -8t-8.5 -12
t-8 -10q-2 -3 -7.5 -10t-9.5 -11q-8 -9 -26 -26.5t-26 -26.5q-6 -5 -12 -4q0 3 2 5t5 4.5t4 4.5q52 56 93 123q50 83 76 140q8 17 32 76q5 13 13.5 37t12.5 34q6 15 13.5 43t10.5 39q1 2 1 11t4 13q-1 10 2.5 28t2.5 26q-1 14 -7 25q-5 10 -18 16q-50 23 -87 23h-9.5h-9.5
q-16 -1 -28 11l-14 14q1 3 5 6q5 7 3 10q-1 0 -8 3q4 8 18.5 13.5t18.5 11.5q-14 3 -27 -2q-3 -1 -7.5 -3.5t-8.5 -4t-8 -1.5q5 21 26 22q50 2 97 -16q24 -10 81 -47q22 -14 46 -46q17 -22 25 -48q7 -24 6 -33zM606 829q-3 0 -2 -3l1 -6q4 2 3 4l11 24q-11 -3 -11 -19h-2z
M483 655l-2 -2q1 0 3 -2l2 2zM14 115q1 8 0.5 10.5t-6.5 6.5q-4 -8 6 -17zM28 129q-5 -7 3 -14q-1 12 -3 14zM30 113q1 0 1 -1v3q-2 0 -1 -2zM33 111l-1 1zM31 115q1 -1 4 -3l-3 3q-1 1 -1 0zM477 641q-1 0 0 2l1 1q0 -2 -1 -3zM608 827v2q1 -1 0 -2zM608 825v2v-2z" />
    <glyph glyph-name="X" unicode="X" horiz-adv-x="408" 
d="M484 852l2 2q0 -1 -1 -2h-1zM563 855q4 -14 0 -20q-2 -3 -3.5 -13t-7.5 -13t-11 -12t-8 -11q-4 -4 -11.5 -12t-11.5 -11q-8 -7 -16 -15.5t-15.5 -17t-14.5 -16t-15 -17t-15 -16.5q-18 -19 -58 -67q-51 -60 -70 -84q-2 -3 -14.5 -17.5t-17.5 -23.5q-4 -7 -5.5 -9.5
t-3.5 -8t-1 -10.5t3 -11q2 -4 3 -9.5t1 -12.5t1 -11q3 -22 7 -37q0 -1 1.5 -14.5t6.5 -19.5q0 -12 10 -59q15 -66 18 -75q24 -75 28 -87q10 -27 20 -37q2 -2 4.5 -8t3.5 -7q-6 -1 -7 -1q-2 0 -6.5 2.5t-7.5 2.5t-8 -3q-3 -3 -11 -4t-12 -5q-9 -7 -28 1q-40 16 -61 58
q-14 28 -37 95q-19 58 -23 89q-3 2 -5 10.5t-8 11.5q-10 -11 -11 -12q-8 -18 -27 -51t-27 -48q-4 -9 -15 -28.5t-15 -29.5q-24 -51 -43 -98q-6 -15 -9.5 -26.5t-3.5 -23.5q0 -4 -3 -10.5t-3 -11.5q1 -2 -8.5 -4t-11.5 0q-10 9 -13 23h-24q-19 24 -12 52q9 38 15 57
q14 41 70 154q26 52 46 85q5 9 18.5 32.5t21.5 35.5q4 6 11 19.5t11 20.5q7 11 3 17q-6 6 -4 19q1 17 0.5 23t-3 22t-3.5 21q-6 55 -9 74q-3 12 -3.5 27t0 27t-0.5 26q-1 13 -3 42t-2.5 41.5t0.5 41.5q0 3 -3 11q-11 34 -2 56q6 14 11.5 16.5t18.5 -2.5q16 -6 21 -5
q17 2 41 -15q26 -17 31 -26q15 -24 13.5 -39.5t2.5 -46.5t2 -48q6 -13 5 -59q0 -4 3 -10.5t2 -10.5q0 -2 1 -22q6 -2 11 5q8 11 25.5 32t24.5 31q9 13 27 31q8 8 26 30t30 32q22 20 24 37q0 2 7 8l37 37q14 12 17 33q1 12 8 15q7 2 16 -8q5 -5 4 -10q0 -2 1 -4t4 -2
q15 1 14 -18l1 -5q15 2 20 -14q4 -13 10 -14q9 -1 10 -7zM453 820q1 0 2 1t1 3l-3 -1q-3 -2 0 -3zM486 852l3 3l-3 -1q1 1 1 2q-2 -2 -3 -2v-2q-4 0 -4 -5q-5 1 -5 -4q-5 0 -5 -5q-5 0 -4 -5q-5 1 -5 -4q-4 0 -5 -5q5 0 5 5q5 -1 5 4q4 0 4 5q5 0 5 5q5 0 5 4q3 0 5 5h1z
" />
    <glyph glyph-name="Y" unicode="Y" horiz-adv-x="585" 
d="M691 848q7 -10 0 -15q-8 -32 -39 -118q-44 -123 -67 -195q-29 -92 -31 -100q-3 -12 -8 -27t-9.5 -30t-7.5 -26q-3 -10 -11 -37t-11 -42q-1 -8 -6.5 -22.5t-6.5 -20.5q-6 -25 -19 -65q-2 -7 -4.5 -18t-5 -20.5t-6.5 -16.5q-2 -6 -6.5 -24.5t-10.5 -26.5q0 -9 -2.5 -19
t-6.5 -21.5t-5 -17.5q-2 -8 -5.5 -18l-7 -20t-5.5 -18q-3 -10 -19 -60q-3 -9 -7 -19.5l-8 -21t-7 -18.5q-17 -51 -55 -100q-53 -68 -114 -83q-43 -11 -91 5q-13 5 -35 20t-25 17q-20 12 -43 31.5t-33 30t-37 38.5q-26 27 -37 64q-6 22 9 42q3 5 9 6q2 0 5 -2t5 -2.5t5 3.5
q1 0 3.5 -3t3.5 -5q14 -34 38 -67q25 -34 41 -44q8 -6 24 -18.5t22 -17.5q22 -16 53 -14l4 2q48 24 73 57q21 27 50 88q23 46 47 123q19 59 25 77q9 27 18 58q7 26 13 39q3 6 -1 12q-5 -4 -9.5 -10t-9 -14t-7.5 -11q-7 -10 -20.5 -33t-22.5 -34q-24 -33 -52 -51
q-2 -2 -11.5 -4.5t-18.5 -4.5t-12 -2h-30q-10 -1 -11 -2q-13 -9 -16 -7q-4 2 -16.5 5t-18.5 8q-39 32 -57 58q-5 8 -9 17t-8.5 21t-6.5 18q-1 1 -1 4t-1 4q-3 4 -5.5 9t-3.5 8t-2 9.5t-1 8.5t-0.5 9.5t-0.5 9.5q-1 22 6 64q4 19 13 53q1 5 3 16.5t4.5 20t6.5 16.5q-1 6 1 13
t5 14.5t4 12.5q1 8 6.5 20.5t6.5 18.5q3 18 8.5 35.5t14 41t12.5 34.5q7 21 32 87q8 20 27.5 67t29.5 72q1 5 7.5 24t11.5 29q4 9 10 27t9 26q3 5 3.5 11t0 13t-0.5 10q1 21 7 29h11q12 1 15 -8q3 -13 17 -11q16 2 20 -14q7 -26 26 -41q35 -29 31 -77q-1 -19 -9 -48
q-21 -73 -24 -82q-5 -16 -16.5 -46t-13.5 -35t-9.5 -24.5t-11.5 -30.5q-3 -9 -10 -29t-10 -31q-8 -27 -20 -59q-5 -12 -16 -47t-19 -54q1 -7 -0.5 -13t-5.5 -15t-5 -12l-12 -40q-2 -10 -7 -30.5t-8 -31.5q-3 -10 -6.5 -33.5t-7.5 -35.5v-10q3 -2 6.5 -2.5t5.5 0.5t5.5 3.5
t4.5 2.5q24 14 51 46q17 21 50 69q54 78 119 176q4 5 10 17t7 13q15 26 33 33q12 4 18 21q6 19 19.5 59.5l20.5 61.5q4 12 -2 17q-5 3 -6 9t1 9q6 7 4 20q-1 3 0 11.5t1 11t2.5 10.5t3.5 10.5t4 10.5t4 10q7 22 28 71q22 49 24 53q5 8 12 26t12 26q18 30 20 40q2 9 12.5 13
t11.5 5q2 1 8 -4q12 -9 14 -9q4 2 7.5 0.5t5.5 -3.5l5 -5t6 -3q16 -6 12 -23q-2 -11 6 -19q3 -2 5 -5.5t4 -7.5t4 -7z" />
    <glyph glyph-name="Y" unicode="&#xdd;" horiz-adv-x="585" 
d="M691 848q7 -10 0 -15q-8 -32 -39 -118q-44 -123 -67 -195q-29 -92 -31 -100q-3 -12 -8 -27t-9.5 -30t-7.5 -26q-3 -10 -11 -37t-11 -42q-1 -8 -6.5 -22.5t-6.5 -20.5q-6 -25 -19 -65q-2 -7 -4.5 -18t-5 -20.5t-6.5 -16.5q-2 -6 -6.5 -24.5t-10.5 -26.5q0 -9 -2.5 -19
t-6.5 -21.5t-5 -17.5q-2 -8 -5.5 -18l-7 -20t-5.5 -18q-3 -10 -19 -60q-3 -9 -7 -19.5l-8 -21t-7 -18.5q-17 -51 -55 -100q-53 -68 -114 -83q-43 -11 -91 5q-13 5 -35 20t-25 17q-20 12 -43 31.5t-33 30t-37 38.5q-26 27 -37 64q-6 22 9 42q3 5 9 6q2 0 5 -2t5 -2.5t5 3.5
q1 0 3.5 -3t3.5 -5q14 -34 38 -67q25 -34 41 -44q8 -6 24 -18.5t22 -17.5q22 -16 53 -14l4 2q48 24 73 57q21 27 50 88q23 46 47 123q19 59 25 77q9 27 18 58q7 26 13 39q3 6 -1 12q-5 -4 -9.5 -10t-9 -14t-7.5 -11q-7 -10 -20.5 -33t-22.5 -34q-24 -33 -52 -51
q-2 -2 -11.5 -4.5t-18.5 -4.5t-12 -2h-30q-10 -1 -11 -2q-13 -9 -16 -7q-4 2 -16.5 5t-18.5 8q-39 32 -57 58q-5 8 -9 17t-8.5 21t-6.5 18q-1 1 -1 4t-1 4q-3 4 -5.5 9t-3.5 8t-2 9.5t-1 8.5t-0.5 9.5t-0.5 9.5q-1 22 6 64q4 19 13 53q1 5 3 16.5t4.5 20t6.5 16.5q-1 6 1 13
t5 14.5t4 12.5q1 8 6.5 20.5t6.5 18.5q3 18 8.5 35.5t14 41t12.5 34.5q7 21 32 87q8 20 27.5 67t29.5 72q1 5 7.5 24t11.5 29q4 9 10 27t9 26q3 5 3.5 11t0 13t-0.5 10q1 21 7 29h11q12 1 15 -8q3 -13 17 -11q16 2 20 -14q7 -26 26 -41q35 -29 31 -77q-1 -19 -9 -48
q-21 -73 -24 -82q-5 -16 -16.5 -46t-13.5 -35t-9.5 -24.5t-11.5 -30.5q-3 -9 -10 -29t-10 -31q-8 -27 -20 -59q-5 -12 -16 -47t-19 -54q1 -7 -0.5 -13t-5.5 -15t-5 -12l-12 -40q-2 -10 -7 -30.5t-8 -31.5q-3 -10 -6.5 -33.5t-7.5 -35.5v-10q3 -2 6.5 -2.5t5.5 0.5t5.5 3.5
t4.5 2.5q24 14 51 46q17 21 50 69q54 78 119 176q4 5 10 17t7 13q15 26 33 33q12 4 18 21q6 19 19.5 59.5l20.5 61.5q4 12 -2 17q-5 3 -6 9t1 9q6 7 4 20q-1 3 0 11.5t1 11t2.5 10.5t3.5 10.5t4 10.5t4 10q7 22 28 71q22 49 24 53q5 8 12 26t12 26q18 30 20 40q2 9 12.5 13
t11.5 5q2 1 8 -4q12 -9 14 -9q4 2 7.5 0.5t5.5 -3.5l5 -5t6 -3q16 -6 12 -23q-2 -11 6 -19q3 -2 5 -5.5t4 -7.5t4 -7z" />
    <glyph glyph-name="Z" unicode="Z" horiz-adv-x="455" 
d="M585 740q2 -19 -18 -49q-34 -52 -65 -86q-1 -1 -18 -18.5t-24 -27.5q-10 -13 -30.5 -33.5t-29.5 -31.5q-8 -9 -18 -20t-21.5 -22.5t-18.5 -19.5q-63 -73 -67 -76q-20 -22 -68 -82q-49 -62 -66 -86q-24 -34 -39 -61q-2 -4 -3.5 -10t-2.5 -11.5t-4 -9.5q-2 -3 1 -6.5
t8 -4.5h23h38q7 -1 18 -0.5t18.5 1.5t18.5 2.5t18 2.5q35 3 40 4q9 5 52 4.5t52 -0.5q6 1 13.5 -1t15 -3.5t14.5 -0.5q3 0 21 -11q7 -4 5 -9q-3 -12 13 -28l5 -5q-8 -17 -30 -12q-17 4 -23 4t-23 -4h-13.5t-17.5 -5q-8 1 -26 -2.5t-28 -2.5q-7 2 -18 -1t-15 -4q-3 0 -10.5 1
t-13 0t-10.5 -5h-2q-11 2 -32 -1.5t-29 -3.5q-6 0 -31 -0.5t-30 1.5q-21 2 -39 14q-22 14 -27 21q-4 6 -15.5 13.5t-15.5 12.5q-22 24 -20 48q1 2 0.5 14.5t-0.5 14.5q0 5 6.5 12t7.5 10q15 38 28 54q2 3 10.5 15t14.5 17t13.5 16.5t12.5 15.5q10 11 3 17q-2 3 1 5
q5 5 13 18.5t16 18.5q-18 10 -22 18q2 8 15 24q21 26 79 89q35 38 39 43l212 212q6 6 12.5 13.5t11 14t11.5 15.5t12 15q-10 3 -21.5 4.5t-23 2t-18.5 2.5q-13 3 -34 2.5t-33 0.5q-16 -4 -34 -4.5t-40 0t-34 0.5q-15 -1 -20 3q-6 5 -17 -1t-21 2q-4 3 -13 6.5t-12 5.5
q-13 7 0 16q3 2 6 5l7 7q-2 1 -8.5 4.5t-10.5 3.5q-3 0 -11 8q-4 5 -2.5 11.5t6.5 7.5q3 0 8.5 2.5t8.5 2.5q7 0 38.5 5.5t49.5 4.5q15 4 33 4.5t39.5 0t33.5 -0.5q20 1 36 -4q4 -1 16 -1t17 -4q2 -1 5 -1t7 0.5t6 0.5q3 0 7.5 -2.5t7.5 -2.5q35 -7 56 -18q31 -17 43 -44
q4 -10 4 -17q0 -15 6 -19q3 -1 3.5 -3.5t0 -4.5t0.5 -4q1 -4 -2.5 -8t-3.5 -7q1 -3 3.5 -7t2.5 -7zM194 849q7 -5 15 0q-7 4 -15 0zM487 624q6 6 1 11q-14 -16 -51 -52.5t-55 -57.5q-14 -18 -44 -47.5t-41 -41.5q-6 -7 -16.5 -20.5t-20 -23.5t-19.5 -18l-3 -3
q-1 -5 -3.5 -8.5t-7 -7t-5.5 -6.5q-1 0 -7 -8.5t-10 -12.5q-7 -6 -18 -20.5t-13 -16.5q-21 -25 -22 -26q-31 -44 -34 -47q-8 -9 -20.5 -30t-20.5 -30q-4 -6 2 -12q5 4 5 5q25 38 35 53q7 11 22.5 31t17.5 23q12 16 64 79q8 9 27.5 31t29.5 35q6 7 13.5 15t16 17t13.5 15
q12 15 36.5 39.5t32.5 33.5q13 14 30.5 32.5t34.5 36.5t30 32zM495 641q3 2 7 6.5t6 6.5q-12 -1 -13 -13z" />
    <glyph glyph-name="bracketleft" unicode="[" horiz-adv-x="417" 
d="M239 29q0 -2 5 -3.5t5 -6.5q-4 -3 -12 -6.5t-10 -4.5q-14 -8 -21 -6q-6 2 -16.5 -1t-14.5 -3q-28 1 -33 -1q-28 -8 -55 18q-1 2 -8 7q-28 18 -24 41q1 5 0.5 22t3.5 21q1 3 -3 7q-10 7 -5 16q3 4 3.5 12t1.5 10q3 7 5.5 26.5t7.5 29.5q1 10 2.5 20t6.5 26.5t6 19.5
q6 25 20 77q3 9 8.5 29.5t8.5 31.5q3 10 10.5 40t12.5 47q5 16 10 54q0 2 3.5 12t1.5 17q0 2 7 8q3 2 8 -2q2 -2 4.5 -2h6h5.5h5t6 -0.5t5 -2t4 -4.5q2 -3 11 -2q18 1 53.5 -2.5t52.5 -2.5q4 0 8 -0.5t7.5 -2.5t7 -3.5t7 -4t6.5 -3.5q7 -3 2 -11q-6 -10 -3 -17h-96h-14
q-9 -1 -15.5 -7t-6.5 -15q-2 -11 -4.5 -23t-7 -27.5t-6.5 -22.5q-9 -36 -20 -81q-2 -7 -6 -20t-7 -24t-4 -21q-4 -22 -11 -50q-17 -65 -18 -67.5t-1 -13t-5 -15.5q1 -7 -2.5 -21t-2.5 -22q1 -3 -2 -10t-3 -11q2 -16 -3 -22q-5 -4 5 -10q3 -1 5 -1q36 -1 45 0q8 1 22.5 -2
t20.5 -3q1 -2 7.5 -3.5t6.5 -7.5zM150 451l4 12q5 -1 5 4q0 4 8 35q2 5 3 12.5t3 14t4 11.5q4 6 -2 7t-7 -4q-3 -26 -6 -37q-10 -38 -10 -57l2 3v11h-2q-2 -2 -2 -12z" />
    <glyph glyph-name="backslash" unicode="\" horiz-adv-x="391" 
d="M58 542q0 9 -8 19q12 -2 24 6q13 8 28 1q1 -1 5.5 -2t6.5 -2t4.5 -3.5t2.5 -7.5q6 -6 10.5 -15.5t9 -21t7.5 -17.5t7 -19t7.5 -19.5t37.5 -90.5q2 -7 9 -25t11 -27q2 -3 11.5 -24.5t13.5 -33.5q5 -18 21 -57q32 -78 34 -82q1 -1 12 -33t25 -46q8 -8 1 -16q-4 -1 -8.5 4
t-6.5 5q-19 -1 -15 -23q-39 -1 -55 9q-1 1 -4.5 2.5t-4 2.5t-1.5 2.5t0 4t3 5.5q1 1 -2 13q-5 16 -17 44.5t-16 40.5q-24 66 -25 69q-5 11 -14 36.5t-14 38.5q-17 42 -24 61l-4 12q-13 27 -14 36q0 6 -6.5 17.5t-3.5 18.5q-7 7 -11 23t-7 22q-12 20 -14 38q-1 4 -6.5 6.5
t-4.5 8.5q1 2 -0.5 5t-3 7t-1.5 7z" />
    <glyph glyph-name="bracketright" unicode="]" horiz-adv-x="416" 
d="M197 547q-8 1 -17.5 9t-16.5 10q28 13 30 15q8 4 15 4q6 0 29.5 3t36.5 2q27 10 56 -19q2 -2 7 -5q28 -17 24 -43q-1 -5 0 -21t-3 -20q-2 -4 2 -7q8 -5 5 -14q-4 -14 -8.5 -40.5t-8.5 -39.5q-4 -14 -10 -47q-3 -12 -9 -33t-8 -31q-4 -16 -13.5 -48.5t-12.5 -48.5
q-4 -19 -13.5 -53t-13.5 -49q-5 -21 -5 -30q0 -5 -3.5 -16t-2.5 -18q1 -5 -3.5 -7t-10.5 1q-1 2 -9.5 1.5l-8.5 -0.5q-1 0 -5 0.5t-5.5 0.5t-4 1.5t-4.5 4.5q-2 4 -8 3h-2h-2q-18 -2 -52.5 2t-51.5 3q-5 -1 -18.5 4.5t-18.5 9.5q-6 4 -2 9.5t5 18.5h94h16q7 1 14 7t7 12
q0 9 2 18t5.5 21t4.5 17q1 4 3.5 17t5.5 21.5t7 15.5q2 17 10 48t9 36q13 58 15 65q2 8 5 19.5l6 23t6 20.5q7 25 11 54q0 3 4.5 29t4.5 40q0 1 1 4q2 9 0 12t-10 4h-16h-17q-26 0 -47 4zM266 137l-4 -12q-5 1 -5 -4q1 -5 -8 -36q0 -1 -3 -16t-7 -22q-3 -6 3 -7q5 -1 6 5
q4 26 6 36q10 39 10 58l-2 -3v-11h2q3 2 2 12z" />
    <glyph glyph-name="asciicircum" unicode="^" horiz-adv-x="283" 
d="M230 510q8 -6 -1 -16q-11 -12 -19 -6q-1 1 -7.5 6t-8 6.5t-7 5.5t-8 6.5t-6 7t-6.5 8.5t-5 8q-3 6 -9 7t-10 -3q-18 -21 -27 -36q-8 -12 -11.5 -14.5t-20.5 -7.5q-1 1 -2 7t-7 9q-19 8 -2 28q25 31 48 53q5 5 4 7t-9 6l3 2q40 -9 57 -18q15 -8 19 -17q2 -6 8.5 -13.5
t9.5 -11.5q8 -16 17 -24zM50 516q0 5 1.5 9t3.5 6t4.5 5t3.5 5q1 -6 -0.5 -10t-6 -8t-6.5 -7zM78 557q1 -12 -9 -14q-2 11 9 14zM92 571q0 -5 -5 -5q0 5 5 5zM87 566q1 -5 -4 -4q-1 4 4 4zM83 562q0 -5 -5 -5q0 5 5 5zM69 543q0 -5 -5 -5q0 5 5 5z" />
    <glyph glyph-name="underscore" unicode="_" horiz-adv-x="442" 
d="M62 3q-1 2 -3.5 3l-5 2t-3.5 3q5 11 12 10h19q2 1 7 1t9 0.5t8 2.5q13 7 27 -2q2 -2 6 -2q15 3 61 -5q10 -5 74 -4t74 0q21 -1 24 -5q1 -3 10 -12t11 -16q0 -2 -1.5 -6t-4 -8t-3.5 -5q-5 -5 -17 -5h-31.5t-31.5 1q-1 0 -3.5 -0.5t-3.5 -0.5t-3 0.5t-2.5 2.5t-1.5 5
q0 2 -10 2h-75h-4h-4.5t-3 -2t-1.5 -6q-18 -5 -28 2q-3 1 -6.5 1.5t-6 0.5t-2.5 -1q-3 -8 -8 -10t-13 -0.5t-11 1.5q-13 -1 -20 3.5t-18 17.5q-4 5 -8 7q-16 6 -6 16q1 1 -2 8z" />
    <glyph glyph-name="grave" unicode="`" horiz-adv-x="171" 
d="M69 481v37q-2 -3 -4.5 -12.5t-6.5 -14.5q-1 1 -2.5 4t-1.5 3.5t-1.5 3.5t-1.5 4t-0.5 3.5t-0.5 4t0.5 3.5l1 4t2.5 4q1 2 1 14v16.5v16.5q0 3 4 4q3 0 4.5 -1t0.5 -3q-1 -10 8 -23q9 7 10 8q3 1 8 0.5t5 -1.5q1 -4 5 -6.5t7.5 -4.5t3.5 -5q0 -7 5 -19t5 -19q1 -9 -6 -33
q-4 -12 -13 -14q-10 -2 -11 -8q-2 3 -3 7t-1.5 6.5t-3 5t-7.5 2.5q-3 0 -5 4t-2 9z" />
    <glyph glyph-name="a" unicode="a" horiz-adv-x="426" 
d="M466 650q25 -15 30 -29.5t-4 -42.5q-63 -182 -83 -242q-25 -77 -35 -115q-4 -18 -18 -49.5t-18 -41.5q-25 -69 -9 -127q4 -13 -2 -17q-7 -4 -14 6q-5 7 -20.5 12.5t-20.5 12.5q-25 36 -24 73q2 33 -31 27q-7 -1 -17 -2.5t-18 -2.5t-16.5 -2.5t-17.5 -3.5t-16 -5
q-26 -9 -35 -35t6 -49q8 -16 5 -19.5t-19 -3.5q-54 -2 -80 34.5t-8 87.5q23 60 56.5 116.5t83.5 129.5q71 102 123 164l3 3.5t4.5 5t2.5 5t1 7.5l-32 -16h-11l3 11q37 47 70 79.5t72 55.5q24 14 51 -3q6 -4 19 -12t19 -12zM305 380q1 4 17 65q-6 -1 -7 -1q-76 -92 -172 -264
q-10 -19 14 -25q10 -3 35.5 -0.5t34.5 1.5q23 -2 27 23q11 76 51 201z" />
    <glyph glyph-name="a" unicode="&#xe5;" horiz-adv-x="426" 
d="M466 650q25 -15 30 -29.5t-4 -42.5q-63 -182 -83 -242q-25 -77 -35 -115q-4 -18 -18 -49.5t-18 -41.5q-25 -69 -9 -127q4 -13 -2 -17q-7 -4 -14 6q-5 7 -20.5 12.5t-20.5 12.5q-25 36 -24 73q2 33 -31 27q-7 -1 -17 -2.5t-18 -2.5t-16.5 -2.5t-17.5 -3.5t-16 -5
q-26 -9 -35 -35t6 -49q8 -16 5 -19.5t-19 -3.5q-54 -2 -80 34.5t-8 87.5q23 60 56.5 116.5t83.5 129.5q71 102 123 164l3 3.5t4.5 5t2.5 5t1 7.5l-32 -16h-11l3 11q37 47 70 79.5t72 55.5q24 14 51 -3q6 -4 19 -12t19 -12zM305 380q1 4 17 65q-6 -1 -7 -1q-76 -92 -172 -264
q-10 -19 14 -25q10 -3 35.5 -0.5t34.5 1.5q23 -2 27 23q11 76 51 201z" />
    <glyph glyph-name="a" unicode="&#xe4;" horiz-adv-x="426" 
d="M466 650q25 -15 30 -29.5t-4 -42.5q-63 -182 -83 -242q-25 -77 -35 -115q-4 -18 -18 -49.5t-18 -41.5q-25 -69 -9 -127q4 -13 -2 -17q-7 -4 -14 6q-5 7 -20.5 12.5t-20.5 12.5q-25 36 -24 73q2 33 -31 27q-7 -1 -17 -2.5t-18 -2.5t-16.5 -2.5t-17.5 -3.5t-16 -5
q-26 -9 -35 -35t6 -49q8 -16 5 -19.5t-19 -3.5q-54 -2 -80 34.5t-8 87.5q23 60 56.5 116.5t83.5 129.5q71 102 123 164l3 3.5t4.5 5t2.5 5t1 7.5l-32 -16h-11l3 11q37 47 70 79.5t72 55.5q24 14 51 -3q6 -4 19 -12t19 -12zM305 380q1 4 17 65q-6 -1 -7 -1q-76 -92 -172 -264
q-10 -19 14 -25q10 -3 35.5 -0.5t34.5 1.5q23 -2 27 23q11 76 51 201z" />
    <glyph glyph-name="a" unicode="&#xe3;" horiz-adv-x="426" 
d="M466 650q25 -15 30 -29.5t-4 -42.5q-63 -182 -83 -242q-25 -77 -35 -115q-4 -18 -18 -49.5t-18 -41.5q-25 -69 -9 -127q4 -13 -2 -17q-7 -4 -14 6q-5 7 -20.5 12.5t-20.5 12.5q-25 36 -24 73q2 33 -31 27q-7 -1 -17 -2.5t-18 -2.5t-16.5 -2.5t-17.5 -3.5t-16 -5
q-26 -9 -35 -35t6 -49q8 -16 5 -19.5t-19 -3.5q-54 -2 -80 34.5t-8 87.5q23 60 56.5 116.5t83.5 129.5q71 102 123 164l3 3.5t4.5 5t2.5 5t1 7.5l-32 -16h-11l3 11q37 47 70 79.5t72 55.5q24 14 51 -3q6 -4 19 -12t19 -12zM305 380q1 4 17 65q-6 -1 -7 -1q-76 -92 -172 -264
q-10 -19 14 -25q10 -3 35.5 -0.5t34.5 1.5q23 -2 27 23q11 76 51 201z" />
    <glyph glyph-name="a" unicode="&#xe2;" horiz-adv-x="426" 
d="M466 650q25 -15 30 -29.5t-4 -42.5q-63 -182 -83 -242q-25 -77 -35 -115q-4 -18 -18 -49.5t-18 -41.5q-25 -69 -9 -127q4 -13 -2 -17q-7 -4 -14 6q-5 7 -20.5 12.5t-20.5 12.5q-25 36 -24 73q2 33 -31 27q-7 -1 -17 -2.5t-18 -2.5t-16.5 -2.5t-17.5 -3.5t-16 -5
q-26 -9 -35 -35t6 -49q8 -16 5 -19.5t-19 -3.5q-54 -2 -80 34.5t-8 87.5q23 60 56.5 116.5t83.5 129.5q71 102 123 164l3 3.5t4.5 5t2.5 5t1 7.5l-32 -16h-11l3 11q37 47 70 79.5t72 55.5q24 14 51 -3q6 -4 19 -12t19 -12zM305 380q1 4 17 65q-6 -1 -7 -1q-76 -92 -172 -264
q-10 -19 14 -25q10 -3 35.5 -0.5t34.5 1.5q23 -2 27 23q11 76 51 201z" />
    <glyph glyph-name="a" unicode="&#xe1;" horiz-adv-x="426" 
d="M466 650q25 -15 30 -29.5t-4 -42.5q-63 -182 -83 -242q-25 -77 -35 -115q-4 -18 -18 -49.5t-18 -41.5q-25 -69 -9 -127q4 -13 -2 -17q-7 -4 -14 6q-5 7 -20.5 12.5t-20.5 12.5q-25 36 -24 73q2 33 -31 27q-7 -1 -17 -2.5t-18 -2.5t-16.5 -2.5t-17.5 -3.5t-16 -5
q-26 -9 -35 -35t6 -49q8 -16 5 -19.5t-19 -3.5q-54 -2 -80 34.5t-8 87.5q23 60 56.5 116.5t83.5 129.5q71 102 123 164l3 3.5t4.5 5t2.5 5t1 7.5l-32 -16h-11l3 11q37 47 70 79.5t72 55.5q24 14 51 -3q6 -4 19 -12t19 -12zM305 380q1 4 17 65q-6 -1 -7 -1q-76 -92 -172 -264
q-10 -19 14 -25q10 -3 35.5 -0.5t34.5 1.5q23 -2 27 23q11 76 51 201z" />
    <glyph glyph-name="a" unicode="&#xe0;" horiz-adv-x="426" 
d="M466 650q25 -15 30 -29.5t-4 -42.5q-63 -182 -83 -242q-25 -77 -35 -115q-4 -18 -18 -49.5t-18 -41.5q-25 -69 -9 -127q4 -13 -2 -17q-7 -4 -14 6q-5 7 -20.5 12.5t-20.5 12.5q-25 36 -24 73q2 33 -31 27q-7 -1 -17 -2.5t-18 -2.5t-16.5 -2.5t-17.5 -3.5t-16 -5
q-26 -9 -35 -35t6 -49q8 -16 5 -19.5t-19 -3.5q-54 -2 -80 34.5t-8 87.5q23 60 56.5 116.5t83.5 129.5q71 102 123 164l3 3.5t4.5 5t2.5 5t1 7.5l-32 -16h-11l3 11q37 47 70 79.5t72 55.5q24 14 51 -3q6 -4 19 -12t19 -12zM305 380q1 4 17 65q-6 -1 -7 -1q-76 -92 -172 -264
q-10 -19 14 -25q10 -3 35.5 -0.5t34.5 1.5q23 -2 27 23q11 76 51 201z" />
    <glyph glyph-name="b" unicode="b" horiz-adv-x="430" 
d="M330 353q59 -31 70 -84.5t-25 -117.5q-53 -101 -172 -146q-61 -22 -112 12q-16 11 -24 8q-7 -4 -14 -4t-11.5 1t-10 6.5t-7.5 8.5t-8 11q-28 37 -25 74q24 146 57 232q69 185 110 266q3 5 8 18q10 25 15 27t27 -14q29 -21 52 -7q64 39 117 -19q51 -55 24 -128
q-22 -59 -73 -115q-17 -19 2 -29zM31 158q16 69 25 106q-1 0 -3.5 0.5t-4.5 0.5q-16 -40 -25 -105q1 0 4 -1t4 -1zM156 382q-4 -9 0 -13q4 -5 14 2q101 71 151 170q0 1 2.5 5.5t3 6t2.5 5.5t2.5 6.5t1 6t0 6t-2 5.5t-3.5 6q-8 6 -12.5 5.5t-16 -4t-18.5 -2.5q20 8 21 8
q2 1 9.5 3t10.5 4.5t1 8.5q-2 4 -4 6t-5.5 2t-6.5 -0.5t-7.5 -1.5t-6.5 -2q-22 -4 -35 -17.5t-26 -39.5q-22 -45 -75 -176zM80 122q-7 -33 1 -41t42 -2h1q78 43 133 102q39 43 51 91q4 20 -1.5 26.5t-25.5 4.5q-37 -3 -89 -29q-31 -15 -52 -10q-26 6 -33 -23q-3 -14 -13 -55
t-14 -64zM328 251q3 19 -4 28q-10 -23 -10 -24q-60 -129 -190 -176q2 -4 5.5 -5.5t5.5 -1t7 3t6 2.5q85 37 146 104q26 29 34 69z" />
    <glyph glyph-name="c" unicode="c" horiz-adv-x="404" 
d="M456 595q8 -7 8.5 -18t-8.5 -22q-9 -10 -17.5 -24t-12.5 -21.5t-14 -28.5t-11 -24q0 -1 -1 -3q-3 -7 -5 -10t-7.5 -6.5t-11.5 0.5q-25 10 -21 33q1 4 13 53q-1 0 -2 0.5t-2 0.5q-3 -8 -9.5 -26.5t-10.5 -28.5q-6 14 0 39l2.5 10t3 11.5t2.5 10.5q6 35 -20 46
q-17 8 -35 -20q-101 -154 -142 -351q-13 -60 -12 -102q0 -2 -0.5 -7t0 -7.5t1 -6.5t3 -6.5t5.5 -4.5l7.5 -1.5t6 2t5.5 4t5.5 5.5t4.5 5q55 51 124 150q1 1 2.5 3.5t2.5 4t3 3.5t5 3.5l7 3.5q-80 -128 -163 -204q13 3 29 18q67 65 143 182q2 2 5.5 8t5.5 9.5t6 7.5t7.5 5.5
t8.5 1.5t10 -4q4 -2 6 -4t3 -5t1.5 -5.5t-0.5 -6t-1.5 -6t-2.5 -6.5t-3 -5.5t-3.5 -6t-2.5 -5.5q-9 -15 -17.5 -29t-20 -31.5t-18 -27t-22 -30t-19.5 -26t-23 -30t-20 -26.5q-17 -22 -41 -35q-40 -22 -73 -3q-61 37 -82.5 85t-6.5 123q42 216 150 382q27 43 55 73
q20 22 61 4q44 -18 56 -30q5 -5 17 -6.5t21 -5.5t11 -16q1 -3 9 1l1 1q4 2 7 3t6 0.5t5.5 -0.5t5.5 -2t4.5 -2.5t4.5 -3.5l4 -4l4 -4t3 -4z" />
    <glyph glyph-name="c" unicode="&#xe7;" horiz-adv-x="404" 
d="M456 595q8 -7 8.5 -18t-8.5 -22q-9 -10 -17.5 -24t-12.5 -21.5t-14 -28.5t-11 -24q0 -1 -1 -3q-3 -7 -5 -10t-7.5 -6.5t-11.5 0.5q-25 10 -21 33q1 4 13 53q-1 0 -2 0.5t-2 0.5q-3 -8 -9.5 -26.5t-10.5 -28.5q-6 14 0 39l2.5 10t3 11.5t2.5 10.5q6 35 -20 46
q-17 8 -35 -20q-101 -154 -142 -351q-13 -60 -12 -102q0 -2 -0.5 -7t0 -7.5t1 -6.5t3 -6.5t5.5 -4.5l7.5 -1.5t6 2t5.5 4t5.5 5.5t4.5 5q55 51 124 150q1 1 2.5 3.5t2.5 4t3 3.5t5 3.5l7 3.5q-80 -128 -163 -204q13 3 29 18q67 65 143 182q2 2 5.5 8t5.5 9.5t6 7.5t7.5 5.5
t8.5 1.5t10 -4q4 -2 6 -4t3 -5t1.5 -5.5t-0.5 -6t-1.5 -6t-2.5 -6.5t-3 -5.5t-3.5 -6t-2.5 -5.5q-9 -15 -17.5 -29t-20 -31.5t-18 -27t-22 -30t-19.5 -26t-23 -30t-20 -26.5q-17 -22 -41 -35q-40 -22 -73 -3q-61 37 -82.5 85t-6.5 123q42 216 150 382q27 43 55 73
q20 22 61 4q44 -18 56 -30q5 -5 17 -6.5t21 -5.5t11 -16q1 -3 9 1l1 1q4 2 7 3t6 0.5t5.5 -0.5t5.5 -2t4.5 -2.5t4.5 -3.5l4 -4l4 -4t3 -4z" />
    <glyph glyph-name="d" unicode="d" horiz-adv-x="514" 
d="M424 638q51 -36 78 -74.5t23 -87.5q0 -42 -8 -72q-73 -260 -290 -393q-63 -39 -130 -19q-41 13 -70 54.5t-24 83.5q15 123 75 278q55 143 116 270q6 13 12 13q8 -1 9 -14q1 -11 9 -7q3 2 6 3t6 1h5t4.5 -1.5t4 -2t4.5 -3t3.5 -3t4 -3.5t3.5 -4q22 -20 55 -12q22 5 36.5 7
t34 -0.5t33.5 -13.5zM437 535q2 12 -5 18.5t-21 7.5q-70 5 -131 -18q-24 -8 -33 -31q-7 -19 -25.5 -66.5t-28.5 -73t-24 -64.5t-24 -72q-18 -58 -32 -137q-4 -17 3 -21q6 -5 21 5q33 22 48 34q133 111 226 311q22 49 26 107z" />
    <glyph glyph-name="e" unicode="e" horiz-adv-x="359" 
d="M356 668q2 0 9.5 -1.5t10.5 -2.5t7.5 -3.5t6.5 -6.5t1 -10q0 -4 -2.5 -7t-5 -4.5t-6.5 -2t-7.5 -0.5h-8.5h-7h-23t-17 -1.5t-14.5 -3t-10.5 -5.5t-9 -8t-7 -13t-8 -17.5t-8 -22.5q-6 -17 -27.5 -77.5t-31 -88t-24 -74.5t-24.5 -86q-6 -24 -1 -30.5t33 -10.5q-9 -7 -9 -8
q-12 -2 -21.5 -6.5t-15.5 -13t-10 -13t-6.5 -17.5t-3.5 -17t-3 -20t-2 -18q-2 -17 6 -24t25 -2t48 14.5t42 13.5q19 5 25 6q17 3 26 -19q4 -9 -12 -15l-4 -2q-6 -3 -60.5 -25t-80.5 -38q-16 -9 -36 1q-105 53 -93 170q6 49 20.5 107t25.5 91.5t35 102.5q11 31 24.5 63
t33.5 76t28 62q9 19 22 26.5t36 3.5q18 -4 64 -10.5t70 -12.5z" />
    <glyph glyph-name="e" unicode="&#xeb;" horiz-adv-x="359" 
d="M356 668q2 0 9.5 -1.5t10.5 -2.5t7.5 -3.5t6.5 -6.5t1 -10q0 -4 -2.5 -7t-5 -4.5t-6.5 -2t-7.5 -0.5h-8.5h-7h-23t-17 -1.5t-14.5 -3t-10.5 -5.5t-9 -8t-7 -13t-8 -17.5t-8 -22.5q-6 -17 -27.5 -77.5t-31 -88t-24 -74.5t-24.5 -86q-6 -24 -1 -30.5t33 -10.5q-9 -7 -9 -8
q-12 -2 -21.5 -6.5t-15.5 -13t-10 -13t-6.5 -17.5t-3.5 -17t-3 -20t-2 -18q-2 -17 6 -24t25 -2t48 14.5t42 13.5q19 5 25 6q17 3 26 -19q4 -9 -12 -15l-4 -2q-6 -3 -60.5 -25t-80.5 -38q-16 -9 -36 1q-105 53 -93 170q6 49 20.5 107t25.5 91.5t35 102.5q11 31 24.5 63
t33.5 76t28 62q9 19 22 26.5t36 3.5q18 -4 64 -10.5t70 -12.5z" />
    <glyph glyph-name="e" unicode="&#xea;" horiz-adv-x="359" 
d="M356 668q2 0 9.5 -1.5t10.5 -2.5t7.5 -3.5t6.5 -6.5t1 -10q0 -4 -2.5 -7t-5 -4.5t-6.5 -2t-7.5 -0.5h-8.5h-7h-23t-17 -1.5t-14.5 -3t-10.5 -5.5t-9 -8t-7 -13t-8 -17.5t-8 -22.5q-6 -17 -27.5 -77.5t-31 -88t-24 -74.5t-24.5 -86q-6 -24 -1 -30.5t33 -10.5q-9 -7 -9 -8
q-12 -2 -21.5 -6.5t-15.5 -13t-10 -13t-6.5 -17.5t-3.5 -17t-3 -20t-2 -18q-2 -17 6 -24t25 -2t48 14.5t42 13.5q19 5 25 6q17 3 26 -19q4 -9 -12 -15l-4 -2q-6 -3 -60.5 -25t-80.5 -38q-16 -9 -36 1q-105 53 -93 170q6 49 20.5 107t25.5 91.5t35 102.5q11 31 24.5 63
t33.5 76t28 62q9 19 22 26.5t36 3.5q18 -4 64 -10.5t70 -12.5z" />
    <glyph glyph-name="e" unicode="&#xe9;" horiz-adv-x="359" 
d="M356 668q2 0 9.5 -1.5t10.5 -2.5t7.5 -3.5t6.5 -6.5t1 -10q0 -4 -2.5 -7t-5 -4.5t-6.5 -2t-7.5 -0.5h-8.5h-7h-23t-17 -1.5t-14.5 -3t-10.5 -5.5t-9 -8t-7 -13t-8 -17.5t-8 -22.5q-6 -17 -27.5 -77.5t-31 -88t-24 -74.5t-24.5 -86q-6 -24 -1 -30.5t33 -10.5q-9 -7 -9 -8
q-12 -2 -21.5 -6.5t-15.5 -13t-10 -13t-6.5 -17.5t-3.5 -17t-3 -20t-2 -18q-2 -17 6 -24t25 -2t48 14.5t42 13.5q19 5 25 6q17 3 26 -19q4 -9 -12 -15l-4 -2q-6 -3 -60.5 -25t-80.5 -38q-16 -9 -36 1q-105 53 -93 170q6 49 20.5 107t25.5 91.5t35 102.5q11 31 24.5 63
t33.5 76t28 62q9 19 22 26.5t36 3.5q18 -4 64 -10.5t70 -12.5z" />
    <glyph glyph-name="e" unicode="&#xe8;" horiz-adv-x="359" 
d="M356 668q2 0 9.5 -1.5t10.5 -2.5t7.5 -3.5t6.5 -6.5t1 -10q0 -4 -2.5 -7t-5 -4.5t-6.5 -2t-7.5 -0.5h-8.5h-7h-23t-17 -1.5t-14.5 -3t-10.5 -5.5t-9 -8t-7 -13t-8 -17.5t-8 -22.5q-6 -17 -27.5 -77.5t-31 -88t-24 -74.5t-24.5 -86q-6 -24 -1 -30.5t33 -10.5q-9 -7 -9 -8
q-12 -2 -21.5 -6.5t-15.5 -13t-10 -13t-6.5 -17.5t-3.5 -17t-3 -20t-2 -18q-2 -17 6 -24t25 -2t48 14.5t42 13.5q19 5 25 6q17 3 26 -19q4 -9 -12 -15l-4 -2q-6 -3 -60.5 -25t-80.5 -38q-16 -9 -36 1q-105 53 -93 170q6 49 20.5 107t25.5 91.5t35 102.5q11 31 24.5 63
t33.5 76t28 62q9 19 22 26.5t36 3.5q18 -4 64 -10.5t70 -12.5z" />
    <glyph glyph-name="f" unicode="f" horiz-adv-x="401" 
d="M386 629q4 -2 15 -3t17.5 -3.5t6.5 -10.5q-1 -5 -3.5 -8.5t-7.5 -4.5t-9 -1.5t-11 -1t-9 -0.5q-48 -4 -77 -27.5t-43 -70.5q-7 -22 -17 -47t-23.5 -54t-20.5 -46q-8 -22 -3 -29t29 -5q22 1 72 -1q18 0 17 -12q-1 -8 -17 -8q-63 -2 -99 -16q-2 0 -6 -1t-6 -2t-3.5 -3.5
t-0.5 -6t4 -4.5t9 0.5l6 1.5q11 2 32.5 6.5t39 6.5t33.5 1h4.5t6 -0.5l4.5 -1.5t4.5 -2.5t1.5 -4.5t-1.5 -4.5t-3.5 -2t-4.5 -1t-5 0t-5.5 -0.5q-13 0 -26 -4t-29.5 -10t-25.5 -9q-2 -1 -6.5 -3t-8.5 -3t-7 -1q-17 1 -30 -4.5t-21.5 -16.5t-13.5 -21.5t-10 -27.5
q-1 -5 -10.5 -35.5t-13 -42t-8.5 -34t-7 -40.5q-1 -8 -5 -13t-12 -9.5t-11 -6.5q-3 -3 -6.5 -2t-5.5 3t-5 6t-5 5l-0.5 0.5t-0.5 1.5q-30 17 -43 40.5t-12.5 48.5t10.5 58q6 21 13 42.5t13.5 40t15.5 42t15.5 39t17 41t16.5 39t18 41t17 38.5t18.5 40.5t17.5 39.5
q20 44 24 70q6 44 55 47q9 1 18.5 3t21 5.5t17.5 5.5q52 12 84 1q-12 -3 -34.5 -6t-40.5 -7t-34 -12q4 -4 8 -5t6.5 -1t7 1.5t5.5 1.5q53 12 79 11q23 -2 26 -16q2 -7 -7.5 -9.5t-10.5 -5.5z" />
    <glyph glyph-name="g" unicode="g" horiz-adv-x="496" 
d="M569 630q8 -7 12 -13.5t1.5 -14.5t-3.5 -11t-8.5 -13.5t-8.5 -11.5q-18 -27 -58 -107q0 -2 -2.5 -6.5t-3.5 -7t-3.5 -6.5t-4.5 -5t-5.5 -2.5t-7.5 0.5q-26 7 -35 34q-2 8 -2.5 17t1 18t3.5 15.5t6 17t5 16.5q1 2 3 7t3.5 8t1 6.5t-3 6.5t-6 4.5t-7 0.5t-6.5 -1.5
t-7.5 -2.5t-5.5 -3q-34 -12 -67 -47q-135 -137 -203 -321q-22 -57 -17 -111q3 -36 37 -26q25 7 48.5 25t36.5 33.5t33 43.5q6 10 -8 13h-3q-13 3 -14 10q1 8 13 12q4 2 9.5 4.5t10 4t9.5 4t10 4.5q11 5 7 12q-3 5 -13 3q-4 -1 -10.5 -3t-12.5 -3.5t-11 -2.5q-28 -6 -29 3
q0 3 -3 12t-3 16t5 13q13 20 40 22q34 2 98 -8q19 -3 32.5 -20.5t10.5 -35.5q-1 -4 -4.5 -9t-8 -10t-6.5 -9q-40 -71 -65 -120q-26 -50 -75 -90q-35 -29 -85 -23.5t-79 41.5q-23 28 -40 47q-28 32 -39.5 63t-11.5 77q2 56 28 120q83 201 255 349q36 31 90 36q50 5 77 -30
q14 -18 22 -17.5t22 18.5q1 1 3 4t3 3.5t3.5 3t4 1.5t5.5 0q8 -2 9 -17q1 -10 11 -10q14 0 15 -20q0 -10 2 -11zM44 256q41 118 132 254q-106 -116 -132 -254zM343 646q8 3 34 12t41 14q-42 5 -75 -26z" />
    <glyph glyph-name="h" unicode="h" horiz-adv-x="489" 
d="M537 634q11 -30 -5 -73q-110 -288 -114 -299q-19 -52 -28.5 -80.5t-19 -74.5t-10.5 -85q0 -18 -22 -31q-3 -4 -7.5 -2.5t-6.5 3.5t-5 6t-5 5q-32 28 -46 50q-9 13 -12.5 26.5t-3 29.5t2.5 26t6 29q5 26 -0.5 31.5t-30.5 -0.5q-13 -4 -28.5 -8t-22 -5t-16 -4.5t-12 -4.5
t-8.5 -6t-7 -7.5t-5 -11t-5.5 -15.5t-7 -20.5t-9.5 -26.5q-2 -5 -5.5 -15t-5.5 -16.5t-6 -14t-10.5 -13.5t-14.5 -10q-15 -7 -17 0q-3 8 -9.5 13.5t-15 11.5t-12.5 10q-7 7 -13 17.5t-11.5 22.5t-9.5 18q-33 44 11 88q18 17 31.5 38.5t23.5 44t18 44t18 46.5t20 43
q18 32 35.5 67.5t40 83t32.5 68.5q1 2 11 24q0 2 1.5 8.5t4 10t8.5 3.5t8.5 -4t3 -11t2.5 -11q25 21 50 -4q27 -26 19 -64q-3 -14 -9 -30t-9 -23.5t-13.5 -29.5t-11.5 -24q-11 -25 -42 -91.5t-47 -102.5q-7 -16 -11 -29q-3 -12 2 -18t18 -3q44 9 62 14q29 8 40 39
q19 59 45 124t58 141t49 122q6 15 14 13q7 -2 7.5 -13t3.5 -15q17 14 36 6.5t28 -31.5z" />
    <glyph glyph-name="i" unicode="i" horiz-adv-x="241" 
d="M237 641q74 -16 45 -87q-94 -233 -125 -331q-3 -8 -10.5 -31.5t-10.5 -33.5t-8.5 -30.5t-8 -34.5t-4.5 -32t-2 -34q1 -8 -3.5 -12.5t-12 -8t-10.5 -6.5q-2 -3 -5.5 -2t-5 1.5t-4.5 4t-4 4.5q-35 31 -39 34q-32 23 -27 66q2 53 38 164q54 165 143 341q7 15 20 32
q11 17 22 2q4 -5 12 -6zM187 553q18 35 33 63l-2.5 1t-3.5 2q-5 -11 -15.5 -32t-15.5 -32z" />
    <glyph glyph-name="i" unicode="&#xef;" horiz-adv-x="241" 
d="M237 641q74 -16 45 -87q-94 -233 -125 -331q-3 -8 -10.5 -31.5t-10.5 -33.5t-8.5 -30.5t-8 -34.5t-4.5 -32t-2 -34q1 -8 -3.5 -12.5t-12 -8t-10.5 -6.5q-2 -3 -5.5 -2t-5 1.5t-4.5 4t-4 4.5q-35 31 -39 34q-32 23 -27 66q2 53 38 164q54 165 143 341q7 15 20 32
q11 17 22 2q4 -5 12 -6zM187 553q18 35 33 63l-2.5 1t-3.5 2q-5 -11 -15.5 -32t-15.5 -32z" />
    <glyph glyph-name="i" unicode="&#xee;" horiz-adv-x="241" 
d="M237 641q74 -16 45 -87q-94 -233 -125 -331q-3 -8 -10.5 -31.5t-10.5 -33.5t-8.5 -30.5t-8 -34.5t-4.5 -32t-2 -34q1 -8 -3.5 -12.5t-12 -8t-10.5 -6.5q-2 -3 -5.5 -2t-5 1.5t-4.5 4t-4 4.5q-35 31 -39 34q-32 23 -27 66q2 53 38 164q54 165 143 341q7 15 20 32
q11 17 22 2q4 -5 12 -6zM187 553q18 35 33 63l-2.5 1t-3.5 2q-5 -11 -15.5 -32t-15.5 -32z" />
    <glyph glyph-name="i" unicode="&#xed;" horiz-adv-x="241" 
d="M237 641q74 -16 45 -87q-94 -233 -125 -331q-3 -8 -10.5 -31.5t-10.5 -33.5t-8.5 -30.5t-8 -34.5t-4.5 -32t-2 -34q1 -8 -3.5 -12.5t-12 -8t-10.5 -6.5q-2 -3 -5.5 -2t-5 1.5t-4.5 4t-4 4.5q-35 31 -39 34q-32 23 -27 66q2 53 38 164q54 165 143 341q7 15 20 32
q11 17 22 2q4 -5 12 -6zM187 553q18 35 33 63l-2.5 1t-3.5 2q-5 -11 -15.5 -32t-15.5 -32z" />
    <glyph glyph-name="i" unicode="&#xec;" horiz-adv-x="241" 
d="M237 641q74 -16 45 -87q-94 -233 -125 -331q-3 -8 -10.5 -31.5t-10.5 -33.5t-8.5 -30.5t-8 -34.5t-4.5 -32t-2 -34q1 -8 -3.5 -12.5t-12 -8t-10.5 -6.5q-2 -3 -5.5 -2t-5 1.5t-4.5 4t-4 4.5q-35 31 -39 34q-32 23 -27 66q2 53 38 164q54 165 143 341q7 15 20 32
q11 17 22 2q4 -5 12 -6zM187 553q18 35 33 63l-2.5 1t-3.5 2q-5 -11 -15.5 -32t-15.5 -32z" />
    <glyph glyph-name="j" unicode="j" horiz-adv-x="376" 
d="M371 627q36 -59 19 -128q-68 -268 -226 -449q-34 -39 -62 -50q-45 -18 -70 26q-12 23 -27 38q-18 17 4 28q68 36 115 133q18 36 53.5 100.5t62.5 119t45 105.5q1 2 3 6.5t3 7t0.5 6t-3.5 6.5q-3 2 -6.5 2t-6 -1t-7 -3.5t-6.5 -3.5q-17 -8 -36.5 -20.5t-33 -22t-34.5 -25
t-32 -23.5t-17.5 -11t-16 -2t-17.5 12q-18 21 -18 33t19 28q6 5 9 13.5t6 16.5t9 14q16 12 35 24t43 26t37 22q2 -4 -2 -10t-1 -12q11 9 49 18.5t53 31.5q6 -12 27.5 -28t29.5 -28z" />
    <glyph glyph-name="k" unicode="k" horiz-adv-x="418" 
d="M295 419q-23 -22 -80 -89q-21 -25 -9 -52q24 -56 39 -87t40 -76.5t51 -80.5q11 -16 2 -30.5t-34 -18.5q-53 -6 -81 26q-40 46 -81 128q-1 1 -3.5 7.5t-5 9t-6.5 2.5q-12 0 -17 -20q-1 -5 -5 -20.5t-6 -21.5t-4.5 -19.5t-3.5 -22.5t-1 -20.5t2 -22.5q1 -5 -1 -9.5t-4 -6.5
t-8 -6q-14 -10 -26 -2q-48 35 -66.5 67t-8.5 86q10 49 45 155q81 239 140 361q8 15 9 17q2 2 5.5 11t7.5 13.5t11 3.5q6 0 5.5 -11t5.5 -17q1 0 2 1q19 18 33 7q19 -14 28 -36.5t2 -42.5q-3 -8 -38 -103q-11 -30 -12 -33q-1 -1 -1 -4q-5 -12 2 -16q2 -1 4.5 0t3.5 2l3.5 3.5
l3.5 3.5l168 150q17 15 20 17q3 1 8 6t8 7.5t8.5 2t10.5 -5.5q13 -11 12 -25.5t-13 -27.5z" />
    <glyph glyph-name="l" unicode="l" horiz-adv-x="277" 
d="M276 -37q5 -25 -2.5 -34.5t-32.5 -9.5q-65 -2 -124 -23q-51 -18 -71.5 1.5t-21.5 69.5q-1 35 -20 57q-22 26 -17 66q3 17 6 33.5t7.5 35t8 32t10 34.5t10 31.5t12 33.5t11 31t12 34t12.5 31q10 27 32.5 81t33.5 82q1 5 15 46.5t23 61.5q1 1 2.5 5t2.5 6t3.5 4t6.5 2
q12 0 12 -17q0 -9 10 -10q32 -4 47 -27t5 -55q-11 -34 -50 -137q-77 -201 -106 -325q-5 -21 -8 -34q-7 -36 0 -43t41 -3q54 8 98 -17q27 -15 32 -43zM183 581q-27 -63 -37 -86l6 -3q12 29 38 86z" />
    <glyph glyph-name="m" unicode="m" horiz-adv-x="638" 
d="M605 639q36 -23 43.5 -41.5t-6.5 -59.5q-85 -256 -106 -452q-3 -23 -2 -79q0 -20 -12 -26q-3 -3 -7 -1.5t-5.5 2.5t-5 4t-4.5 4q-30 24 -39 68q-16 75 9 202q6 31 9 46q2 17 -5 19q-3 3 -6 1t-3.5 -3l-2.5 -5t-3 -5q-75 -136 -109 -225q-6 -14 -10 -24q-8 -17 -22 -15
q-9 3 -15 1t-8 -13q-2 -13 -21 -6q-59 22 -55 94q6 -16 11 -28q-21 200 -3 371q-4 -1 -7 -3t-4.5 -4.5t-2 -4.5t-2 -5.5t-1.5 -4.5q-31 -85 -48.5 -138.5t-37.5 -130.5t-29 -144q-1 -9 -6 -14.5t-14 -9t-12 -5.5q-4 -4 -7.5 -2.5t-5 3.5l-4.5 6t-5 5q-3 3 -13 10
q-37 25 -44 43t3 61q39 180 125 406q2 7 8.5 22t9.5 23.5t6.5 21.5t4.5 24q2 17 14 20q10 3 14 -11v-3q2 -4 10 -5q33 -4 54.5 -29t22.5 -60q1 -39 2.5 -114.5t2.5 -110.5q1 -15 6 -89q1 -18 12 -32q16 33 17 34q55 124 134 237q7 10 9 11q27 16 48.5 43t43 61t38.5 52
q10 11 16.5 13t19.5 -5zM127 488q11 27 30 75q-1 0 -3.5 0.5t-4.5 1.5q-4 -13 -13 -38t-14 -37q1 -1 2.5 -1.5t2.5 -0.5z" />
    <glyph glyph-name="n" unicode="n" horiz-adv-x="511" 
d="M544 642q33 -32 13 -79q-11 -28 -34.5 -83.5t-42 -99.5t-33.5 -84q-66 -178 -85 -259q-1 -6 -5 -11t-10 -10t-9 -8q-5 -6 -9.5 -6.5t-7 1.5t-6.5 5t-7 4q-18 3 -32 10t-23.5 19t-15.5 21.5t-10.5 27t-6.5 27.5t-5 30q-5 32 -7 69t-3 80.5t-2 68.5q-1 2 -0.5 6.5t0.5 7
t-1.5 5t-5.5 3.5q-3 0 -4.5 -1t-2.5 -3.5t-2 -4.5t-2 -5t-1 -4q-6 -17 -14.5 -43t-14.5 -43.5t-14 -41.5t-14 -43.5t-12.5 -42.5t-11.5 -44q-16 -65 -10 -102q1 -9 -2.5 -14t-12.5 -12q-13 -9 -28 4q-28 24 -33 30q-41 41 -33 95q12 75 63 228q19 59 63.5 169.5t49.5 124.5
q4 11 10 12t8 -1.5t3 -9.5q1 -6 11 -7q46 -2 60 -50q11 -33 9 -81q-1 -27 -0.5 -47t2.5 -47t3.5 -47t3.5 -47t3 -47q0 -2 9 -45q1 -1 3 -1t3 -1q19 48 19 50q38 94 54.5 135.5t50 115.5t64.5 131q0 1 3.5 9.5t6.5 10.5t8 0q9 -4 0 -30q-1 -5 -7 -19t-8 -22q6 4 10.5 11
t9 16.5t6.5 13.5q16 28 39 5zM139 498q5 13 12 30l14 34t12 30q-1 1 -4 1.5t-4 1.5q-6 -16 -17.5 -47.5t-17.5 -47.5q1 0 2.5 -0.5t2.5 -1.5z" />
    <glyph glyph-name="n" unicode="&#xf1;" horiz-adv-x="511" 
d="M544 642q33 -32 13 -79q-11 -28 -34.5 -83.5t-42 -99.5t-33.5 -84q-66 -178 -85 -259q-1 -6 -5 -11t-10 -10t-9 -8q-5 -6 -9.5 -6.5t-7 1.5t-6.5 5t-7 4q-18 3 -32 10t-23.5 19t-15.5 21.5t-10.5 27t-6.5 27.5t-5 30q-5 32 -7 69t-3 80.5t-2 68.5q-1 2 -0.5 6.5t0.5 7
t-1.5 5t-5.5 3.5q-3 0 -4.5 -1t-2.5 -3.5t-2 -4.5t-2 -5t-1 -4q-6 -17 -14.5 -43t-14.5 -43.5t-14 -41.5t-14 -43.5t-12.5 -42.5t-11.5 -44q-16 -65 -10 -102q1 -9 -2.5 -14t-12.5 -12q-13 -9 -28 4q-28 24 -33 30q-41 41 -33 95q12 75 63 228q19 59 63.5 169.5t49.5 124.5
q4 11 10 12t8 -1.5t3 -9.5q1 -6 11 -7q46 -2 60 -50q11 -33 9 -81q-1 -27 -0.5 -47t2.5 -47t3.5 -47t3.5 -47t3 -47q0 -2 9 -45q1 -1 3 -1t3 -1q19 48 19 50q38 94 54.5 135.5t50 115.5t64.5 131q0 1 3.5 9.5t6.5 10.5t8 0q9 -4 0 -30q-1 -5 -7 -19t-8 -22q6 4 10.5 11
t9 16.5t6.5 13.5q16 28 39 5zM139 498q5 13 12 30l14 34t12 30q-1 1 -4 1.5t-4 1.5q-6 -16 -17.5 -47.5t-17.5 -47.5q1 0 2.5 -0.5t2.5 -1.5z" />
    <glyph glyph-name="o" unicode="o" horiz-adv-x="447" 
d="M445 501v-14q-2 -135 -93 -302q-55 -101 -127 -161q-44 -37 -87.5 -32.5t-93.5 50.5q-59 53 -54 152q12 228 146 401q45 59 98 82q38 16 71 7q54 -16 96.5 -71.5t43.5 -111.5zM47 202q46 204 194 364q32 35 58 43q1 1 4 1.5t4.5 1t3.5 1.5t2 3v4q-4 12 -21 2
q-5 -3 -22.5 -11.5t-28 -15.5t-18.5 -16q-12 -14 -41.5 -44.5t-49.5 -55.5t-33 -52q-1 -1 -19 -38q3 16 9 32.5t11.5 29t15 29.5t15.5 26.5t18.5 28.5t16.5 27q-33 -31 -66.5 -94.5t-54.5 -135.5t-22 -127q0 -3 -0.5 -7.5t-1 -8t0 -7.5t2 -6t5 -2.5t6 0.5t4.5 3t3 5.5t1.5 6
t1.5 7t2 6.5zM329 252q4 11 12.5 30.5t13 33.5t7.5 32t-2.5 36t-19.5 35q-6 -13 -16 -39q-4 11 2 32q17 70 11 142q-2 20 -7.5 23.5t-22.5 -5.5q-57 -33 -78 -76q-9 -16 -23 -42.5t-23.5 -45t-20.5 -43t-19 -46.5q-37 -115 -36 -186v-6.5t0.5 -8t1 -6.5t3 -6.5t5.5 -4.5
q4 -2 7.5 -2t7.5 2t6 3.5t6 5.5l5 5q42 36 67 69q0 1 2.5 4.5t3.5 4.5t3.5 3t5.5 3.5t7 2.5q-7 -11 -13.5 -21t-16 -21t-15 -17.5t-18 -18.5t-16 -15.5t-18 -17.5t-16.5 -16q15 6 30.5 15.5t24 17.5t25 23.5t22.5 21.5q-35 -52 -81 -83l-2 -2q-14 -9 -10 -18q6 -12 25 -5
q20 7 40 24q98 81 130 183z" />
    <glyph glyph-name="o" unicode="&#xf8;" horiz-adv-x="447" 
d="M445 501v-14q-2 -135 -93 -302q-55 -101 -127 -161q-44 -37 -87.5 -32.5t-93.5 50.5q-59 53 -54 152q12 228 146 401q45 59 98 82q38 16 71 7q54 -16 96.5 -71.5t43.5 -111.5zM47 202q46 204 194 364q32 35 58 43q1 1 4 1.5t4.5 1t3.5 1.5t2 3v4q-4 12 -21 2
q-5 -3 -22.5 -11.5t-28 -15.5t-18.5 -16q-12 -14 -41.5 -44.5t-49.5 -55.5t-33 -52q-1 -1 -19 -38q3 16 9 32.5t11.5 29t15 29.5t15.5 26.5t18.5 28.5t16.5 27q-33 -31 -66.5 -94.5t-54.5 -135.5t-22 -127q0 -3 -0.5 -7.5t-1 -8t0 -7.5t2 -6t5 -2.5t6 0.5t4.5 3t3 5.5t1.5 6
t1.5 7t2 6.5zM329 252q4 11 12.5 30.5t13 33.5t7.5 32t-2.5 36t-19.5 35q-6 -13 -16 -39q-4 11 2 32q17 70 11 142q-2 20 -7.5 23.5t-22.5 -5.5q-57 -33 -78 -76q-9 -16 -23 -42.5t-23.5 -45t-20.5 -43t-19 -46.5q-37 -115 -36 -186v-6.5t0.5 -8t1 -6.5t3 -6.5t5.5 -4.5
q4 -2 7.5 -2t7.5 2t6 3.5t6 5.5l5 5q42 36 67 69q0 1 2.5 4.5t3.5 4.5t3.5 3t5.5 3.5t7 2.5q-7 -11 -13.5 -21t-16 -21t-15 -17.5t-18 -18.5t-16 -15.5t-18 -17.5t-16.5 -16q15 6 30.5 15.5t24 17.5t25 23.5t22.5 21.5q-35 -52 -81 -83l-2 -2q-14 -9 -10 -18q6 -12 25 -5
q20 7 40 24q98 81 130 183z" />
    <glyph glyph-name="o" unicode="&#xf6;" horiz-adv-x="447" 
d="M445 501v-14q-2 -135 -93 -302q-55 -101 -127 -161q-44 -37 -87.5 -32.5t-93.5 50.5q-59 53 -54 152q12 228 146 401q45 59 98 82q38 16 71 7q54 -16 96.5 -71.5t43.5 -111.5zM47 202q46 204 194 364q32 35 58 43q1 1 4 1.5t4.5 1t3.5 1.5t2 3v4q-4 12 -21 2
q-5 -3 -22.5 -11.5t-28 -15.5t-18.5 -16q-12 -14 -41.5 -44.5t-49.5 -55.5t-33 -52q-1 -1 -19 -38q3 16 9 32.5t11.5 29t15 29.5t15.5 26.5t18.5 28.5t16.5 27q-33 -31 -66.5 -94.5t-54.5 -135.5t-22 -127q0 -3 -0.5 -7.5t-1 -8t0 -7.5t2 -6t5 -2.5t6 0.5t4.5 3t3 5.5t1.5 6
t1.5 7t2 6.5zM329 252q4 11 12.5 30.5t13 33.5t7.5 32t-2.5 36t-19.5 35q-6 -13 -16 -39q-4 11 2 32q17 70 11 142q-2 20 -7.5 23.5t-22.5 -5.5q-57 -33 -78 -76q-9 -16 -23 -42.5t-23.5 -45t-20.5 -43t-19 -46.5q-37 -115 -36 -186v-6.5t0.5 -8t1 -6.5t3 -6.5t5.5 -4.5
q4 -2 7.5 -2t7.5 2t6 3.5t6 5.5l5 5q42 36 67 69q0 1 2.5 4.5t3.5 4.5t3.5 3t5.5 3.5t7 2.5q-7 -11 -13.5 -21t-16 -21t-15 -17.5t-18 -18.5t-16 -15.5t-18 -17.5t-16.5 -16q15 6 30.5 15.5t24 17.5t25 23.5t22.5 21.5q-35 -52 -81 -83l-2 -2q-14 -9 -10 -18q6 -12 25 -5
q20 7 40 24q98 81 130 183z" />
    <glyph glyph-name="o" unicode="&#xf5;" horiz-adv-x="447" 
d="M445 501v-14q-2 -135 -93 -302q-55 -101 -127 -161q-44 -37 -87.5 -32.5t-93.5 50.5q-59 53 -54 152q12 228 146 401q45 59 98 82q38 16 71 7q54 -16 96.5 -71.5t43.5 -111.5zM47 202q46 204 194 364q32 35 58 43q1 1 4 1.5t4.5 1t3.5 1.5t2 3v4q-4 12 -21 2
q-5 -3 -22.5 -11.5t-28 -15.5t-18.5 -16q-12 -14 -41.5 -44.5t-49.5 -55.5t-33 -52q-1 -1 -19 -38q3 16 9 32.5t11.5 29t15 29.5t15.5 26.5t18.5 28.5t16.5 27q-33 -31 -66.5 -94.5t-54.5 -135.5t-22 -127q0 -3 -0.5 -7.5t-1 -8t0 -7.5t2 -6t5 -2.5t6 0.5t4.5 3t3 5.5t1.5 6
t1.5 7t2 6.5zM329 252q4 11 12.5 30.5t13 33.5t7.5 32t-2.5 36t-19.5 35q-6 -13 -16 -39q-4 11 2 32q17 70 11 142q-2 20 -7.5 23.5t-22.5 -5.5q-57 -33 -78 -76q-9 -16 -23 -42.5t-23.5 -45t-20.5 -43t-19 -46.5q-37 -115 -36 -186v-6.5t0.5 -8t1 -6.5t3 -6.5t5.5 -4.5
q4 -2 7.5 -2t7.5 2t6 3.5t6 5.5l5 5q42 36 67 69q0 1 2.5 4.5t3.5 4.5t3.5 3t5.5 3.5t7 2.5q-7 -11 -13.5 -21t-16 -21t-15 -17.5t-18 -18.5t-16 -15.5t-18 -17.5t-16.5 -16q15 6 30.5 15.5t24 17.5t25 23.5t22.5 21.5q-35 -52 -81 -83l-2 -2q-14 -9 -10 -18q6 -12 25 -5
q20 7 40 24q98 81 130 183z" />
    <glyph glyph-name="o" unicode="&#xf4;" horiz-adv-x="447" 
d="M445 501v-14q-2 -135 -93 -302q-55 -101 -127 -161q-44 -37 -87.5 -32.5t-93.5 50.5q-59 53 -54 152q12 228 146 401q45 59 98 82q38 16 71 7q54 -16 96.5 -71.5t43.5 -111.5zM47 202q46 204 194 364q32 35 58 43q1 1 4 1.5t4.5 1t3.5 1.5t2 3v4q-4 12 -21 2
q-5 -3 -22.5 -11.5t-28 -15.5t-18.5 -16q-12 -14 -41.5 -44.5t-49.5 -55.5t-33 -52q-1 -1 -19 -38q3 16 9 32.5t11.5 29t15 29.5t15.5 26.5t18.5 28.5t16.5 27q-33 -31 -66.5 -94.5t-54.5 -135.5t-22 -127q0 -3 -0.5 -7.5t-1 -8t0 -7.5t2 -6t5 -2.5t6 0.5t4.5 3t3 5.5t1.5 6
t1.5 7t2 6.5zM329 252q4 11 12.5 30.5t13 33.5t7.5 32t-2.5 36t-19.5 35q-6 -13 -16 -39q-4 11 2 32q17 70 11 142q-2 20 -7.5 23.5t-22.5 -5.5q-57 -33 -78 -76q-9 -16 -23 -42.5t-23.5 -45t-20.5 -43t-19 -46.5q-37 -115 -36 -186v-6.5t0.5 -8t1 -6.5t3 -6.5t5.5 -4.5
q4 -2 7.5 -2t7.5 2t6 3.5t6 5.5l5 5q42 36 67 69q0 1 2.5 4.5t3.5 4.5t3.5 3t5.5 3.5t7 2.5q-7 -11 -13.5 -21t-16 -21t-15 -17.5t-18 -18.5t-16 -15.5t-18 -17.5t-16.5 -16q15 6 30.5 15.5t24 17.5t25 23.5t22.5 21.5q-35 -52 -81 -83l-2 -2q-14 -9 -10 -18q6 -12 25 -5
q20 7 40 24q98 81 130 183z" />
    <glyph glyph-name="o" unicode="&#xf3;" horiz-adv-x="447" 
d="M445 501v-14q-2 -135 -93 -302q-55 -101 -127 -161q-44 -37 -87.5 -32.5t-93.5 50.5q-59 53 -54 152q12 228 146 401q45 59 98 82q38 16 71 7q54 -16 96.5 -71.5t43.5 -111.5zM47 202q46 204 194 364q32 35 58 43q1 1 4 1.5t4.5 1t3.5 1.5t2 3v4q-4 12 -21 2
q-5 -3 -22.5 -11.5t-28 -15.5t-18.5 -16q-12 -14 -41.5 -44.5t-49.5 -55.5t-33 -52q-1 -1 -19 -38q3 16 9 32.5t11.5 29t15 29.5t15.5 26.5t18.5 28.5t16.5 27q-33 -31 -66.5 -94.5t-54.5 -135.5t-22 -127q0 -3 -0.5 -7.5t-1 -8t0 -7.5t2 -6t5 -2.5t6 0.5t4.5 3t3 5.5t1.5 6
t1.5 7t2 6.5zM329 252q4 11 12.5 30.5t13 33.5t7.5 32t-2.5 36t-19.5 35q-6 -13 -16 -39q-4 11 2 32q17 70 11 142q-2 20 -7.5 23.5t-22.5 -5.5q-57 -33 -78 -76q-9 -16 -23 -42.5t-23.5 -45t-20.5 -43t-19 -46.5q-37 -115 -36 -186v-6.5t0.5 -8t1 -6.5t3 -6.5t5.5 -4.5
q4 -2 7.5 -2t7.5 2t6 3.5t6 5.5l5 5q42 36 67 69q0 1 2.5 4.5t3.5 4.5t3.5 3t5.5 3.5t7 2.5q-7 -11 -13.5 -21t-16 -21t-15 -17.5t-18 -18.5t-16 -15.5t-18 -17.5t-16.5 -16q15 6 30.5 15.5t24 17.5t25 23.5t22.5 21.5q-35 -52 -81 -83l-2 -2q-14 -9 -10 -18q6 -12 25 -5
q20 7 40 24q98 81 130 183z" />
    <glyph glyph-name="o" unicode="&#xf2;" horiz-adv-x="447" 
d="M445 501v-14q-2 -135 -93 -302q-55 -101 -127 -161q-44 -37 -87.5 -32.5t-93.5 50.5q-59 53 -54 152q12 228 146 401q45 59 98 82q38 16 71 7q54 -16 96.5 -71.5t43.5 -111.5zM47 202q46 204 194 364q32 35 58 43q1 1 4 1.5t4.5 1t3.5 1.5t2 3v4q-4 12 -21 2
q-5 -3 -22.5 -11.5t-28 -15.5t-18.5 -16q-12 -14 -41.5 -44.5t-49.5 -55.5t-33 -52q-1 -1 -19 -38q3 16 9 32.5t11.5 29t15 29.5t15.5 26.5t18.5 28.5t16.5 27q-33 -31 -66.5 -94.5t-54.5 -135.5t-22 -127q0 -3 -0.5 -7.5t-1 -8t0 -7.5t2 -6t5 -2.5t6 0.5t4.5 3t3 5.5t1.5 6
t1.5 7t2 6.5zM329 252q4 11 12.5 30.5t13 33.5t7.5 32t-2.5 36t-19.5 35q-6 -13 -16 -39q-4 11 2 32q17 70 11 142q-2 20 -7.5 23.5t-22.5 -5.5q-57 -33 -78 -76q-9 -16 -23 -42.5t-23.5 -45t-20.5 -43t-19 -46.5q-37 -115 -36 -186v-6.5t0.5 -8t1 -6.5t3 -6.5t5.5 -4.5
q4 -2 7.5 -2t7.5 2t6 3.5t6 5.5l5 5q42 36 67 69q0 1 2.5 4.5t3.5 4.5t3.5 3t5.5 3.5t7 2.5q-7 -11 -13.5 -21t-16 -21t-15 -17.5t-18 -18.5t-16 -15.5t-18 -17.5t-16.5 -16q15 6 30.5 15.5t24 17.5t25 23.5t22.5 21.5q-35 -52 -81 -83l-2 -2q-14 -9 -10 -18q6 -12 25 -5
q20 7 40 24q98 81 130 183z" />
    <glyph glyph-name="p" unicode="p" horiz-adv-x="525" 
d="M478 573q48 -63 46 -127q-2 -58 -22 -112.5t-56 -121.5q-56 -104 -133 -168q-29 -25 -58.5 -31t-57 1.5t-65.5 28.5q-15 9 -22 7t-11 -19q-31 -137 -37 -182q-5 -45 11 -75q2 -5 3 -8.5t-0.5 -6.5t-2.5 -4.5t-4.5 -5t-4.5 -5.5q-9 -10 -24 1q-26 20 -68 70
q-13 16 -20.5 35t-10.5 32t-1.5 37.5t2.5 33t6 36.5q2 18 5.5 35t8 35.5t8.5 33.5t10 35t10 33t11 34.5t11 33l12 34.5t12 33q29 84 40.5 117t37.5 97t51 113q13 27 33 59q3 5 5 7t5 4.5t6 0t6.5 -9.5t14.5 -5q36 5 52 -36q5 -12 10.5 -16t17.5 0q54 17 90 5.5t73 -59.5z
M406 523q1 15 -4 20t-19 1q-124 -39 -162 -123q-15 -32 -29.5 -73t-22 -64.5t-23 -80t-19.5 -69.5q-4 -14 2 -18.5t19 -0.5q27 8 55 35q85 84 163 251q33 70 40 122z" />
    <glyph glyph-name="q" unicode="q" horiz-adv-x="447" 
d="M424 464q1 -162 -93 -321q-22 -38 5 -67q5 -5 52 -61q11 -14 6 -23q-6 -10 -22 -9q-48 3 -84 42q-12 13 -22 13t-23 -12q-31 -31 -67.5 -34t-77.5 16q-29 13 -49 31t-30.5 42t-15.5 47.5t-6 54.5q-4 59 14 125q4 15 11.5 42.5t11.5 44t12 41.5t15.5 43t18 39.5t23.5 39.5
q38 56 78 90q36 31 79 31.5t77 -29.5q12 -10 17 -25q10 -23 31 -23q18 -1 25 -30q17 -66 14 -108zM311 521v23q-1 2 -1 7t-0.5 7.5t-2.5 6t-5 4.5q-5 0 -6.5 1t-5 -1.5t-4.5 -3t-4.5 -4t-4.5 -3.5q-39 -35 -65 -79q-30 -48 -50 -105.5t-30.5 -108t-17.5 -114.5q-2 -12 3 -44
q2 -18 17 -13q20 6 34 32.5t8 46.5q-19 58 -20 105q0 22 10 27q14 7 36.5 -0.5t32.5 -20.5q1 -1 2.5 -4.5t3 -5t4 -2.5t5.5 -1q5 1 10 15q47 121 51 235z" />
    <glyph glyph-name="r" unicode="r" horiz-adv-x="418" 
d="M256 245q-19 -13 -8 -35q27 -55 40 -81t41 -67.5t57 -70.5q24 -24 -6 -41q-63 -37 -117 15t-102 154q-1 2 -3.5 8t-4.5 9q0 1 -1 2q-3 5 -4.5 8t-5 5.5t-8.5 2.5q-11 0 -15 -18q0 -2 -1 -3l-4.5 -18t-4.5 -19.5t-3.5 -17.5t-3 -19.5t-1 -18t1 -20t4.5 -18.5
q0 -4 -0.5 -8.5t-3 -6.5t-5.5 0q-9 7 -30.5 7t-29.5 7q-39 33 -39 72q0 59 16 126q28 116 73 235q1 2 11 33q-1 1 -5 3l-68 -166q0 11 -1 13.5t1.5 12.5l3 12t3.5 11.5t4 11.5q15 47 39.5 101.5t40.5 86.5t49 96q6 11 10 15.5t13 5t22 -7.5q14 -8 20 -11t19.5 -8t26 -2.5
t24.5 11.5q14 9 31 8.5t32 -9.5q46 -27 70 -55.5t29 -65.5t-16 -81q-16 -37 -61 -86q-79 -85 -130 -118zM289 628q-7 -4 -5 -9.5t10 -2.5q6 1 51 17q-28 10 -56 -5zM207 394q-1 -6 3 -9q6 -4 14 4q3 2 17 16l18 18l16.5 16.5t17.5 18.5t15 17.5t16 19.5t13.5 18.5t13.5 21.5
l2 3t2.5 4.5t1.5 4t1 4t-0.5 3.5t-2.5 4q-2 3 -5.5 3.5t-5.5 0t-7 -2.5t-6 -2q-51 -18 -77.5 -57.5t-46.5 -105.5zM188 318q47 37 71 57.5t57 55t54 67.5q7 12 -1 14q-3 0 -4 1t-3.5 -1.5l-3 -3t-3 -3.5t-2.5 -4q-60 -81 -151 -156q-13 -11 -14 -27z" />
    <glyph glyph-name="s" unicode="s" horiz-adv-x="404" 
d="M430 581q12 -74 -22 -158q-5 -12 -8 -17q-2 -4 -3.5 -13t-4.5 -14t-10 -5q-28 3 -43 30q-15 28 -16 63q-2 52 2 80q3 20 -5 26q-2 2 -4 2.5t-4.5 0.5h-4t-4 -1t-4 -2t-4 -2.5t-3.5 -2.5q-77 -43 -114 -115q-40 -75 23 -131q61 -52 82 -107q32 -84 -9 -161
q-29 -57 -89 -60q-72 -4 -130 27q-54 28 -66 96.5t29 113.5q11 12 25 17q20 7 29.5 1t13.5 -27q3 -17 -1 -46q-8 -48 13 -89q18 -37 51 -12q43 31 50 73.5t-23 86.5q-15 21 -62 65q-61 56 -34 138q14 45 42 84t61 66.5t77 53.5q3 2 14 6.5t15.5 8.5t2.5 9q-3 4 -8 4.5
t-10 -1.5t-13 -5.5t-11 -4.5q-12 -3 -23 -8.5t-22.5 -13.5t-19 -14t-20.5 -16.5t-18 -15.5q41 67 111 99q1 1 4 2q45 11 103 -27t65 -84zM315 604q-2 3 -4.5 4t-4 0.5t-5 -2t-5.5 -1.5q-16 -5 -27.5 -15t-26.5 -31.5t-19 -25.5q70 48 82.5 57t9.5 14z" />
    <glyph glyph-name="s" unicode="&#xdf;" horiz-adv-x="404" 
d="M430 581q12 -74 -22 -158q-5 -12 -8 -17q-2 -4 -3.5 -13t-4.5 -14t-10 -5q-28 3 -43 30q-15 28 -16 63q-2 52 2 80q3 20 -5 26q-2 2 -4 2.5t-4.5 0.5h-4t-4 -1t-4 -2t-4 -2.5t-3.5 -2.5q-77 -43 -114 -115q-40 -75 23 -131q61 -52 82 -107q32 -84 -9 -161
q-29 -57 -89 -60q-72 -4 -130 27q-54 28 -66 96.5t29 113.5q11 12 25 17q20 7 29.5 1t13.5 -27q3 -17 -1 -46q-8 -48 13 -89q18 -37 51 -12q43 31 50 73.5t-23 86.5q-15 21 -62 65q-61 56 -34 138q14 45 42 84t61 66.5t77 53.5q3 2 14 6.5t15.5 8.5t2.5 9q-3 4 -8 4.5
t-10 -1.5t-13 -5.5t-11 -4.5q-12 -3 -23 -8.5t-22.5 -13.5t-19 -14t-20.5 -16.5t-18 -15.5q41 67 111 99q1 1 4 2q45 11 103 -27t65 -84zM315 604q-2 3 -4.5 4t-4 0.5t-5 -2t-5.5 -1.5q-16 -5 -27.5 -15t-26.5 -31.5t-19 -25.5q70 48 82.5 57t9.5 14z" />
    <glyph glyph-name="t" unicode="t" horiz-adv-x="468" 
d="M556 582q16 -3 16 -11q0 -6 -4 -8t-14 -3h-12t-11 -1q-16 -5 -33.5 -5.5t-40 1t-33.5 1.5q-24 -1 -31 -20q-13 -35 -34 -90.5t-39 -104.5t-33 -91q-2 -5 -8.5 -24t-9 -25.5t-8 -23.5t-8 -25.5t-7 -24t-6.5 -25.5t-4.5 -24t-3.5 -27t-1 -26q-1 -11 -17.5 -20t-25.5 -2
q-24 17 -34.5 25.5t-22 21t-13.5 24.5t-2 29.5t6 42.5q5 20 10.5 40.5t12.5 42.5t12.5 39.5t14.5 41.5t14.5 38.5t16.5 41.5t15.5 38.5t16.5 41t16 38.5q14 32 8 41t-40 6q-28 -2 -76.5 -2t-76.5 -1q-23 -1 -24 12q0 4 1.5 6t4.5 3.5t4.5 2t6 1t5.5 0.5q76 12 154 16h8.5
t9.5 0.5t8 2.5t8 5q-80 -5 -86 -6q-14 -1 -32.5 -3.5t-37 -4.5t-33.5 -3q-1 -1 -6 -2t-7.5 -1t-5.5 3t-3 10q0 4 -2.5 10t-4.5 11t-3 10.5t3.5 10t14.5 7.5q57 20 164 28q171 15 302 -5q18 -2 36 -8t14 -19q-2 -9 -20 -8q-16 2 -39 4t-45 4t-39 3q-52 4 -80 -3q13 -5 29 -7
t29 -2.5t30.5 -1.5t28.5 -2q7 -1 25.5 -2.5t31.5 -3.5t25 -6q20 -6 18 -15q-1 -4 -3.5 -5.5t-5 -1.5t-7 0.5t-6.5 0.5q-18 1 -52 4t-42 3q-27 2 -41 -4q100 -7 110 -8q18 -1 44 -6zM266 630q1 0 3 1h5t4 2t1 6q0 5 -14 5q-123 -4 -211 -25q38 6 109.5 7t102.5 4z" />
    <glyph glyph-name="u" unicode="u" horiz-adv-x="503" 
d="M492 620q27 -13 15 -50q-51 -163 -71 -228q-42 -141 -54 -267q-4 -43 4 -68q3 -10 -2 -14.5t-16 -5.5q-27 -2 -62 24.5t-48 57.5q-1 3 -2 7.5t-1.5 7.5t-3 5.5t-6.5 2.5q-5 0 -8 -2.5t-6 -9t-4 -8.5q-39 -55 -93 -68q-22 -5 -32 0q-65 35 -101 92q-10 16 -5 50
q33 197 133 427q16 36 23 74q4 19 17 21q14 1 16 -16q0 -7 10 -7q40 -2 56.5 -26.5t3.5 -62.5q-9 -27 -28.5 -76t-25.5 -64q-48 -130 -73 -275q0 -1 -1 -6.5t-1.5 -7.5t1 -6t4.5 -6q5 0 7 -1t5.5 1.5t4.5 3.5t4 5t4 5q7 7 54 66q-4 -15 -14 -32.5t-16 -25l-22 -27.5
q4 -5 8 0t17 21.5t17.5 22t15.5 21t15.5 23.5t13 22t12.5 25t8.5 25t6.5 28q1 7 4 11q18 33 36 74t31 74t30.5 76.5t31.5 74.5q12 28 32 35q2 1 10 4t10.5 3.5t8 1t8 -2t5.5 -7.5t5 -14q1 -4 8 -8z" />
    <glyph glyph-name="u" unicode="&#xfc;" horiz-adv-x="503" 
d="M492 620q27 -13 15 -50q-51 -163 -71 -228q-42 -141 -54 -267q-4 -43 4 -68q3 -10 -2 -14.5t-16 -5.5q-27 -2 -62 24.5t-48 57.5q-1 3 -2 7.5t-1.5 7.5t-3 5.5t-6.5 2.5q-5 0 -8 -2.5t-6 -9t-4 -8.5q-39 -55 -93 -68q-22 -5 -32 0q-65 35 -101 92q-10 16 -5 50
q33 197 133 427q16 36 23 74q4 19 17 21q14 1 16 -16q0 -7 10 -7q40 -2 56.5 -26.5t3.5 -62.5q-9 -27 -28.5 -76t-25.5 -64q-48 -130 -73 -275q0 -1 -1 -6.5t-1.5 -7.5t1 -6t4.5 -6q5 0 7 -1t5.5 1.5t4.5 3.5t4 5t4 5q7 7 54 66q-4 -15 -14 -32.5t-16 -25l-22 -27.5
q4 -5 8 0t17 21.5t17.5 22t15.5 21t15.5 23.5t13 22t12.5 25t8.5 25t6.5 28q1 7 4 11q18 33 36 74t31 74t30.5 76.5t31.5 74.5q12 28 32 35q2 1 10 4t10.5 3.5t8 1t8 -2t5.5 -7.5t5 -14q1 -4 8 -8z" />
    <glyph glyph-name="u" unicode="&#xfb;" horiz-adv-x="503" 
d="M492 620q27 -13 15 -50q-51 -163 -71 -228q-42 -141 -54 -267q-4 -43 4 -68q3 -10 -2 -14.5t-16 -5.5q-27 -2 -62 24.5t-48 57.5q-1 3 -2 7.5t-1.5 7.5t-3 5.5t-6.5 2.5q-5 0 -8 -2.5t-6 -9t-4 -8.5q-39 -55 -93 -68q-22 -5 -32 0q-65 35 -101 92q-10 16 -5 50
q33 197 133 427q16 36 23 74q4 19 17 21q14 1 16 -16q0 -7 10 -7q40 -2 56.5 -26.5t3.5 -62.5q-9 -27 -28.5 -76t-25.5 -64q-48 -130 -73 -275q0 -1 -1 -6.5t-1.5 -7.5t1 -6t4.5 -6q5 0 7 -1t5.5 1.5t4.5 3.5t4 5t4 5q7 7 54 66q-4 -15 -14 -32.5t-16 -25l-22 -27.5
q4 -5 8 0t17 21.5t17.5 22t15.5 21t15.5 23.5t13 22t12.5 25t8.5 25t6.5 28q1 7 4 11q18 33 36 74t31 74t30.5 76.5t31.5 74.5q12 28 32 35q2 1 10 4t10.5 3.5t8 1t8 -2t5.5 -7.5t5 -14q1 -4 8 -8z" />
    <glyph glyph-name="u" unicode="&#xfa;" horiz-adv-x="503" 
d="M492 620q27 -13 15 -50q-51 -163 -71 -228q-42 -141 -54 -267q-4 -43 4 -68q3 -10 -2 -14.5t-16 -5.5q-27 -2 -62 24.5t-48 57.5q-1 3 -2 7.5t-1.5 7.5t-3 5.5t-6.5 2.5q-5 0 -8 -2.5t-6 -9t-4 -8.5q-39 -55 -93 -68q-22 -5 -32 0q-65 35 -101 92q-10 16 -5 50
q33 197 133 427q16 36 23 74q4 19 17 21q14 1 16 -16q0 -7 10 -7q40 -2 56.5 -26.5t3.5 -62.5q-9 -27 -28.5 -76t-25.5 -64q-48 -130 -73 -275q0 -1 -1 -6.5t-1.5 -7.5t1 -6t4.5 -6q5 0 7 -1t5.5 1.5t4.5 3.5t4 5t4 5q7 7 54 66q-4 -15 -14 -32.5t-16 -25l-22 -27.5
q4 -5 8 0t17 21.5t17.5 22t15.5 21t15.5 23.5t13 22t12.5 25t8.5 25t6.5 28q1 7 4 11q18 33 36 74t31 74t30.5 76.5t31.5 74.5q12 28 32 35q2 1 10 4t10.5 3.5t8 1t8 -2t5.5 -7.5t5 -14q1 -4 8 -8z" />
    <glyph glyph-name="u" unicode="&#xf9;" horiz-adv-x="503" 
d="M492 620q27 -13 15 -50q-51 -163 -71 -228q-42 -141 -54 -267q-4 -43 4 -68q3 -10 -2 -14.5t-16 -5.5q-27 -2 -62 24.5t-48 57.5q-1 3 -2 7.5t-1.5 7.5t-3 5.5t-6.5 2.5q-5 0 -8 -2.5t-6 -9t-4 -8.5q-39 -55 -93 -68q-22 -5 -32 0q-65 35 -101 92q-10 16 -5 50
q33 197 133 427q16 36 23 74q4 19 17 21q14 1 16 -16q0 -7 10 -7q40 -2 56.5 -26.5t3.5 -62.5q-9 -27 -28.5 -76t-25.5 -64q-48 -130 -73 -275q0 -1 -1 -6.5t-1.5 -7.5t1 -6t4.5 -6q5 0 7 -1t5.5 1.5t4.5 3.5t4 5t4 5q7 7 54 66q-4 -15 -14 -32.5t-16 -25l-22 -27.5
q4 -5 8 0t17 21.5t17.5 22t15.5 21t15.5 23.5t13 22t12.5 25t8.5 25t6.5 28q1 7 4 11q18 33 36 74t31 74t30.5 76.5t31.5 74.5q12 28 32 35q2 1 10 4t10.5 3.5t8 1t8 -2t5.5 -7.5t5 -14q1 -4 8 -8z" />
    <glyph glyph-name="v" unicode="v" 
d="M428 578q3 -31 -14 -91q-77 -286 -244 -465q-27 -29 -44 -31t-51 18q-4 2 -16 6q-22 8 -36.5 20.5t-22 29.5t-8.5 41q-5 64 27 171q50 165 84 251q7 17 15.5 33t24.5 42.5t19 31.5q11 19 22 13q5 -2 6 -5.5t0 -6t-3.5 -7t-3.5 -5.5q-34 -75 -84 -232q0 -1 -5 -22l1 -0.5
t2 -0.5q37 109 40 116q10 27 30.5 76.5t24.5 58.5q6 14 12 15t17 -10q26 -27 13 -63q-83 -236 -114 -405q-2 -15 -6 -65q-2 -16 7 -18q8 -1 15 12q9 14 81 137q6 12 13 17q-29 -77 -112 -200q5 1 9 2.5t7.5 5l4.5 4.5t4.5 5.5l3.5 4.5q150 186 214 432q21 84 -5 169
q-1 3 -3 8t-3 8.5t-1.5 7.5t1 7t5.5 5q15 8 36 -17q33 -39 37 -104zM82 51q7 38 -1 60q-8 -28 1 -60z" />
    <glyph glyph-name="w" unicode="w" horiz-adv-x="751" 
d="M756 494q7 -64 -22 -135q-80 -194 -262 -331q-35 -26 -71 -30.5t-65.5 10t-52.5 37.5t-37 52q-1 2 -2.5 8t-4 9t-7.5 3q-4 1 -7.5 -1t-4.5 -4t-4 -7t-3 -6q-42 -66 -106 -84q-18 -5 -31 2q-57 30 -76 71t-5 104q44 204 184 419q15 23 17 33q3 15 16 14q12 -1 10 -15
q0 -8 3 -11t9 0q8 4 15 3.5t11 -1.5t10 -7.5t7 -8l7 -10.5q23 -31 8 -57q-7 -13 -17 -28q-99 -151 -162 -356q-4 -14 -9 -44q-3 -17 4 -21q8 -4 18 6q1 2 2 3q5 5 41 43q1 0 2.5 -1.5l2.5 -2.5q-26 -31 -28 -34q-2 -2 -32 -34h9q97 80 124 161q39 120 71 195q8 18 18 37
t21.5 36.5t22 34t23 35.5t21.5 35q7 13 21 10q32 -7 49.5 -37t5.5 -60q-13 -36 -28.5 -76t-34 -87.5t-29.5 -75.5q-5 -14 -20 -50t-24 -61.5t-15 -51.5q-1 -3 -3 -10t-3 -11t-1.5 -10.5t0 -11t3.5 -9t8 -7.5q7 -2 11 -3t10.5 2.5t10 6.5t9.5 8.5t9 7.5q97 71 135 170
q12 31 44.5 93t44.5 96q9 25 13 38.5t9 35t4 41t-8 38.5q-4 14 4 15.5t17 -3.5q80 -33 90 -120z" />
    <glyph glyph-name="x" unicode="x" 
d="M430 621q13 -3 10 -14q-1 -2 -1.5 -6t-1.5 -6l-2.5 -5t-3.5 -5.5t-6 -4.5q-11 -6 -22 -15t-17.5 -16t-20 -22.5t-19.5 -21.5q12 2 21 7.5t12.5 9l11.5 11.5q19 22 32 31q-7 -13 -17.5 -27.5t-16 -21.5t-22.5 -25.5t-19 -20.5q-20 -23 -89 -100q-19 -21 -15 -47
q27 -151 94 -290q9 -17 3 -28t-25 -11q-68 0 -107 62q-10 17 -20.5 36t-23.5 46t-18 38q-1 1 -2.5 6t-4 7t-5.5 3q-8 2 -17 -11q-23 -35 -35.5 -55.5t-28.5 -53t-24 -61.5q-4 -18 -17 -21.5t-26 9.5q-33 30 -15 73q36 83 99 156q53 60 43 152q-2 21 -2.5 48.5t0 49.5
t-0.5 49q0 10 -2 37.5t-2 42.5q0 2 -0.5 10t0.5 11.5t3 8t9 4t17 -5.5q6 -2 20.5 -0.5t23.5 -1.5q37 -14 38 -53q4 -66 7 -107q2 -28 11 -32q6 -2 10 0.5t9 10t7 8.5q56 59 144 155q10 10 24 7zM288 440q18 17 39 37q-24 -11 -39 -37z" />
    <glyph glyph-name="y" unicode="y" horiz-adv-x="496" 
d="M473 636q68 -8 49 -75q-8 -28 -24.5 -79t-22.5 -71q-74 -247 -161 -486q-34 -92 -96 -182q-35 -52 -87.5 -61t-102.5 28q-44 33 -69 64q-11 13 -5 20q7 9 21 4q28 -10 37 -20q32 -35 76 1q37 30 55 73q13 33 71 177q5 12 1 15q-2 2 -4.5 2t-3.5 -1t-4.5 -3.5l-3.5 -2.5
q-46 -32 -66 -40q-34 -13 -61 9q-6 5 -29 24q-73 63 -45 153q38 122 105 269q23 50 66 175q1 1 2 4q1 5 2 7.5t4 4.5t7 3q10 0 14 -16q1 -6 10 -8q36 -9 51 -36t3 -64q-13 -40 -44 -114t-36 -86q-27 -70 -67 -178q-4 -11 -12 -48q-2 -13 5 -17q6 -4 17 5q19 14 39 39
q1 2 20 24q-2 -8 -7 -17t-9 -15.5t-11.5 -14.5t-12 -13t-13.5 -13.5t-13 -13.5q13 2 16.5 4t12.5 12q58 62 126 177q18 30 33 62t36 82t27 64q11 25 24.5 58t26.5 65t25 57q5 13 11 14q4 0 6 -1.5t2.5 -7l0.5 -5.5q1 -6 8 -7zM182 567q-12 -27 -23 -52q11 9 20 29q0 1 8 21
q-1 0 -2.5 1t-2.5 1zM95 -242q26 10 36 35q-22 -14 -36 -35zM432 532q12 32 28 72q-1 0 -3.5 1t-3.5 2q-9 -24 -27 -73q1 0 3 -0.5t3 -1.5z" />
    <glyph glyph-name="y" unicode="&#xff;" horiz-adv-x="496" 
d="M473 636q68 -8 49 -75q-8 -28 -24.5 -79t-22.5 -71q-74 -247 -161 -486q-34 -92 -96 -182q-35 -52 -87.5 -61t-102.5 28q-44 33 -69 64q-11 13 -5 20q7 9 21 4q28 -10 37 -20q32 -35 76 1q37 30 55 73q13 33 71 177q5 12 1 15q-2 2 -4.5 2t-3.5 -1t-4.5 -3.5l-3.5 -2.5
q-46 -32 -66 -40q-34 -13 -61 9q-6 5 -29 24q-73 63 -45 153q38 122 105 269q23 50 66 175q1 1 2 4q1 5 2 7.5t4 4.5t7 3q10 0 14 -16q1 -6 10 -8q36 -9 51 -36t3 -64q-13 -40 -44 -114t-36 -86q-27 -70 -67 -178q-4 -11 -12 -48q-2 -13 5 -17q6 -4 17 5q19 14 39 39
q1 2 20 24q-2 -8 -7 -17t-9 -15.5t-11.5 -14.5t-12 -13t-13.5 -13.5t-13 -13.5q13 2 16.5 4t12.5 12q58 62 126 177q18 30 33 62t36 82t27 64q11 25 24.5 58t26.5 65t25 57q5 13 11 14q4 0 6 -1.5t2.5 -7l0.5 -5.5q1 -6 8 -7zM182 567q-12 -27 -23 -52q11 9 20 29q0 1 8 21
q-1 0 -2.5 1t-2.5 1zM95 -242q26 10 36 35q-22 -14 -36 -35zM432 532q12 32 28 72q-1 0 -3.5 1t-3.5 2q-9 -24 -27 -73q1 0 3 -0.5t3 -1.5z" />
    <glyph glyph-name="y" unicode="&#xfd;" horiz-adv-x="496" 
d="M473 636q68 -8 49 -75q-8 -28 -24.5 -79t-22.5 -71q-74 -247 -161 -486q-34 -92 -96 -182q-35 -52 -87.5 -61t-102.5 28q-44 33 -69 64q-11 13 -5 20q7 9 21 4q28 -10 37 -20q32 -35 76 1q37 30 55 73q13 33 71 177q5 12 1 15q-2 2 -4.5 2t-3.5 -1t-4.5 -3.5l-3.5 -2.5
q-46 -32 -66 -40q-34 -13 -61 9q-6 5 -29 24q-73 63 -45 153q38 122 105 269q23 50 66 175q1 1 2 4q1 5 2 7.5t4 4.5t7 3q10 0 14 -16q1 -6 10 -8q36 -9 51 -36t3 -64q-13 -40 -44 -114t-36 -86q-27 -70 -67 -178q-4 -11 -12 -48q-2 -13 5 -17q6 -4 17 5q19 14 39 39
q1 2 20 24q-2 -8 -7 -17t-9 -15.5t-11.5 -14.5t-12 -13t-13.5 -13.5t-13 -13.5q13 2 16.5 4t12.5 12q58 62 126 177q18 30 33 62t36 82t27 64q11 25 24.5 58t26.5 65t25 57q5 13 11 14q4 0 6 -1.5t2.5 -7l0.5 -5.5q1 -6 8 -7zM182 567q-12 -27 -23 -52q11 9 20 29q0 1 8 21
q-1 0 -2.5 1t-2.5 1zM95 -242q26 10 36 35q-22 -14 -36 -35zM432 532q12 32 28 72q-1 0 -3.5 1t-3.5 2q-9 -24 -27 -73q1 0 3 -0.5t3 -1.5z" />
    <glyph glyph-name="z" unicode="z" 
d="M326 401q-5 -5 -14 -16q-47 -54 -72 -83.5t-60.5 -78t-60.5 -91.5q-1 -3 -5 -8t-6 -8.5t-3.5 -8t-1 -9t2.5 -8.5q3 -4 6.5 -5.5t8 -0.5t8.5 2t9 3t8 2q81 15 185 3q21 -2 37 -32q5 -7 1 -15t-16 -8q-14 0 -28 -1t-26.5 -2.5t-28 -4.5t-26 -5.5t-27 -6.5t-25.5 -6.5
l-27 -7.5t-26 -7q-33 -8 -61 -1.5t-49 29t-29 54.5q-12 52 12 103q41 85 145 207q65 76 132 133q1 1 26 19q-48 -49 -51 -51q-124 -117 -206 -248q0 -1 -13 -25q119 175 311 338q-10 1 -17 -0.5t-13.5 -6t-9.5 -5.5q2 12 -5 14.5t-16 -0.5q-18 -2 -39 -4t-46.5 -5t-40.5 -4
q-32 -4 -43 24q-8 22 -3.5 31.5t26.5 16.5q89 27 236 35q12 1 22 -7q20 -15 29 -53t-3 -60q-13 -23 -29.5 -43.5t-42.5 -49t-35 -38.5zM125 628q45 28 121 34q-7 -2 -52.5 -13.5t-68.5 -20.5z" />
    <glyph glyph-name="braceleft" unicode="{" horiz-adv-x="388" 
d="M308 604q22 -3 30 -13q-11 -20 -31 -24t-36 -29q-18 -32 -29 -78q-18 -81 -35 -116q-2 -4 -4 -11t-4 -10q-14 -32 -38 -52q-13 -12 -3 -21q0 -41 -2 -50q-4 -19 -16 -51t-16 -47q-10 -41 11 -61q11 -9 24 -9q5 -1 17 -4.5t19 -1.5q3 1 6.5 -3t6.5 -2q3 -4 2 -7.5t0 -7.5
t6 -6q-26 -12 -52 -3q-5 2 -18 5t-20 5q-30 11 -52 32q-26 24 -24 48q1 4 0 14q-1 44 18 87q4 9 15 43q6 21 -10 38q-1 2 -4 4q-5 6 -12 7q-1 1 -2 9q-2 14 11 14q16 0 29 15l11.5 11.5t14.5 17.5q23 38 33 83q2 9 6 18q1 3 16.5 44t26.5 61q2 3 10 19q4 9 9.5 15t14 9
t14.5 4.5t17 3.5q17 2 40 0zM212 529q3 1 6 18q-4 -1 -3 -5v-2v-2q4 -1 4 3v2q-2 -1 -4 -9q-1 0 0 2v1.5t-2 0.5q-3 0 -3 -3q0 -1 2 -6zM233 569l-4 -2q-1 0 -3.5 -2l-2.5 -2l-2 -2.5t-1 -3.5t1 -5q9 5 11 19q-3 -2 -3 -3q-1 -1 -0.5 -1.5t2.5 -0.5q1 1 2 3zM70 141l4 9
q8 13 15.5 37.5t12.5 34.5v20q-3 -7 -10 -26t-10 -29q-10 -29 -10 -49l2 4v11h-2q-3 -2 -2 -12z" />
    <glyph glyph-name="verticalbar" unicode="|" horiz-adv-x="186" 
d="M50 520q1 2 3.5 13.5t0.5 18.5h12q11 10 22 -2q6 -7 8 -7q18 2 22 -14q2 -4 8 -5q9 -2 9 -14q0 -1 1 -35t-2 -35q-2 -13 -4 -73q-1 -51 0 -73q2 -19 -1.5 -54t-3.5 -49q0 -10 0.5 -26t1 -26.5t0 -25t-2.5 -25.5q-2 -16 -2.5 -44t-1.5 -39q-3 -1 -20 -3q-4 0 -7.5 1.5
t-6.5 4.5t-6 3q-21 6 -20.5 33.5t0.5 199.5q3 15 4 31.5t0.5 38.5t-0.5 32q1 17 0 100v4.5v4v3.5t-0.5 3.5t-2 2.5t-3.5 2t-5 2q-3 0 -3 7v45z" />
    <glyph glyph-name="braceright" unicode="}" horiz-adv-x="388" 
d="M177 596l-5 6q22 9 50 3q35 -7 60 -20q34 -17 49 -44q7 -12 7 -21q-1 -4 -1 -44v-10q-4 -5 -5.5 -13t-3 -16.5t-4.5 -13.5q-2 -4 -19 -51q-7 -21 9 -39q9 -10 16 -11q2 -1 3 -10q0 -14 -13 -13q-14 0 -27 -14q-2 -3 -12 -13t-14 -16q-17 -24 -28 -64q-6 -21 -20 -58.5
t-19 -54.5q-6 -8 -13.5 -26t-13.5 -26q-13 -19 -37 -25q-9 -3 -20 -3.5t-19.5 0t-19.5 -0.5q-5 0 -21 6q0 1 -6 6q8 19 30 24q20 5 36 31q20 32 29 77q10 49 28 99q13 35 29 63q1 3 3 5.5t4 4.5l4.5 4.5l4.5 4.5l4.5 4.5t4.5 3.5q8 9 5 20q-7 21 -1 50q4 19 16.5 52t16.5 47
q11 39 -12 61q-3 3 -10.5 4t-9.5 6q-6 -2 -17 1.5t-16 2.5q-4 0 -17 5q-4 2 -4.5 5t0.5 5.5t-1 5.5zM177 67v1q-2 -1 -4 -9q-1 1 0 2v2t-2 0q-3 0 -3 -3l2 -5q3 1 6 18q-4 -1 -3 -5v-2v-2q4 -2 4 3zM156 31q1 0 3 4l3 1.5t3 2t2 2.5t1 3.5t-1 4.5q-10 -5 -8 -16v2l-4 -1
q-3 -2 1 -3zM318 461l-5 -9q-7 -13 -14.5 -38t-12.5 -34v-20q2 7 9 26t11 29q10 29 10 48l-2 -3v-11h2q2 2 2 12z" />
    <glyph glyph-name="asciitilde" unicode="~" horiz-adv-x="340" 
d="M286 262q4 -5 3 -8q-5 -4 -12 -6.5t-15 -5t-13 -4.5q-3 -2 -8 0.5t-6 2.5q-9 0 -18.5 2.5t-14.5 5t-16.5 8.5t-14.5 7q-11 5 -24 10q-9 3 -17 -1q-1 0 -16.5 -5.5t-21.5 -11.5q-3 -2 -10.5 -4t-10.5 -5q-16 16 -16 17q-14 25 13 39q24 12 46 19h11.5t11.5 -3.5t11 -4.5
q3 0 52 -17q1 -1 3 -2q15 -5 23 -6t25 4q11 6 17 -4q2 -3 12 -5q11 -2 9 -15q0 -1 -2.5 -3t-0.5 -4z" />
    <glyph glyph-name="nonbreakingspace" unicode="&#xa0;" horiz-adv-x="330" 
 />
    <glyph glyph-name="softhyphen" unicode="&#xad;" horiz-adv-x="0" 
 />
    </font>
</defs>
</svg>
